<?xml version="1.0" encoding="UTF-8"?><?xml-stylesheet type="text/css" href="style.css"?><svg xmlns="http://www.w3.org/2000/svg" xmlns:xlink="http://www.w3.org/1999/xlink" contentScriptType="text/ecmascript" zoomAndPan="magnify" contentStyleType="text/css" preserveAspectRatio="xMidYMid meet" version="1.0">
<g id="scaleSvg" transform="scale(0.25)">
<polygon class="T1" points="450,950 550,850 550,950 "/>
<polygon class="T1" points="550,750 650,850 550,850 "/>
<polygon class="T1" points="2150,2150 2050,2050 2150,2050 "/>
<polygon class="T1" points="550,950 450,1050 550,950 450,950 550,850 "/>
<polygon class="T1" points="550,850 450,950 550,850 550,950 450,950 "/>
<polygon class="T1" points="650,850 550,750 650,850 550,850 550,750 "/>
<polygon class="T1" points="450,950 550,950 450,950 550,850 550,950 "/>
<polygon class="T1" points="550,950 550,850 550,950 450,950 550,850 "/>
<polygon class="T1" points="550,750 550,850 550,950 450,950 550,850 "/>
<polygon class="T1" points="550,850 650,850 550,850 550,950 450,950 "/>
<polygon class="T1" points="2150,1950 2050,2050 2150,2050 2150,2150 2050,2050 "/>
<polygon class="T1" points="2050,2050 2150,2150 2050,2050 2150,2050 2150,2150 "/>
<polygon class="T1" points="2150,2050 2050,2050 2150,2050 2150,2150 2050,2050 "/>
<polygon class="T1" points="2150,2150 2150,2050 2150,2150 2050,2050 2150,2050 "/>
<polygon class="T1" points="2150,1850 2150,1950 2050,2050 2150,2050 2150,2150 2050,2050 2150,1950 "/>
<circle r="25" class="T1n" cx="2150" cy="2150"/>
<circle r="25" class="T1n" cx="550" cy="850"/>
<circle r="25" class="T1n" cx="1050" cy="1750"/>
<circle r="25" class="T1n" cx="1650" cy="1750"/>
<circle r="25" class="T1n" cx="650" cy="350"/>
<circle r="25" class="T1n" cx="550" cy="750"/>
<circle r="25" class="T1n" cx="650" cy="850"/>
<circle r="25" class="T1n" cx="150" cy="1150"/>
<circle r="25" class="T1n" cx="850" cy="750"/>
<circle r="25" class="T1n" cx="250" cy="1550"/>
<circle r="25" class="T1n" cx="450" cy="1050"/>
<circle r="25" class="T1n" cx="150" cy="1050"/>
<circle r="25" class="T1n" cx="850" cy="650"/>
<circle r="25" class="T1n" cx="1950" cy="1150"/>
<circle r="25" class="T1n" cx="1550" cy="450"/>
<circle r="25" class="T1n" cx="2150" cy="2050"/>
<circle r="25" class="T1n" cx="450" cy="2050"/>
<circle r="25" class="T1n" cx="1650" cy="1350"/>
<circle r="25" class="T1n" cx="1750" cy="2150"/>
<circle r="25" class="T1n" cx="450" cy="450"/>
<circle r="25" class="T1n" cx="2150" cy="1850"/>
<circle r="25" class="T1n" cx="850" cy="2050"/>
<circle r="25" class="T1n" cx="2050" cy="2050"/>
<circle r="25" class="T1n" cx="650" cy="1550"/>
<circle r="25" class="T1n" cx="150" cy="1250"/>
<circle r="25" class="T1n" cx="850" cy="850"/>
<circle r="25" class="T1n" cx="450" cy="950"/>
<circle r="25" class="T1n" cx="2150" cy="1950"/>
<circle r="25" class="T1n" cx="50" cy="850"/>
<circle r="25" class="T1n" cx="550" cy="350"/>
<circle r="25" class="T1n" cx="550" cy="950"/>
<line y2="1050" x1="550" class="T1e" x2="450" y1="950"/>
<line y2="350" x1="450" class="T1e" x2="550" y1="450"/>
<line y2="850" x1="450" class="T1e" x2="550" y1="950"/>
<line y2="850" x1="550" class="T1e" x2="650" y1="750"/>
<line y2="950" x1="550" class="T1e" x2="450" y1="950"/>
<line y2="850" x1="550" class="T1e" x2="550" y1="950"/>
<line y2="750" x1="850" class="T1e" x2="850" y1="650"/>
<line y2="1150" x1="150" class="T1e" x2="150" y1="1250"/>
<line y2="750" x1="850" class="T1e" x2="850" y1="850"/>
<line y2="1150" x1="150" class="T1e" x2="150" y1="1050"/>
<line y2="350" x1="650" class="T1e" x2="550" y1="350"/>
<line y2="850" x1="550" class="T1e" x2="550" y1="750"/>
<line y2="850" x1="550" class="T1e" x2="650" y1="850"/>
<line y2="2050" x1="2150" class="T1e" x2="2050" y1="1950"/>
<line y2="2150" x1="2050" class="T1e" x2="2150" y1="2050"/>
<line y2="1950" x1="2150" class="T1e" x2="2150" y1="1850"/>
<line y2="2050" x1="2150" class="T1e" x2="2050" y1="2050"/>
<line y2="2150" x1="2150" class="T1e" x2="2150" y1="2050"/>
<circle r="5" class="N" cx="2150" cy="2150"/>
<circle r="5" class="N" cx="550" cy="850"/>
<circle r="5" class="N" cx="1050" cy="1750"/>
<circle r="11" class="N" cx="1650" cy="1750"/>
<circle r="11" class="N" cx="650" cy="350"/>
<circle r="5" class="N" cx="550" cy="750"/>
<circle r="5" class="N" cx="650" cy="850"/>
<circle r="5" class="N" cx="150" cy="1150"/>
<circle r="5" class="N" cx="850" cy="750"/>
<circle r="18" class="N" cx="250" cy="1550"/>
<circle r="5" class="N" cx="450" cy="1050"/>
<circle r="5" class="N" cx="150" cy="1050"/>
<circle r="5" class="N" cx="850" cy="650"/>
<circle r="5" class="N" cx="1950" cy="1150"/>
<circle r="6" class="N" cx="1550" cy="450"/>
<circle r="5" class="N" cx="2150" cy="2050"/>
<circle r="5" class="N" cx="450" cy="2050"/>
<circle r="9" class="N" cx="1650" cy="1350"/>
<circle r="5" class="N" cx="1750" cy="2150"/>
<circle r="18" class="N" cx="450" cy="450"/>
<circle r="8" class="N" cx="2150" cy="1850"/>
<circle r="5" class="N" cx="850" cy="2050"/>
<circle r="5" class="N" cx="2050" cy="2050"/>
<circle r="18" class="N" cx="650" cy="1550"/>
<circle r="5" class="N" cx="150" cy="1250"/>
<circle r="5" class="N" cx="850" cy="850"/>
<circle r="5" class="N" cx="450" cy="950"/>
<circle r="6" class="N" cx="2150" cy="1950"/>
<circle r="5" class="N" cx="50" cy="850"/>
<circle r="9" class="N" cx="550" cy="350"/>
<circle r="5" class="N" cx="550" cy="950"/>
<line y2="1050" x1="550" class="E sw6" x2="450" y1="950"/>
<line y2="350" x1="450" class="E sw5" x2="550" y1="450"/>
<line y2="850" x1="450" class="E sw4" x2="550" y1="950"/>
<line y2="850" x1="550" class="E sw3" x2="650" y1="750"/>
<line y2="950" x1="550" class="E sw11" x2="450" y1="950"/>
<line y2="850" x1="550" class="E sw8" x2="550" y1="950"/>
<line y2="750" x1="850" class="E sw3" x2="850" y1="650"/>
<line y2="1150" x1="150" class="E sw4" x2="150" y1="1250"/>
<line y2="750" x1="850" class="E sw10" x2="850" y1="850"/>
<line y2="1150" x1="150" class="E sw4" x2="150" y1="1050"/>
<line y2="350" x1="650" class="E sw8" x2="550" y1="350"/>
<line y2="850" x1="550" class="E sw3" x2="550" y1="750"/>
<line y2="850" x1="550" class="E sw8" x2="650" y1="850"/>
<line y2="2050" x1="2150" class="E sw3" x2="2050" y1="1950"/>
<line y2="2150" x1="2050" class="E sw5" x2="2150" y1="2050"/>
<line y2="1950" x1="2150" class="E sw5" x2="2150" y1="1850"/>
<line y2="2050" x1="2150" class="E sw3" x2="2050" y1="2050"/>
<line y2="2150" x1="2150" class="E sw3" x2="2150" y1="2050"/>
<polygon class="T2" points="150,2050 50,2150 50,2050 "/>
<polygon class="T2" points="1650,850 1750,950 1650,950 "/>
<polygon class="T2" points="1550,850 1650,750 1650,850 "/>
<polygon class="T2" points="2150,1050 2050,1150 2050,1050 "/>
<polygon class="T2" points="2150,1050 2050,1050 2050,950 2150,950 "/>
<polygon class="T2" points="50,1950 150,2050 50,2150 50,2050 150,2050 "/>
<polygon class="T2" points="50,2150 150,2050 50,2150 50,2050 150,2050 "/>
<polygon class="T2" points="150,2050 50,2050 150,2050 50,2150 50,2050 "/>
<polygon class="T2" points="50,2050 50,2150 50,2050 150,2050 50,2150 "/>
<polygon class="T2" points="1650,950 1750,1050 1650,950 1650,850 1750,950 "/>
<polygon class="T2" points="1750,950 1650,850 1750,950 1650,950 1650,850 "/>
<polygon class="T2" points="1650,750 1550,850 1650,750 1650,850 1550,850 "/>
<polygon class="T2" points="2050,1150 2150,1050 2050,1150 2050,1050 2150,1050 "/>
<polygon class="T2" points="1650,950 1750,950 1650,950 1650,850 1750,950 "/>
<polygon class="T2" points="1650,850 1650,950 1650,850 1750,950 1650,950 "/>
<polygon class="T2" points="2050,1250 2050,1150 2050,1050 2150,1050 2050,1150 "/>
<polygon class="T2" points="2050,1050 2050,1150 2050,1050 2150,1050 2050,1150 "/>
<polygon class="T2" points="2050,950 2050,1050 2150,1050 2050,1150 2050,1050 "/>
<polygon class="T2" points="1650,850 1650,750 1650,850 1750,950 1650,950 "/>
<polygon class="T2" points="2150,1050 2150,950 2150,1050 2050,1150 2050,1050 "/>
<polygon class="T2" points="1550,850 1650,850 1750,950 1650,950 1650,850 "/>
<polygon class="T2" points="2150,950 2050,950 2150,950 2150,1050 2050,1050 2050,950 "/>
<polygon class="T2" points="50,1850 50,1950 150,2050 50,2150 50,2050 150,2050 50,1950 "/>
<circle r="25" class="T2n" cx="150" cy="2050"/>
<circle r="25" class="T2n" cx="1650" cy="750"/>
<circle r="25" class="T2n" cx="1350" cy="850"/>
<circle r="25" class="T2n" cx="1250" cy="850"/>
<circle r="25" class="T2n" cx="2050" cy="1150"/>
<circle r="25" class="T2n" cx="2050" cy="1250"/>
<circle r="25" class="T2n" cx="1750" cy="1050"/>
<circle r="25" class="T2n" cx="1750" cy="2050"/>
<circle r="25" class="T2n" cx="1450" cy="1450"/>
<circle r="25" class="T2n" cx="1550" cy="850"/>
<circle r="25" class="T2n" cx="2150" cy="950"/>
<circle r="25" class="T2n" cx="1550" cy="350"/>
<circle r="25" class="T2n" cx="2150" cy="1050"/>
<circle r="25" class="T2n" cx="2050" cy="950"/>
<circle r="25" class="T2n" cx="2050" cy="1050"/>
<circle r="25" class="T2n" cx="250" cy="1150"/>
<circle r="25" class="T2n" cx="50" cy="1950"/>
<circle r="25" class="T2n" cx="1950" cy="1550"/>
<circle r="25" class="T2n" cx="550" cy="1750"/>
<circle r="25" class="T2n" cx="1750" cy="950"/>
<circle r="25" class="T2n" cx="650" cy="450"/>
<circle r="25" class="T2n" cx="50" cy="1850"/>
<circle r="25" class="T2n" cx="1250" cy="750"/>
<circle r="25" class="T2n" cx="1150" cy="1750"/>
<circle r="25" class="T2n" cx="1650" cy="850"/>
<circle r="25" class="T2n" cx="1650" cy="950"/>
<circle r="25" class="T2n" cx="1750" cy="450"/>
<circle r="25" class="T2n" cx="50" cy="2050"/>
<circle r="25" class="T2n" cx="450" cy="2150"/>
<circle r="25" class="T2n" cx="50" cy="2150"/>
<circle r="25" class="T2n" cx="1650" cy="350"/>
<circle r="25" class="T2n" cx="1350" cy="2050"/>
<circle r="25" class="T2n" cx="550" cy="1350"/>
<line y2="2050" x1="50" class="T2e" x2="150" y1="1950"/>
<line y2="2150" x1="150" class="T2e" x2="50" y1="2050"/>
<line y2="1950" x1="50" class="T2e" x2="50" y1="1850"/>
<line y2="2050" x1="50" class="T2e" x2="150" y1="2050"/>
<line y2="2150" x1="50" class="T2e" x2="50" y1="2050"/>
<line y2="1050" x1="1650" class="T2e" x2="1750" y1="950"/>
<line y2="350" x1="1750" class="T2e" x2="1650" y1="450"/>
<line y2="850" x1="1750" class="T2e" x2="1650" y1="950"/>
<line y2="850" x1="1650" class="T2e" x2="1550" y1="750"/>
<line y2="1150" x1="2150" class="T2e" x2="2050" y1="1050"/>
<line y2="950" x1="1650" class="T2e" x2="1750" y1="950"/>
<line y2="850" x1="1650" class="T2e" x2="1650" y1="950"/>
<line y2="1150" x1="2050" class="T2e" x2="2050" y1="1250"/>
<line y2="850" x1="1350" class="T2e" x2="1250" y1="850"/>
<line y2="1050" x1="2050" class="T2e" x2="2150" y1="1050"/>
<line y2="1150" x1="2050" class="T2e" x2="2050" y1="1050"/>
<line y2="950" x1="2050" class="T2e" x2="2050" y1="1050"/>
<line y2="350" x1="1550" class="T2e" x2="1650" y1="350"/>
<line y2="850" x1="1650" class="T2e" x2="1650" y1="750"/>
<line y2="950" x1="2150" class="T2e" x2="2150" y1="1050"/>
<line y2="850" x1="1650" class="T2e" x2="1550" y1="850"/>
<line y2="950" x1="2150" class="T2e" x2="2050" y1="950"/>
<line y2="850" x1="1250" class="T2e" x2="1250" y1="750"/>
<circle r="5" class="N" cx="150" cy="2050"/>
<circle r="5" class="N" cx="1650" cy="750"/>
<circle r="5" class="N" cx="1350" cy="850"/>
<circle r="5" class="N" cx="1250" cy="850"/>
<circle r="5" class="N" cx="2050" cy="1150"/>
<circle r="5" class="N" cx="2050" cy="1250"/>
<circle r="5" class="N" cx="1750" cy="1050"/>
<circle r="5" class="N" cx="1750" cy="2050"/>
<circle r="11" class="N" cx="1450" cy="1450"/>
<circle r="5" class="N" cx="1550" cy="850"/>
<circle r="5" class="N" cx="2150" cy="950"/>
<circle r="11" class="N" cx="1550" cy="350"/>
<circle r="5" class="N" cx="2150" cy="1050"/>
<circle r="5" class="N" cx="2050" cy="950"/>
<circle r="5" class="N" cx="2050" cy="1050"/>
<circle r="5" class="N" cx="250" cy="1150"/>
<circle r="6" class="N" cx="50" cy="1950"/>
<circle r="18" class="N" cx="1950" cy="1550"/>
<circle r="11" class="N" cx="550" cy="1750"/>
<circle r="5" class="N" cx="1750" cy="950"/>
<circle r="6" class="N" cx="650" cy="450"/>
<circle r="8" class="N" cx="50" cy="1850"/>
<circle r="5" class="N" cx="1250" cy="750"/>
<circle r="5" class="N" cx="1150" cy="1750"/>
<circle r="5" class="N" cx="1650" cy="850"/>
<circle r="5" class="N" cx="1650" cy="950"/>
<circle r="18" class="N" cx="1750" cy="450"/>
<circle r="5" class="N" cx="50" cy="2050"/>
<circle r="5" class="N" cx="450" cy="2150"/>
<circle r="5" class="N" cx="50" cy="2150"/>
<circle r="9" class="N" cx="1650" cy="350"/>
<circle r="5" class="N" cx="1350" cy="2050"/>
<circle r="9" class="N" cx="550" cy="1350"/>
<line y2="2050" x1="50" class="E sw3" x2="150" y1="1950"/>
<line y2="2150" x1="150" class="E sw5" x2="50" y1="2050"/>
<line y2="1950" x1="50" class="E sw5" x2="50" y1="1850"/>
<line y2="2050" x1="50" class="E sw3" x2="150" y1="2050"/>
<line y2="2150" x1="50" class="E sw3" x2="50" y1="2050"/>
<line y2="1050" x1="1650" class="E sw6" x2="1750" y1="950"/>
<line y2="350" x1="1750" class="E sw5" x2="1650" y1="450"/>
<line y2="850" x1="1750" class="E sw4" x2="1650" y1="950"/>
<line y2="850" x1="1650" class="E sw3" x2="1550" y1="750"/>
<line y2="1150" x1="2150" class="E sw7" x2="2050" y1="1050"/>
<line y2="950" x1="1650" class="E sw11" x2="1750" y1="950"/>
<line y2="850" x1="1650" class="E sw8" x2="1650" y1="950"/>
<line y2="1150" x1="2050" class="E sw4" x2="2050" y1="1250"/>
<line y2="850" x1="1350" class="E sw10" x2="1250" y1="850"/>
<line y2="1050" x1="2050" class="E sw6" x2="2150" y1="1050"/>
<line y2="1150" x1="2050" class="E sw4" x2="2050" y1="1050"/>
<line y2="950" x1="2050" class="E sw3" x2="2050" y1="1050"/>
<line y2="350" x1="1550" class="E sw8" x2="1650" y1="350"/>
<line y2="850" x1="1650" class="E sw3" x2="1650" y1="750"/>
<line y2="950" x1="2150" class="E sw11" x2="2150" y1="1050"/>
<line y2="850" x1="1650" class="E sw8" x2="1550" y1="850"/>
<line y2="950" x1="2150" class="E sw6" x2="2050" y1="950"/>
<line y2="850" x1="1250" class="E sw8" x2="1250" y1="750"/>
<polygon class=" s5 sw2 f13" points="130,2080 184,2080 157,2116"/>
<rect x="130" width="54" y="2062" height="18" class="s13 sw2 f8"/>
<text x="150" y="2101" class="f4">28</text>
<circle r="6" class="s4 sw1 f8" cx="154" cy="2074"/>
<circle r="6" class="s4 sw1 f8" cx="172" cy="2074"/>
<line y2="2074" x1="160" class="s4 sw1" x2="166" y1="2074"/>
<line y2="2062" x1="148" class="s4 sw1" x2="160" y1="2074"/>
<line y2="2062" x1="178" class="s4 sw1" x2="184" y1="2074"/>
<polygon class=" s5 sw2 f13" points="1630,780 1684,780 1657,816"/>
<rect x="1630" width="54" y="762" height="18" class="s13 sw2 f8"/>
<text x="1650" y="801" class="f4">25</text>
<circle r="6" class="s4 sw1 f8" cx="1654" cy="774"/>
<circle r="6" class="s4 sw1 f8" cx="1672" cy="774"/>
<line y2="774" x1="1660" class="s4 sw1" x2="1666" y1="774"/>
<line y2="762" x1="1648" class="s4 sw1" x2="1660" y1="774"/>
<line y2="762" x1="1678" class="s4 sw1" x2="1684" y1="774"/>
<polygon class=" s5 sw2 f14" points="557,880 575,898 557,916 539,898"/>
<rect x="530" width="54" y="862" height="18" class="s14 sw2 f8"/>
<text x="550" y="901" class="f4">15</text>
<polygon stroke-width="0" class=" s4 f4" points="566,862 566,868 572,868 560,880 560,874 554,874"/>
<polygon class=" s5 sw2 f14" points="857,1480 875,1498 857,1516 839,1498"/>
<rect x="830" width="54" y="1462" height="18" class="s14 sw2 f8"/>
<text x="850" y="1501" class="f4">14</text>
<polygon stroke-width="0" class=" s4 f4" points="866,1462 866,1468 872,1468 860,1480 860,1474 854,1474"/>
<polygon class=" s5 sw2 f13" points="860,1453 914,1453 887,1489"/>
<rect x="860" width="54" y="1435" height="18" class="s13 sw2 f8"/>
<text x="880" y="1474" class="f4">26</text>
<circle stroke-width="0" r="3" class="s4 f4" cx="896" cy="1438"/>
<circle stroke-width="0" r="3" class="s4 f4" cx="896" cy="1450"/>
<circle stroke-width="0" r="3" class="s4 f4" cx="887" cy="1444"/>
<circle stroke-width="0" r="3" class="s4 f4" cx="905" cy="1444"/>
<line y2="1444" x1="890" class="s4 sw1" x2="902" y1="1444"/>
<line y2="1447" x1="896" class="s4 sw1" x2="896" y1="1441"/>
<rect x="1339" width="36" y="880" height="36" class="s5 sw2 f13"/>
<rect x="1330" width="54" y="862" height="18" class="s13 sw2 f8"/>
<text x="1350" y="901" class="f4">19</text>
<circle r="6" class="s4 sw1 f8" cx="1354" cy="874"/>
<circle r="6" class="s4 sw1 f8" cx="1372" cy="874"/>
<line y2="874" x1="1360" class="s4 sw1" x2="1366" y1="874"/>
<line y2="862" x1="1348" class="s4 sw1" x2="1360" y1="874"/>
<line y2="862" x1="1378" class="s4 sw1" x2="1384" y1="874"/>
<rect x="1039" width="36" y="1780" height="36" class="s5 sw2 f14"/>
<rect x="1030" width="54" y="1762" height="18" class="s14 sw2 f8"/>
<text x="1050" y="1801" class="f4">22</text>
<polygon stroke-width="0" class=" s4 f4" points="1066,1762 1066,1768 1072,1768 1060,1780 1060,1774 1054,1774"/>
<circle r="18" class="s5 sw2 f13" cx="2057" cy="1298"/>
<rect x="2030" width="54" y="1262" height="18" class="s13 sw2 f8"/>
<text x="2050" y="1301" class="f4">1</text>
<polygon stroke-width="0" class=" s4 f4" points="2057,1262 2075,1262 2066,1280"/>
<circle r="18" class="s5 sw2 f13" cx="1757" cy="1098"/>
<rect x="1730" width="54" y="1062" height="18" class="s13 sw2 f8"/>
<text x="1750" y="1101" class="f4">3</text>
<polygon stroke-width="0" class=" s4 f4" points="1757,1062 1775,1062 1766,1080"/>
<rect x="939" width="36" y="380" height="36" class="s5 sw2 f14"/>
<rect x="930" width="54" y="362" height="18" class="s14 sw2 f8"/>
<text x="950" y="401" class="f4">17</text>
<polygon stroke-width="0" class=" s4 f4" points="966,362 966,368 972,368 960,380 960,374 954,374"/>
<circle r="18" class="s5 sw2 f13" cx="987" cy="371"/>
<rect x="960" width="54" y="335" height="18" class="s13 sw2 f8"/>
<text x="980" y="374" class="f4">6</text>
<polygon stroke-width="0" class=" s4 f4" points="987,335 1005,335 996,353"/>
<polygon class=" s5 sw2 f14" points="1648,1780 1666,1780 1675,1789 1675,1807 1666,1816 1648,1816 1639,1807 1639,1789"/>
<rect x="1630" width="54" y="1762" height="18" class="s14 sw2 f8"/>
<text x="1650" y="1801" class="f4">12</text>
<polygon stroke-width="0" class=" s4 f4" points="1666,1762 1666,1768 1672,1768 1660,1780 1660,1774 1654,1774"/>
<polygon class=" s5 sw2 f13" points="1748,2080 1766,2080 1775,2089 1775,2107 1766,2116 1748,2116 1739,2107 1739,2089"/>
<rect x="1730" width="54" y="2062" height="18" class="s13 sw2 f8"/>
<text x="1750" y="2101" class="f4">10</text>
<circle r="6" class="s4 sw1 f8" cx="1754" cy="2074"/>
<circle r="6" class="s4 sw1 f8" cx="1772" cy="2074"/>
<line y2="2074" x1="1760" class="s4 sw1" x2="1766" y1="2074"/>
<line y2="2062" x1="1748" class="s4 sw1" x2="1760" y1="2074"/>
<line y2="2062" x1="1778" class="s4 sw1" x2="1784" y1="2074"/>
<polygon class=" s5 sw2 f14" points="1430,1480 1484,1480 1457,1516"/>
<rect x="1430" width="54" y="1462" height="18" class="s14 sw2 f8"/>
<text x="1450" y="1501" class="f4">26</text>
<polygon stroke-width="0" class=" s4 f4" points="1466,1462 1466,1468 1472,1468 1460,1480 1460,1474 1454,1474"/>
<polygon class=" s5 sw2 f13" points="1487,1453 1505,1471 1487,1489 1469,1471"/>
<rect x="1460" width="54" y="1435" height="18" class="s13 sw2 f8"/>
<text x="1480" y="1474" class="f4">14</text>
<circle stroke-width="0" r="3" class="s4 f4" cx="1496" cy="1438"/>
<circle stroke-width="0" r="3" class="s4 f4" cx="1496" cy="1450"/>
<circle stroke-width="0" r="3" class="s4 f4" cx="1487" cy="1444"/>
<circle stroke-width="0" r="3" class="s4 f4" cx="1505" cy="1444"/>
<line y2="1444" x1="1490" class="s4 sw1" x2="1502" y1="1444"/>
<line y2="1447" x1="1496" class="s4 sw1" x2="1496" y1="1441"/>
<polygon class=" s5 sw2 f13" points="1453,1415 1507,1415 1480,1451"/>
<rect x="1453" width="54" y="1397" height="18" class="s13 sw2 f8"/>
<text x="1473" y="1436" class="f4">23</text>
<circle stroke-width="0" r="3" class="s4 f4" cx="1489" cy="1400"/>
<circle stroke-width="0" r="3" class="s4 f4" cx="1489" cy="1412"/>
<circle stroke-width="0" r="3" class="s4 f4" cx="1480" cy="1406"/>
<circle stroke-width="0" r="3" class="s4 f4" cx="1498" cy="1406"/>
<line y2="1406" x1="1483" class="s4 sw1" x2="1495" y1="1406"/>
<line y2="1409" x1="1489" class="s4 sw1" x2="1489" y1="1403"/>
<rect x="2139" width="36" y="980" height="36" class="s5 sw2 f13"/>
<rect x="2130" width="54" y="962" height="18" class="s13 sw2 f8"/>
<text x="2150" y="1001" class="f4">21</text>
<circle r="6" class="s4 sw1 f8" cx="2154" cy="974"/>
<circle r="6" class="s4 sw1 f8" cx="2172" cy="974"/>
<line y2="974" x1="2160" class="s4 sw1" x2="2166" y1="974"/>
<line y2="962" x1="2148" class="s4 sw1" x2="2160" y1="974"/>
<line y2="962" x1="2178" class="s4 sw1" x2="2184" y1="974"/>
<polygon class=" s5 sw2 f14" points="648,380 666,380 675,389 675,407 666,416 648,416 639,407 639,389"/>
<rect x="630" width="54" y="362" height="18" class="s14 sw2 f8"/>
<text x="650" y="401" class="f4">9</text>
<polygon stroke-width="0" class=" s4 f4" points="666,362 666,368 672,368 660,380 660,374 654,374"/>
<polygon class=" s5 sw2 f14" points="530,780 584,780 557,816"/>
<rect x="530" width="54" y="762" height="18" class="s14 sw2 f8"/>
<text x="550" y="801" class="f4">25</text>
<polygon stroke-width="0" class=" s4 f4" points="566,762 566,768 572,768 560,780 560,774 554,774"/>
<polygon class=" s5 sw2 f13" points="1548,380 1566,380 1575,389 1575,407 1566,416 1548,416 1539,407 1539,389"/>
<rect x="1530" width="54" y="362" height="18" class="s13 sw2 f8"/>
<text x="1550" y="401" class="f4">9</text>
<circle r="6" class="s4 sw1 f8" cx="1554" cy="374"/>
<circle r="6" class="s4 sw1 f8" cx="1572" cy="374"/>
<line y2="374" x1="1560" class="s4 sw1" x2="1566" y1="374"/>
<line y2="362" x1="1548" class="s4 sw1" x2="1560" y1="374"/>
<line y2="362" x1="1578" class="s4 sw1" x2="1584" y1="374"/>
<circle r="18" class="s5 sw2 f13" cx="2057" cy="1098"/>
<rect x="2030" width="54" y="1062" height="18" class="s13 sw2 f8"/>
<text x="2050" y="1101" class="f4">5</text>
<polygon stroke-width="0" class=" s4 f4" points="2057,1062 2075,1062 2066,1080"/>
<polygon class=" s5 sw2 f13" points="230,1180 284,1180 257,1216"/>
<rect x="230" width="54" y="1162" height="18" class="s13 sw2 f8"/>
<text x="250" y="1201" class="f4">27</text>
<circle r="6" class="s4 sw1 f8" cx="254" cy="1174"/>
<circle r="6" class="s4 sw1 f8" cx="272" cy="1174"/>
<line y2="1174" x1="260" class="s4 sw1" x2="266" y1="1174"/>
<line y2="1162" x1="248" class="s4 sw1" x2="260" y1="1174"/>
<line y2="1162" x1="278" class="s4 sw1" x2="284" y1="1174"/>
<polygon class=" s5 sw2 f14" points="230,1580 284,1580 257,1616"/>
<rect x="230" width="54" y="1562" height="18" class="s14 sw2 f8"/>
<text x="250" y="1601" class="f4">24</text>
<polygon stroke-width="0" class=" s4 f4" points="266,1562 266,1568 272,1568 260,1580 260,1574 254,1574"/>
<circle r="18" class="s5 sw2 f14" cx="457" cy="1098"/>
<rect x="430" width="54" y="1062" height="18" class="s14 sw2 f8"/>
<text x="450" y="1101" class="f4">3</text>
<polygon stroke-width="0" class=" s4 f4" points="466,1062 466,1068 472,1068 460,1080 460,1074 454,1074"/>
<polygon class=" s5 sw2 f13" points="1930,1580 1984,1580 1957,1616"/>
<rect x="1930" width="54" y="1562" height="18" class="s13 sw2 f8"/>
<text x="1950" y="1601" class="f4">24</text>
<circle r="6" class="s4 sw1 f8" cx="1954" cy="1574"/>
<circle r="6" class="s4 sw1 f8" cx="1972" cy="1574"/>
<line y2="1574" x1="1960" class="s4 sw1" x2="1966" y1="1574"/>
<line y2="1562" x1="1948" class="s4 sw1" x2="1960" y1="1574"/>
<line y2="1562" x1="1978" class="s4 sw1" x2="1984" y1="1574"/>
<circle r="18" class="s5 sw2 f14" cx="157" cy="1098"/>
<rect x="130" width="54" y="1062" height="18" class="s14 sw2 f8"/>
<text x="150" y="1101" class="f4">5</text>
<polygon stroke-width="0" class=" s4 f4" points="166,1062 166,1068 172,1068 160,1080 160,1074 154,1074"/>
<polygon class=" s5 sw2 f14" points="848,680 866,680 875,689 875,707 866,716 848,716 839,707 839,689"/>
<rect x="830" width="54" y="662" height="18" class="s14 sw2 f8"/>
<text x="850" y="701" class="f4">11</text>
<circle stroke-width="0" r="3" class="s4 f4" cx="866" cy="665"/>
<circle stroke-width="0" r="3" class="s4 f4" cx="866" cy="677"/>
<circle stroke-width="0" r="3" class="s4 f4" cx="857" cy="671"/>
<circle stroke-width="0" r="3" class="s4 f4" cx="875" cy="671"/>
<line y2="671" x1="860" class="s4 sw1" x2="872" y1="671"/>
<line y2="674" x1="866" class="s4 sw1" x2="866" y1="668"/>
<circle r="18" class="s5 sw2 f14" cx="1257" cy="398"/>
<rect x="1230" width="54" y="362" height="18" class="s14 sw2 f8"/>
<text x="1250" y="401" class="f4">6</text>
<polygon stroke-width="0" class=" s4 f4" points="1266,362 1266,368 1272,368 1260,380 1260,374 1254,374"/>
<rect x="1269" width="36" y="353" height="36" class="s5 sw2 f13"/>
<rect x="1260" width="54" y="335" height="18" class="s13 sw2 f8"/>
<text x="1280" y="374" class="f4">17</text>
<circle r="6" class="s4 sw1 f8" cx="1284" cy="347"/>
<circle r="6" class="s4 sw1 f8" cx="1302" cy="347"/>
<line y2="347" x1="1290" class="s4 sw1" x2="1296" y1="347"/>
<line y2="335" x1="1278" class="s4 sw1" x2="1290" y1="347"/>
<line y2="335" x1="1308" class="s4 sw1" x2="1314" y1="347"/>
<polygon class=" s5 sw2 f13" points="548,1780 566,1780 575,1789 575,1807 566,1816 548,1816 539,1807 539,1789"/>
<rect x="530" width="54" y="1762" height="18" class="s13 sw2 f8"/>
<text x="550" y="1801" class="f4">12</text>
<circle r="6" class="s4 sw1 f8" cx="554" cy="1774"/>
<circle r="6" class="s4 sw1 f8" cx="572" cy="1774"/>
<line y2="1774" x1="560" class="s4 sw1" x2="566" y1="1774"/>
<line y2="1762" x1="548" class="s4 sw1" x2="560" y1="1774"/>
<line y2="1762" x1="578" class="s4 sw1" x2="584" y1="1774"/>
<polygon class=" s5 sw2 f14" points="1930,1180 1984,1180 1957,1216"/>
<rect x="1930" width="54" y="1162" height="18" class="s14 sw2 f8"/>
<text x="1950" y="1201" class="f4">27</text>
<polygon stroke-width="0" class=" s4 f4" points="1966,1162 1966,1168 1972,1168 1960,1180 1960,1174 1954,1174"/>
<circle r="18" class="s5 sw2 f14" cx="1557" cy="498"/>
<rect x="1530" width="54" y="462" height="18" class="s14 sw2 f8"/>
<text x="1550" y="501" class="f4">2</text>
<polygon stroke-width="0" class=" s4 f4" points="1566,462 1566,468 1572,468 1560,480 1560,474 1554,474"/>
<polygon class=" s5 sw2 f13" points="1748,980 1766,980 1775,989 1775,1007 1766,1016 1748,1016 1739,1007 1739,989"/>
<rect x="1730" width="54" y="962" height="18" class="s13 sw2 f8"/>
<text x="1750" y="1001" class="f4">8</text>
<circle r="6" class="s4 sw1 f8" cx="1754" cy="974"/>
<circle r="6" class="s4 sw1 f8" cx="1772" cy="974"/>
<line y2="974" x1="1760" class="s4 sw1" x2="1766" y1="974"/>
<line y2="962" x1="1748" class="s4 sw1" x2="1760" y1="974"/>
<line y2="962" x1="1778" class="s4 sw1" x2="1784" y1="974"/>
<polygon class=" s5 sw2 f13" points="1787,953 1805,971 1787,989 1769,971"/>
<rect x="1760" width="54" y="935" height="18" class="s13 sw2 f8"/>
<text x="1780" y="974" class="f4">16</text>
<circle r="6" class="s4 sw1 f8" cx="1784" cy="947"/>
<circle r="6" class="s4 sw1 f8" cx="1802" cy="947"/>
<line y2="947" x1="1790" class="s4 sw1" x2="1796" y1="947"/>
<line y2="935" x1="1778" class="s4 sw1" x2="1790" y1="947"/>
<line y2="935" x1="1808" class="s4 sw1" x2="1814" y1="947"/>
<circle r="18" class="s5 sw2 f13" cx="657" cy="498"/>
<rect x="630" width="54" y="462" height="18" class="s13 sw2 f8"/>
<text x="650" y="501" class="f4">2</text>
<polygon stroke-width="0" class=" s4 f4" points="657,462 675,462 666,480"/>
<circle r="18" class="s5 sw2 f13" cx="57" cy="1898"/>
<rect x="30" width="54" y="1862" height="18" class="s13 sw2 f8"/>
<text x="50" y="1901" class="f4">4</text>
<polygon stroke-width="0" class=" s4 f4" points="57,1862 75,1862 66,1880"/>
<polygon class=" s5 sw2 f13" points="1248,780 1266,780 1275,789 1275,807 1266,816 1248,816 1239,807 1239,789"/>
<rect x="1230" width="54" y="762" height="18" class="s13 sw2 f8"/>
<text x="1250" y="801" class="f4">11</text>
<circle r="6" class="s4 sw1 f8" cx="1254" cy="774"/>
<circle r="6" class="s4 sw1 f8" cx="1272" cy="774"/>
<line y2="774" x1="1260" class="s4 sw1" x2="1266" y1="774"/>
<line y2="762" x1="1248" class="s4 sw1" x2="1260" y1="774"/>
<line y2="762" x1="1278" class="s4 sw1" x2="1284" y1="774"/>
<polygon class=" s5 sw2 f14" points="448,2080 466,2080 475,2089 475,2107 466,2116 448,2116 439,2107 439,2089"/>
<rect x="430" width="54" y="2062" height="18" class="s14 sw2 f8"/>
<text x="450" y="2101" class="f4">10</text>
<polygon stroke-width="0" class=" s4 f4" points="466,2062 466,2068 472,2068 460,2080 460,2074 454,2074"/>
<rect x="1639" width="36" y="1380" height="36" class="s5 sw2 f14"/>
<rect x="1630" width="54" y="1362" height="18" class="s14 sw2 f8"/>
<text x="1650" y="1401" class="f4">20</text>
<polygon stroke-width="0" class=" s4 f4" points="1666,1362 1666,1368 1672,1368 1660,1380 1660,1374 1654,1374"/>
<rect x="1739" width="36" y="2180" height="36" class="s5 sw2 f14"/>
<rect x="1730" width="54" y="2162" height="18" class="s14 sw2 f8"/>
<text x="1750" y="2201" class="f4">18</text>
<polygon stroke-width="0" class=" s4 f4" points="1766,2162 1766,2168 1772,2168 1760,2180 1760,2174 1754,2174"/>
<rect x="1139" width="36" y="1780" height="36" class="s5 sw2 f13"/>
<rect x="1130" width="54" y="1762" height="18" class="s13 sw2 f8"/>
<text x="1150" y="1801" class="f4">22</text>
<circle r="6" class="s4 sw1 f8" cx="1154" cy="1774"/>
<circle r="6" class="s4 sw1 f8" cx="1172" cy="1774"/>
<line y2="1774" x1="1160" class="s4 sw1" x2="1166" y1="1774"/>
<line y2="1762" x1="1148" class="s4 sw1" x2="1160" y1="1774"/>
<line y2="1762" x1="1178" class="s4 sw1" x2="1184" y1="1774"/>
<polygon class=" s5 sw2 f14" points="457,480 475,498 457,516 439,498"/>
<rect x="430" width="54" y="462" height="18" class="s14 sw2 f8"/>
<text x="450" y="501" class="f4">13</text>
<polygon stroke-width="0" class=" s4 f4" points="466,462 466,468 472,468 460,480 460,474 454,474"/>
<circle r="18" class="s5 sw2 f14" cx="2157" cy="1898"/>
<rect x="2130" width="54" y="1862" height="18" class="s14 sw2 f8"/>
<text x="2150" y="1901" class="f4">4</text>
<polygon stroke-width="0" class=" s4 f4" points="2166,1862 2166,1868 2172,1868 2160,1880 2160,1874 2154,1874"/>
<polygon class=" s5 sw2 f14" points="848,2080 866,2080 875,2089 875,2107 866,2116 848,2116 839,2107 839,2089"/>
<rect x="830" width="54" y="2062" height="18" class="s14 sw2 f8"/>
<text x="850" y="2101" class="f4">7</text>
<polygon stroke-width="0" class=" s4 f4" points="866,2062 866,2068 872,2068 860,2080 860,2074 854,2074"/>
<polygon class=" s5 sw2 f13" points="1657,880 1675,898 1657,916 1639,898"/>
<rect x="1630" width="54" y="862" height="18" class="s13 sw2 f8"/>
<text x="1650" y="901" class="f4">15</text>
<circle r="6" class="s4 sw1 f8" cx="1654" cy="874"/>
<circle r="6" class="s4 sw1 f8" cx="1672" cy="874"/>
<line y2="874" x1="1660" class="s4 sw1" x2="1666" y1="874"/>
<line y2="862" x1="1648" class="s4 sw1" x2="1660" y1="874"/>
<line y2="862" x1="1678" class="s4 sw1" x2="1684" y1="874"/>
<polygon class=" s5 sw2 f14" points="2030,2080 2084,2080 2057,2116"/>
<rect x="2030" width="54" y="2062" height="18" class="s14 sw2 f8"/>
<text x="2050" y="2101" class="f4">28</text>
<polygon stroke-width="0" class=" s4 f4" points="2066,2062 2066,2068 2072,2068 2060,2080 2060,2074 2054,2074"/>
<polygon class=" s5 sw2 f13" points="1757,480 1775,498 1757,516 1739,498"/>
<rect x="1730" width="54" y="462" height="18" class="s13 sw2 f8"/>
<text x="1750" y="501" class="f4">13</text>
<circle r="6" class="s4 sw1 f8" cx="1754" cy="474"/>
<circle r="6" class="s4 sw1 f8" cx="1772" cy="474"/>
<line y2="474" x1="1760" class="s4 sw1" x2="1766" y1="474"/>
<line y2="462" x1="1748" class="s4 sw1" x2="1760" y1="474"/>
<line y2="462" x1="1778" class="s4 sw1" x2="1784" y1="474"/>
<polygon class=" s5 sw2 f14" points="630,1580 684,1580 657,1616"/>
<rect x="630" width="54" y="1562" height="18" class="s14 sw2 f8"/>
<text x="650" y="1601" class="f4">23</text>
<polygon stroke-width="0" class=" s4 f4" points="666,1562 666,1568 672,1568 660,1580 660,1574 654,1574"/>
<circle r="18" class="s5 sw2 f14" cx="157" cy="1298"/>
<rect x="130" width="54" y="1262" height="18" class="s14 sw2 f8"/>
<text x="150" y="1301" class="f4">1</text>
<polygon stroke-width="0" class=" s4 f4" points="166,1262 166,1268 172,1268 160,1280 160,1274 154,1274"/>
<rect x="839" width="36" y="880" height="36" class="s5 sw2 f14"/>
<rect x="830" width="54" y="862" height="18" class="s14 sw2 f8"/>
<text x="850" y="901" class="f4">19</text>
<polygon stroke-width="0" class=" s4 f4" points="866,862 866,868 872,868 860,880 860,874 854,874"/>
<rect x="439" width="36" y="2180" height="36" class="s5 sw2 f13"/>
<rect x="430" width="54" y="2162" height="18" class="s13 sw2 f8"/>
<text x="450" y="2201" class="f4">18</text>
<circle r="6" class="s4 sw1 f8" cx="454" cy="2174"/>
<circle r="6" class="s4 sw1 f8" cx="472" cy="2174"/>
<line y2="2174" x1="460" class="s4 sw1" x2="466" y1="2174"/>
<line y2="2162" x1="448" class="s4 sw1" x2="460" y1="2174"/>
<line y2="2162" x1="478" class="s4 sw1" x2="484" y1="2174"/>
<polygon class=" s5 sw2 f14" points="448,980 466,980 475,989 475,1007 466,1016 448,1016 439,1007 439,989"/>
<rect x="430" width="54" y="962" height="18" class="s14 sw2 f7"/>
<text x="450" y="1001" class="f4">8</text>
<polygon stroke-width="0" class=" s4 f4" points="466,962 466,968 472,968 460,980 460,974 454,974"/>
<polygon class=" s5 sw2 f14" points="487,953 505,971 487,989 469,971"/>
<rect x="460" width="54" y="935" height="18" class="s14 sw2 f8"/>
<text x="480" y="974" class="f4">16</text>
<polygon stroke-width="0" class=" s4 f4" points="478,935 484,935 502,944 508,935 508,947 514,947 508,953 505,950 502,953 490,953 502,947 478,941"/>
<rect x="39" width="36" y="880" height="36" class="s5 sw2 f14"/>
<rect x="30" width="54" y="862" height="18" class="s14 sw2 f8"/>
<text x="50" y="901" class="f4">21</text>
<circle stroke-width="0" r="3" class="s4 f4" cx="66" cy="865"/>
<circle stroke-width="0" r="3" class="s4 f4" cx="66" cy="877"/>
<circle stroke-width="0" r="3" class="s4 f4" cx="57" cy="871"/>
<circle stroke-width="0" r="3" class="s4 f4" cx="75" cy="871"/>
<line y2="871" x1="60" class="s4 sw1" x2="72" y1="871"/>
<line y2="874" x1="66" class="s4 sw1" x2="66" y1="868"/>
<polygon class=" s5 sw2 f13" points="1348,2080 1366,2080 1375,2089 1375,2107 1366,2116 1348,2116 1339,2107 1339,2089"/>
<rect x="1330" width="54" y="2062" height="18" class="s13 sw2 f8"/>
<text x="1350" y="2101" class="f4">7</text>
<circle r="6" class="s4 sw1 f8" cx="1354" cy="2074"/>
<circle r="6" class="s4 sw1 f8" cx="1372" cy="2074"/>
<line y2="2074" x1="1360" class="s4 sw1" x2="1366" y1="2074"/>
<line y2="2062" x1="1348" class="s4 sw1" x2="1360" y1="2074"/>
<line y2="2062" x1="1378" class="s4 sw1" x2="1384" y1="2074"/>
<rect x="539" width="36" y="1380" height="36" class="s5 sw2 f13"/>
<rect x="530" width="54" y="1362" height="18" class="s13 sw2 f8"/>
<text x="550" y="1401" class="f4">20</text>
<circle r="6" class="s4 sw1 f8" cx="554" cy="1374"/>
<circle r="6" class="s4 sw1 f8" cx="572" cy="1374"/>
<line y2="1374" x1="560" class="s4 sw1" x2="566" y1="1374"/>
<line y2="1362" x1="548" class="s4 sw1" x2="560" y1="1374"/>
<line y2="1362" x1="578" class="s4 sw1" x2="584" y1="1374"/>
<g id="teamTable" transform="translate(-100, 150)">
<text x="2350" y="75" class="TxtNrml">Step: 1</text>
<text x="2350" y="180" class="Tb" text-anchor="start">
<tspan fill="rgba(0,158,115,1.0)" x="2350">A</tspan>
<tspan x="2750">20</tspan>
<tspan x="2950">20</tspan>
<tspan x="3150">20</tspan>
<tspan x="3350">0</tspan>
</text>
<text x="2350" y="220" class="Tb" text-anchor="start">
<tspan fill="rgba(0,114,178,1.0)" x="2350">B</tspan>
<tspan x="2750">35</tspan>
<tspan x="2950">35</tspan>
<tspan x="3150">25</tspan>
<tspan x="3350">10</tspan>
</text>
</g>
<g id="agentTable" transform="translate(-100, 150)">
<text x="2350" y="316" class="Tb2" text-anchor="start">
<tspan x="2535">35/35</tspan>
<tspan x="2650">4/4</tspan>
<tspan x="2765">0</tspan>
<tspan x="2880">2</tspan>
<tspan x="2995">recharge :successful</tspan>
</text>
<text x="2350" y="346" class="Tb2" text-anchor="start">
<tspan x="2535">35/35</tspan>
<tspan x="2650">4/4</tspan>
<tspan x="2765">0</tspan>
<tspan x="2880">2</tspan>
<tspan x="2995">recharge :successful</tspan>
</text>
<text x="2350" y="376" class="Tb2" text-anchor="start">
<tspan x="2535">35/35</tspan>
<tspan x="2650">4/4</tspan>
<tspan x="2765">0</tspan>
<tspan x="2880">2</tspan>
<tspan x="2995">recharge :successful</tspan>
</text>
<text x="2350" y="406" class="Tb2" text-anchor="start">
<tspan x="2535">35/35</tspan>
<tspan x="2650">4/4</tspan>
<tspan x="2765">0</tspan>
<tspan x="2880">2</tspan>
<tspan x="2995">recharge :successful</tspan>
</text>
<text x="2350" y="436" class="Tb2" text-anchor="start">
<tspan x="2535">35/35</tspan>
<tspan x="2650">4/4</tspan>
<tspan x="2765">0</tspan>
<tspan x="2880">2</tspan>
<tspan x="2995">recharge :successful</tspan>
</text>
<text x="2350" y="466" class="Tb2" text-anchor="start">
<tspan x="2535">35/35</tspan>
<tspan x="2650">4/4</tspan>
<tspan x="2765">0</tspan>
<tspan x="2880">2</tspan>
<tspan x="2995">recharge :successful</tspan>
</text>
<text x="2350" y="496" class="Tb2" text-anchor="start">
<tspan x="2535">25/25</tspan>
<tspan x="2650">6/6</tspan>
<tspan x="2765">0</tspan>
<tspan x="2880">1</tspan>
<tspan x="2995">recharge :successful</tspan>
</text>
<text x="2350" y="526" class="Tb2" text-anchor="start">
<tspan x="2535">25/25</tspan>
<tspan x="2650">3/6</tspan>
<tspan x="2765">0</tspan>
<tspan x="2880">1</tspan>
<tspan fill="red" x="2995">recharge :failed_attacked</tspan>
</text>
<text x="2350" y="556" class="Tb2" text-anchor="start">
<tspan x="2535">25/25</tspan>
<tspan x="2650">6/6</tspan>
<tspan x="2765">0</tspan>
<tspan x="2880">1</tspan>
<tspan x="2995">recharge :successful</tspan>
</text>
<text x="2350" y="586" class="Tb2" text-anchor="start">
<tspan x="2535">25/25</tspan>
<tspan x="2650">6/6</tspan>
<tspan x="2765">0</tspan>
<tspan x="2880">1</tspan>
<tspan x="2995">recharge :successful</tspan>
</text>
<text x="2350" y="616" class="Tb2" text-anchor="start">
<tspan x="2535">21/25</tspan>
<tspan x="2650">6/6</tspan>
<tspan x="2765">0</tspan>
<tspan x="2880">1</tspan>
<tspan x="2995">goto v174:successful</tspan>
</text>
<text x="2350" y="646" class="Tb2" text-anchor="start">
<tspan x="2535">25/25</tspan>
<tspan x="2650">6/6</tspan>
<tspan x="2765">0</tspan>
<tspan x="2880">1</tspan>
<tspan x="2995">recharge :successful</tspan>
</text>
<text x="2350" y="676" class="Tb2" text-anchor="start">
<tspan x="2535">20/20</tspan>
<tspan x="2650">3/3</tspan>
<tspan x="2765">3</tspan>
<tspan x="2880">1</tspan>
<tspan x="2995">recharge :successful</tspan>
</text>
<text x="2350" y="706" class="Tb2" text-anchor="start">
<tspan x="2535">20/20</tspan>
<tspan x="2650">3/3</tspan>
<tspan x="2765">3</tspan>
<tspan x="2880">1</tspan>
<tspan x="2995">recharge :successful</tspan>
</text>
<text x="2350" y="736" class="Tb2" text-anchor="start">
<tspan x="2535">20/20</tspan>
<tspan x="2650">3/3</tspan>
<tspan x="2765">3</tspan>
<tspan x="2880">1</tspan>
<tspan x="2995">recharge :successful</tspan>
</text>
<text x="2350" y="766" class="Tb2" text-anchor="start">
<tspan x="2535">18/20</tspan>
<tspan x="2650">3/3</tspan>
<tspan x="2765">3</tspan>
<tspan x="2880">1</tspan>
<tspan x="2995">attack LTI-USP8:successful</tspan>
</text>
<text x="2350" y="796" class="Tb2" text-anchor="start">
<tspan x="2535">30/30</tspan>
<tspan x="2650">1/1</tspan>
<tspan x="2765">0</tspan>
<tspan x="2880">3</tspan>
<tspan x="2995">recharge :successful</tspan>
</text>
<text x="2350" y="826" class="Tb2" text-anchor="start">
<tspan x="2535">30/30</tspan>
<tspan x="2650">1/1</tspan>
<tspan x="2765">0</tspan>
<tspan x="2880">3</tspan>
<tspan x="2995">recharge :successful</tspan>
</text>
<text x="2350" y="856" class="Tb2" text-anchor="start">
<tspan x="2535">30/30</tspan>
<tspan x="2650">1/1</tspan>
<tspan x="2765">0</tspan>
<tspan x="2880">3</tspan>
<tspan x="2995">recharge :successful</tspan>
</text>
<text x="2350" y="886" class="Tb2" text-anchor="start">
<tspan x="2535">30/30</tspan>
<tspan x="2650">1/1</tspan>
<tspan x="2765">0</tspan>
<tspan x="2880">3</tspan>
<tspan x="2995">recharge :successful</tspan>
</text>
<text x="2350" y="916" class="Tb2" text-anchor="start">
<tspan x="2535">29/30</tspan>
<tspan x="2650">1/1</tspan>
<tspan x="2765">0</tspan>
<tspan x="2880">3</tspan>
<tspan x="2995">goto v370:successful</tspan>
</text>
<text x="2350" y="946" class="Tb2" text-anchor="start">
<tspan x="2535">30/30</tspan>
<tspan x="2650">1/1</tspan>
<tspan x="2765">0</tspan>
<tspan x="2880">3</tspan>
<tspan x="2995">recharge :successful</tspan>
</text>
<text x="2350" y="976" class="Tb2" text-anchor="start">
<tspan x="2535">25/25</tspan>
<tspan x="2650">6/6</tspan>
<tspan x="2765">0</tspan>
<tspan x="2880">1</tspan>
<tspan x="2995">recharge :successful</tspan>
</text>
<text x="2350" y="1006" class="Tb2" text-anchor="start">
<tspan x="2535">25/25</tspan>
<tspan x="2650">6/6</tspan>
<tspan x="2765">0</tspan>
<tspan x="2880">1</tspan>
<tspan x="2995">recharge :successful</tspan>
</text>
<text x="2350" y="1036" class="Tb2" text-anchor="start">
<tspan x="2535">25/25</tspan>
<tspan x="2650">6/6</tspan>
<tspan x="2765">0</tspan>
<tspan x="2880">1</tspan>
<tspan x="2995">recharge :successful</tspan>
</text>
<text x="2350" y="1066" class="Tb2" text-anchor="start">
<tspan x="2535">25/25</tspan>
<tspan x="2650">6/6</tspan>
<tspan x="2765">0</tspan>
<tspan x="2880">1</tspan>
<tspan x="2995">recharge :successful</tspan>
</text>
<text x="2350" y="1096" class="Tb2" text-anchor="start">
<tspan x="2535">25/25</tspan>
<tspan x="2650">6/6</tspan>
<tspan x="2765">0</tspan>
<tspan x="2880">1</tspan>
<tspan x="2995">recharge :successful</tspan>
</text>
<text x="2350" y="1126" class="Tb2" text-anchor="start">
<tspan x="2535">25/25</tspan>
<tspan x="2650">6/6</tspan>
<tspan x="2765">0</tspan>
<tspan x="2880">1</tspan>
<tspan x="2995">recharge :successful</tspan>
</text>
<text x="2350" y="1156" class="Tb2" text-anchor="start">
<tspan x="2535">35/35</tspan>
<tspan x="2650">4/4</tspan>
<tspan x="2765">0</tspan>
<tspan x="2880">2</tspan>
<tspan x="2995">probe :successful</tspan>
</text>
<text x="2350" y="1186" class="Tb2" text-anchor="start">
<tspan x="2535">35/35</tspan>
<tspan x="2650">4/4</tspan>
<tspan x="2765">0</tspan>
<tspan x="2880">2</tspan>
<tspan x="2995">probe :successful</tspan>
</text>
<text x="2350" y="1216" class="Tb2" text-anchor="start">
<tspan x="2535">35/35</tspan>
<tspan x="2650">4/4</tspan>
<tspan x="2765">0</tspan>
<tspan x="2880">2</tspan>
<tspan x="2995">probe :successful</tspan>
</text>
<text x="2350" y="1246" class="Tb2" text-anchor="start">
<tspan x="2535">35/35</tspan>
<tspan x="2650">4/4</tspan>
<tspan x="2765">0</tspan>
<tspan x="2880">2</tspan>
<tspan x="2995">probe :successful</tspan>
</text>
<text x="2350" y="1276" class="Tb2" text-anchor="start">
<tspan x="2535">35/35</tspan>
<tspan x="2650">4/4</tspan>
<tspan x="2765">0</tspan>
<tspan x="2880">2</tspan>
<tspan x="2995">probe :successful</tspan>
</text>
<text x="2350" y="1306" class="Tb2" text-anchor="start">
<tspan x="2535">35/35</tspan>
<tspan x="2650">4/4</tspan>
<tspan x="2765">0</tspan>
<tspan x="2880">2</tspan>
<tspan x="2995">probe :successful</tspan>
</text>
<text x="2350" y="1336" class="Tb2" text-anchor="start">
<tspan x="2535">24/25</tspan>
<tspan x="2650">6/6</tspan>
<tspan x="2765">0</tspan>
<tspan x="2880">1</tspan>
<tspan x="2995">survey :successful</tspan>
</text>
<text x="2350" y="1366" class="Tb2" text-anchor="start">
<tspan x="2535">24/25</tspan>
<tspan x="2650">6/6</tspan>
<tspan x="2765">0</tspan>
<tspan x="2880">1</tspan>
<tspan x="2995">survey :successful</tspan>
</text>
<text x="2350" y="1396" class="Tb2" text-anchor="start">
<tspan x="2535">24/25</tspan>
<tspan x="2650">6/6</tspan>
<tspan x="2765">0</tspan>
<tspan x="2880">1</tspan>
<tspan x="2995">survey :successful</tspan>
</text>
<text x="2350" y="1426" class="Tb2" text-anchor="start">
<tspan x="2535">24/25</tspan>
<tspan x="2650">6/6</tspan>
<tspan x="2765">0</tspan>
<tspan x="2880">1</tspan>
<tspan x="2995">survey :successful</tspan>
</text>
<text x="2350" y="1456" class="Tb2" text-anchor="start">
<tspan x="2535">24/25</tspan>
<tspan x="2650">6/6</tspan>
<tspan x="2765">0</tspan>
<tspan x="2880">1</tspan>
<tspan x="2995">survey :successful</tspan>
</text>
<text x="2350" y="1486" class="Tb2" text-anchor="start">
<tspan x="2535">24/25</tspan>
<tspan x="2650">6/6</tspan>
<tspan x="2765">0</tspan>
<tspan x="2880">1</tspan>
<tspan x="2995">survey :successful</tspan>
</text>
<text x="2350" y="1516" class="Tb2" text-anchor="start">
<tspan x="2535">19/20</tspan>
<tspan x="2650">3/3</tspan>
<tspan x="2765">3</tspan>
<tspan x="2880">1</tspan>
<tspan x="2995">survey :successful</tspan>
</text>
<text x="2350" y="1546" class="Tb2" text-anchor="start">
<tspan x="2535">19/20</tspan>
<tspan x="2650">3/3</tspan>
<tspan x="2765">3</tspan>
<tspan x="2880">1</tspan>
<tspan x="2995">goto v89:successful</tspan>
</text>
<text x="2350" y="1576" class="Tb2" text-anchor="start">
<tspan x="2535">19/20</tspan>
<tspan x="2650">3/3</tspan>
<tspan x="2765">3</tspan>
<tspan x="2880">1</tspan>
<tspan x="2995">survey :successful</tspan>
</text>
<text x="2350" y="1606" class="Tb2" text-anchor="start">
<tspan x="2535">19/20</tspan>
<tspan x="2650">3/3</tspan>
<tspan x="2765">3</tspan>
<tspan x="2880">1</tspan>
<tspan x="2995">survey :successful</tspan>
</text>
<text x="2350" y="1636" class="Tb2" text-anchor="start">
<tspan x="2535">29/30</tspan>
<tspan x="2650">1/1</tspan>
<tspan x="2765">0</tspan>
<tspan x="2880">3</tspan>
<tspan x="2995">survey :successful</tspan>
</text>
<text x="2350" y="1666" class="Tb2" text-anchor="start">
<tspan x="2535">29/30</tspan>
<tspan x="2650">1/1</tspan>
<tspan x="2765">0</tspan>
<tspan x="2880">3</tspan>
<tspan x="2995">survey :successful</tspan>
</text>
<text x="2350" y="1696" class="Tb2" text-anchor="start">
<tspan x="2535">29/30</tspan>
<tspan x="2650">1/1</tspan>
<tspan x="2765">0</tspan>
<tspan x="2880">3</tspan>
<tspan x="2995">survey :successful</tspan>
</text>
<text x="2350" y="1726" class="Tb2" text-anchor="start">
<tspan x="2535">29/30</tspan>
<tspan x="2650">1/1</tspan>
<tspan x="2765">0</tspan>
<tspan x="2880">3</tspan>
<tspan x="2995">survey :successful</tspan>
</text>
<text x="2350" y="1756" class="Tb2" text-anchor="start">
<tspan x="2535">29/30</tspan>
<tspan x="2650">1/1</tspan>
<tspan x="2765">0</tspan>
<tspan x="2880">3</tspan>
<tspan x="2995">survey :successful</tspan>
</text>
<text x="2350" y="1786" class="Tb2" text-anchor="start">
<tspan x="2535">29/30</tspan>
<tspan x="2650">1/1</tspan>
<tspan x="2765">0</tspan>
<tspan x="2880">3</tspan>
<tspan x="2995">survey :successful</tspan>
</text>
<text x="2350" y="1816" class="Tb2" text-anchor="start">
<tspan x="2535">19/25</tspan>
<tspan x="2650">6/6</tspan>
<tspan x="2765">0</tspan>
<tspan x="2880">1</tspan>
<tspan x="2995">goto v89:successful</tspan>
</text>
<text x="2350" y="1846" class="Tb2" text-anchor="start">
<tspan x="2535">24/25</tspan>
<tspan x="2650">6/6</tspan>
<tspan x="2765">0</tspan>
<tspan x="2880">1</tspan>
<tspan x="2995">survey :successful</tspan>
</text>
<text x="2350" y="1876" class="Tb2" text-anchor="start">
<tspan x="2535">24/25</tspan>
<tspan x="2650">6/6</tspan>
<tspan x="2765">0</tspan>
<tspan x="2880">1</tspan>
<tspan x="2995">survey :successful</tspan>
</text>
<text x="2350" y="1906" class="Tb2" text-anchor="start">
<tspan x="2535">24/25</tspan>
<tspan x="2650">6/6</tspan>
<tspan x="2765">0</tspan>
<tspan x="2880">1</tspan>
<tspan x="2995">goto v37:successful</tspan>
</text>
<text x="2350" y="1936" class="Tb2" text-anchor="start">
<tspan x="2535">24/25</tspan>
<tspan x="2650">6/6</tspan>
<tspan x="2765">0</tspan>
<tspan x="2880">1</tspan>
<tspan x="2995">survey :successful</tspan>
</text>
<text x="2350" y="1966" class="Tb2" text-anchor="start">
<tspan x="2535">24/25</tspan>
<tspan x="2650">6/6</tspan>
<tspan x="2765">0</tspan>
<tspan x="2880">1</tspan>
<tspan x="2995">survey :successful</tspan>
</text>
</g>
<line y2="442" x1="3290" class="s5 sw1" x2="3290" y1="1996"/>
<g id="achievementPart" transform="translate(-100, 150)">
<text x="3400" y="301" class="TxtAch">
<tspan x="3400">Achievements</tspan>
<tspan fill="rgba(0,158,115,1.0)" x="3400" y="331">A</tspan>
<tspan fill="rgba(0,114,178,1.0)" x="3400" y="356">B</tspan>
<tspan x="3400" y="376">proved5</tspan>
<tspan x="3400" y="396">surveyed10</tspan>
<tspan x="3400" y="416">surveyed20</tspan>
<tspan x="3400" y="436">surveyed40</tspan>
<tspan x="3400" y="456">surveyed80</tspan>
</text>
</g>
</g>
</svg>
