<?xml version="1.0" encoding="UTF-8"?><?xml-stylesheet type="text/css" href="style.css"?><svg xmlns="http://www.w3.org/2000/svg" xmlns:xlink="http://www.w3.org/1999/xlink" contentScriptType="text/ecmascript" zoomAndPan="magnify" contentStyleType="text/css" preserveAspectRatio="xMidYMid meet" version="1.0">
<defs>
<marker refX="100" refY="10" markerUnits="strokeWidth" orient="auto" class="f3" markerHeight="6" id="ar1" viewBox="0 0 20 20" markerWidth="8">
<path d="M 0 0 L 20 10 L 0 20 z"/>
</marker>
</defs>
<g id="scaleSvg" transform="scale(0.25)">
<polygon class="T2" points="1550,950 1550,1150 1450,1050 "/>
<polygon class="T2" points="1650,1150 1650,950 1750,1050 "/>
<polygon class="T2" points="2050,650 1850,650 1950,550 "/>
<polygon class="T2" points="1450,1050 1550,1150 1450,1150 "/>
<polygon class="T2" points="1650,750 1550,650 1650,650 "/>
<polygon class="T2" points="1550,650 1450,550 1550,550 "/>
<polygon class="T2" points="1450,550 1550,650 1450,650 "/>
<polygon class="T2" points="1650,850 1750,950 1650,950 "/>
<polygon class="T2" points="1550,550 1650,650 1550,650 "/>
<polygon class="T2" points="1550,850 1650,750 1650,850 "/>
<polygon class="T2" points="1850,650 1650,750 1850,650 1950,550 2050,650 "/>
<polygon class="T2" points="1550,1150 1550,950 1550,1150 1450,1050 1550,950 "/>
<polygon class="T2" points="1650,950 1650,1150 1650,950 1750,1050 1650,1150 "/>
<polygon class="T2" points="1850,650 2050,650 1850,650 1950,550 2050,650 "/>
<polygon class="T2" points="1750,1050 1650,950 1750,1050 1650,1150 1650,950 "/>
<polygon class="T2" points="2050,650 1950,550 2050,650 1850,650 1950,550 "/>
<polygon class="T2" points="1950,550 1850,650 1950,550 2050,650 1850,650 "/>
<polygon class="T2" points="1850,850 1750,950 1650,950 1650,850 1750,950 "/>
<polygon class="T2" points="1850,1150 1750,1050 1650,1150 1650,950 1750,1050 "/>
<polygon class="T2" points="1550,650 1650,750 1550,650 1450,550 1550,550 "/>
<polygon class="T2" points="1750,950 1650,850 1750,950 1650,950 1650,850 "/>
<polygon class="T2" points="1650,650 1550,550 1650,650 1550,650 1550,550 "/>
<polygon class="T2" points="1650,1150 1750,1050 1650,1150 1650,950 1750,1050 "/>
<polygon class="T2" points="1650,750 1550,850 1650,750 1550,650 1650,650 "/>
<polygon class="T2" points="1550,950 1450,1050 1550,1150 1450,1150 1450,1050 "/>
<polygon class="T2" points="1550,950 1650,850 1750,950 1650,950 1650,850 "/>
<polygon class="T2" points="1450,1150 1550,1150 1450,1050 1550,950 1550,1150 "/>
<polygon class="T2" points="1550,1150 1650,1150 1650,950 1750,1050 1650,1150 "/>
<polygon class="T2" points="1650,950 1750,950 1650,950 1750,1050 1650,1150 "/>
<polygon class="T2" points="1650,850 1650,950 1650,1150 1550,1150 1550,950 "/>
<polygon class="T2" points="1450,1050 1450,1150 1450,1050 1550,1150 1450,1150 "/>
<polygon class="T2" points="1450,650 1550,650 1450,550 1550,550 1550,650 "/>
<polygon class="T2" points="1450,550 1450,650 1450,550 1550,650 1450,650 "/>
<polygon class="T2" points="1650,750 1650,650 1550,650 1550,550 1650,650 "/>
<polygon class="T2" points="1650,850 1650,750 1550,650 1650,650 1650,750 "/>
<polygon class="T2" points="1550,550 1450,550 1550,650 1450,650 1450,550 "/>
<polygon class="T2" points="1550,850 1650,850 1750,950 1650,950 1650,850 "/>
<polygon class="T2" points="1850,1150 1950,1050 1850,1150 1750,1050 1650,1150 1650,950 1750,1050 "/>
<circle r="25" class="T2n" cx="1950" cy="550"/>
<circle r="25" class="T2n" cx="1550" cy="950"/>
<circle r="25" class="T2n" cx="1350" cy="1650"/>
<circle r="25" class="T2n" cx="750" cy="1750"/>
<circle r="25" class="T2n" cx="1650" cy="750"/>
<circle r="25" class="T2n" cx="1450" cy="1050"/>
<circle r="25" class="T2n" cx="1650" cy="1150"/>
<circle r="25" class="T2n" cx="1750" cy="1050"/>
<circle r="25" class="T2n" cx="1850" cy="650"/>
<circle r="25" class="T2n" cx="1550" cy="850"/>
<circle r="25" class="T2n" cx="1550" cy="1150"/>
<circle r="25" class="T2n" cx="2050" cy="1050"/>
<circle r="25" class="T2n" cx="1450" cy="550"/>
<circle r="25" class="T2n" cx="1950" cy="1050"/>
<circle r="25" class="T2n" cx="1150" cy="850"/>
<circle r="25" class="T2n" cx="2050" cy="650"/>
<circle r="25" class="T2n" cx="1950" cy="1550"/>
<circle r="25" class="T2n" cx="1250" cy="1150"/>
<circle r="25" class="T2n" cx="1650" cy="650"/>
<circle r="25" class="T2n" cx="1150" cy="1050"/>
<circle r="25" class="T2n" cx="1750" cy="950"/>
<circle r="25" class="T2n" cx="1850" cy="850"/>
<circle r="25" class="T2n" cx="1650" cy="1550"/>
<circle r="25" class="T2n" cx="1450" cy="650"/>
<circle r="25" class="T2n" cx="1450" cy="1550"/>
<circle r="25" class="T2n" cx="1350" cy="1550"/>
<circle r="25" class="T2n" cx="1650" cy="850"/>
<circle r="25" class="T2n" cx="1650" cy="950"/>
<circle r="25" class="T2n" cx="1550" cy="650"/>
<circle r="25" class="T2n" cx="1150" cy="650"/>
<circle r="25" class="T2n" cx="1550" cy="550"/>
<circle r="25" class="T2n" cx="1450" cy="1150"/>
<circle r="25" class="T2n" cx="1850" cy="1150"/>
<circle r="25" class="T2n" cx="1550" cy="1650"/>
<circle r="25" class="T2n" cx="1050" cy="1250"/>
<line y2="750" x1="1850" class="T2e" x2="1650" y1="650"/>
<line y2="950" x1="1550" class="T2e" x2="1550" y1="1150"/>
<line y2="1150" x1="1650" class="T2e" x2="1650" y1="950"/>
<line y2="650" x1="2050" class="T2e" x2="1850" y1="650"/>
<line y2="650" x1="1150" class="T2e" x2="1150" y1="850"/>
<line y2="1050" x1="1150" class="T2e" x2="1150" y1="850"/>
<line y2="1050" x1="1550" class="T2e" x2="1450" y1="1150"/>
<line y2="1050" x1="1650" class="T2e" x2="1750" y1="950"/>
<line y2="1650" x1="1650" class="T2e" x2="1550" y1="1550"/>
<line y2="650" x1="1950" class="T2e" x2="2050" y1="550"/>
<line y2="650" x1="1950" class="T2e" x2="1850" y1="550"/>
<line y2="950" x1="1850" class="T2e" x2="1750" y1="850"/>
<line y2="1050" x1="1850" class="T2e" x2="1950" y1="1150"/>
<line y2="1050" x1="1850" class="T2e" x2="1750" y1="1150"/>
<line y2="750" x1="1550" class="T2e" x2="1650" y1="650"/>
<line y2="550" x1="1550" class="T2e" x2="1450" y1="650"/>
<line y2="850" x1="1750" class="T2e" x2="1650" y1="950"/>
<line y2="1050" x1="1250" class="T2e" x2="1150" y1="1150"/>
<line y2="550" x1="1650" class="T2e" x2="1550" y1="650"/>
<line y2="1050" x1="1650" class="T2e" x2="1750" y1="1150"/>
<line y2="850" x1="1650" class="T2e" x2="1550" y1="750"/>
<line y2="1050" x1="1550" class="T2e" x2="1450" y1="950"/>
<line y2="850" x1="1550" class="T2e" x2="1650" y1="950"/>
<line y2="1550" x1="1550" class="T2e" x2="1450" y1="1650"/>
<line y2="1150" x1="1550" class="T2e" x2="1450" y1="1150"/>
<line y2="1150" x1="1550" class="T2e" x2="1650" y1="1150"/>
<line y2="950" x1="1650" class="T2e" x2="1750" y1="950"/>
<line y2="850" x1="1650" class="T2e" x2="1650" y1="950"/>
<line y2="1050" x1="1450" class="T2e" x2="1450" y1="1150"/>
<line y2="650" x1="1450" class="T2e" x2="1550" y1="650"/>
<line y2="550" x1="1450" class="T2e" x2="1450" y1="650"/>
<line y2="650" x1="1550" class="T2e" x2="1650" y1="650"/>
<line y2="550" x1="1550" class="T2e" x2="1550" y1="650"/>
<line y2="1050" x1="2050" class="T2e" x2="1950" y1="1050"/>
<line y2="750" x1="1650" class="T2e" x2="1650" y1="650"/>
<line y2="850" x1="1650" class="T2e" x2="1650" y1="750"/>
<line y2="1550" x1="1350" class="T2e" x2="1450" y1="1550"/>
<line y2="1650" x1="1350" class="T2e" x2="1350" y1="1550"/>
<line y2="550" x1="1550" class="T2e" x2="1450" y1="550"/>
<line y2="850" x1="1650" class="T2e" x2="1550" y1="850"/>
<circle r="5" class="N" cx="1950" cy="550"/>
<circle r="5" class="N" cx="1550" cy="950"/>
<circle r="6" class="N" cx="1350" cy="1650"/>
<circle r="12" class="N" cx="750" cy="1750"/>
<circle r="5" class="N" cx="1650" cy="750"/>
<circle r="5" class="N" cx="1450" cy="1050"/>
<circle r="5" class="N" cx="1650" cy="1150"/>
<circle r="5" class="N" cx="1750" cy="1050"/>
<circle r="5" class="N" cx="1850" cy="650"/>
<circle r="5" class="N" cx="1550" cy="850"/>
<circle r="5" class="N" cx="1550" cy="1150"/>
<circle r="5" class="N" cx="2050" cy="1050"/>
<circle r="5" class="N" cx="1450" cy="550"/>
<circle r="5" class="N" cx="1950" cy="1050"/>
<circle r="5" class="N" cx="1150" cy="850"/>
<circle r="5" class="N" cx="2050" cy="650"/>
<circle r="18" class="N" cx="1950" cy="1550"/>
<circle r="6" class="N" cx="1250" cy="1150"/>
<circle r="5" class="N" cx="1650" cy="650"/>
<circle r="5" class="N" cx="1150" cy="1050"/>
<circle r="5" class="N" cx="1750" cy="950"/>
<circle r="5" class="N" cx="1850" cy="850"/>
<circle r="11" class="N" cx="1650" cy="1550"/>
<circle r="5" class="N" cx="1450" cy="650"/>
<circle r="14" class="N" cx="1450" cy="1550"/>
<circle r="9" class="N" cx="1350" cy="1550"/>
<circle r="5" class="N" cx="1650" cy="850"/>
<circle r="5" class="N" cx="1650" cy="950"/>
<circle r="5" class="N" cx="1550" cy="650"/>
<circle r="5" class="N" cx="1150" cy="650"/>
<circle r="5" class="N" cx="1550" cy="550"/>
<circle r="5" class="N" cx="1450" cy="1150"/>
<circle r="5" class="N" cx="1850" cy="1150"/>
<circle r="18" class="N" cx="1550" cy="1650"/>
<circle r="18" class="N" cx="1050" cy="1250"/>
<line y2="750" x1="1850" class="E sw4" x2="1650" y1="650"/>
<line y2="950" x1="1550" class="E sw5" x2="1550" y1="1150"/>
<line y2="1150" x1="1650" class="E sw3" x2="1650" y1="950"/>
<line y2="650" x1="2050" class="E sw5" x2="1850" y1="650"/>
<line y2="650" x1="1150" class="E sw6" x2="1150" y1="850"/>
<line y2="1050" x1="1150" class="E sw7" x2="1150" y1="850"/>
<line y2="1050" x1="1550" class="E sw9" x2="1450" y1="1150"/>
<line y2="1050" x1="1650" class="E sw6" x2="1750" y1="950"/>
<line y2="1650" x1="1650" class="E sw3" x2="1550" y1="1550"/>
<line y2="650" x1="1950" class="E sw5" x2="2050" y1="550"/>
<line y2="650" x1="1950" class="E sw9" x2="1850" y1="550"/>
<line y2="950" x1="1850" class="E sw4" x2="1750" y1="850"/>
<line y2="1050" x1="1850" class="E sw4" x2="1950" y1="1150"/>
<line y2="1050" x1="1850" class="E sw3" x2="1750" y1="1150"/>
<line y2="750" x1="1550" class="E sw7" x2="1650" y1="650"/>
<line y2="550" x1="1550" class="E sw5" x2="1450" y1="650"/>
<line y2="850" x1="1750" class="E sw4" x2="1650" y1="950"/>
<line y2="1050" x1="1250" class="E sw3" x2="1150" y1="1150"/>
<line y2="550" x1="1650" class="E sw11" x2="1550" y1="650"/>
<line y2="1050" x1="1650" class="E sw11" x2="1750" y1="1150"/>
<line y2="850" x1="1650" class="E sw3" x2="1550" y1="750"/>
<line y2="1050" x1="1550" class="E sw8" x2="1450" y1="950"/>
<line y2="850" x1="1550" class="E sw4" x2="1650" y1="950"/>
<line y2="1550" x1="1550" class="E sw11" x2="1450" y1="1650"/>
<line y2="1150" x1="1550" class="E sw4" x2="1450" y1="1150"/>
<line y2="1150" x1="1550" class="E sw8" x2="1650" y1="1150"/>
<line y2="950" x1="1650" class="E sw11" x2="1750" y1="950"/>
<line y2="850" x1="1650" class="E sw8" x2="1650" y1="950"/>
<line y2="1050" x1="1450" class="E sw6" x2="1450" y1="1150"/>
<line y2="650" x1="1450" class="E sw5" x2="1550" y1="650"/>
<line y2="550" x1="1450" class="E sw11" x2="1450" y1="650"/>
<line y2="650" x1="1550" class="E sw6" x2="1650" y1="650"/>
<line y2="550" x1="1550" class="E sw3" x2="1550" y1="650"/>
<line y2="1050" x1="2050" class="E sw4" x2="1950" y1="1050"/>
<line y2="750" x1="1650" class="E sw6" x2="1650" y1="650"/>
<line y2="850" x1="1650" class="E sw3" x2="1650" y1="750"/>
<line y2="1550" x1="1350" class="E sw6" x2="1450" y1="1550"/>
<line y2="1650" x1="1350" class="E sw5" x2="1350" y1="1550"/>
<line y2="550" x1="1550" class="E sw10" x2="1450" y1="550"/>
<line y2="850" x1="1650" class="E sw8" x2="1550" y1="850"/>
<polygon class=" s5 sw2 f13" points="1948,580 1966,580 1975,589 1975,607 1966,616 1948,616 1939,607 1939,589"/>
<rect x="1930" width="54" y="562" height="18" class="s13 sw2 f8"/>
<text x="1950" y="601" class="f4">7</text>
<polygon stroke-width="0" class=" s4 f4" points="1966,562 1966,568 1972,568 1960,580 1960,574 1954,574"/>
<circle r="18" class="s5 sw2 f13" cx="1357" cy="1698"/>
<rect x="1330" width="54" y="1662" height="18" class="s13 sw2 f7"/>
<text x="1350" y="1701" class="f4">6</text>
<circle r="18" class="s5 sw2 f13" cx="757" cy="1798"/>
<rect x="730" width="54" y="1762" height="18" class="s13 sw2 f7"/>
<text x="750" y="1801" class="f4">4</text>
<polygon class=" s5 sw2 f13" points="1630,780 1684,780 1657,816"/>
<rect x="1630" width="54" y="762" height="18" class="s13 sw2 f8"/>
<text x="1650" y="801" class="f4">27</text>
<polygon stroke-width="0" class=" s4 f4" points="1666,762 1666,768 1672,768 1660,780 1660,774 1654,774"/>
<polygon class=" s5 sw2 f13" points="1678,753 1696,753 1705,762 1705,780 1696,789 1678,789 1669,780 1669,762"/>
<rect x="1660" width="54" y="735" height="18" class="s13 sw2 f7"/>
<text x="1680" y="774" class="f4">11</text>
<polygon class=" s5 sw2 f14" points="1048,1080 1066,1080 1075,1089 1075,1107 1066,1116 1048,1116 1039,1107 1039,1089"/>
<line y2="1116" x1="1039" class="s7 sw6" x2="1075" y1="1080"/>
<line y2="1116" x1="1075" class="s7 sw6" x2="1039" y1="1080"/>
<rect x="1030" width="54" y="1062" height="18" class="s14 sw2 f7"/>
<text x="1050" y="1101" class="f4">12</text>
<polygon stroke-width="0" class=" s4 f4" points="1054,1062 1066,1062 1066,1068 1084,1068 1084,1074 1066,1074 1066,1080 1054,1080 1054,1074 1060,1074 1060,1068 1054,1068"/>
<polygon class=" s5 sw2 f14" points="1078,1053 1096,1053 1105,1062 1105,1080 1096,1089 1078,1089 1069,1080 1069,1062"/>
<line y2="1089" x1="1069" class="s7 sw6" x2="1105" y1="1053"/>
<line y2="1089" x1="1105" class="s7 sw6" x2="1069" y1="1053"/>
<rect x="1060" width="54" y="1035" height="18" class="s14 sw2 f7"/>
<text x="1080" y="1074" class="f4">9</text>
<polygon stroke-width="0" class=" s4 f4" points="1084,1035 1096,1035 1096,1041 1114,1041 1114,1047 1096,1047 1096,1053 1084,1053 1084,1047 1090,1047 1090,1041 1084,1041"/>
<circle r="18" class="s5 sw2 f14" cx="1080" cy="1033"/>
<line y2="1051" x1="1062" class="s7 sw6" x2="1098" y1="1015"/>
<line y2="1051" x1="1098" class="s7 sw6" x2="1062" y1="1015"/>
<rect x="1053" width="54" y="997" height="18" class="s14 sw2 f8"/>
<text x="1073" y="1036" class="f4">3</text>
<polygon stroke-width="0" class=" s4 f4" points="1089,997 1089,1003 1095,1003 1083,1015 1083,1009 1077,1009"/>
<polygon class=" s5 sw2 f13" points="1548,1180 1566,1180 1575,1189 1575,1207 1566,1216 1548,1216 1539,1207 1539,1189"/>
<rect x="1530" width="54" y="1162" height="18" class="s13 sw2 f7"/>
<text x="1550" y="1201" class="f4">8</text>
<polygon class=" s5 sw2 f14" points="1548,1480 1566,1480 1575,1489 1575,1507 1566,1516 1548,1516 1539,1507 1539,1489"/>
<line y2="1516" x1="1539" class="s7 sw6" x2="1575" y1="1480"/>
<line y2="1516" x1="1575" class="s7 sw6" x2="1539" y1="1480"/>
<rect x="1530" width="54" y="1462" height="18" class="s14 sw2 f8"/>
<text x="1550" y="1501" class="f4">7</text>
<polygon stroke-width="0" class=" s4 f4" points="1566,1462 1566,1468 1572,1468 1560,1480 1560,1474 1554,1474"/>
<polygon class=" s5 sw2 f14" points="1578,1453 1596,1453 1605,1462 1605,1480 1596,1489 1578,1489 1569,1480 1569,1462"/>
<line y2="1489" x1="1569" class="s7 sw6" x2="1605" y1="1453"/>
<line y2="1489" x1="1605" class="s7 sw6" x2="1569" y1="1453"/>
<rect x="1560" width="54" y="1435" height="18" class="s14 sw2 f8"/>
<text x="1580" y="1474" class="f4">10</text>
<polygon stroke-width="0" class=" s4 f4" points="1596,1435 1596,1441 1602,1441 1590,1453 1590,1447 1584,1447"/>
<rect x="1562" width="36" y="1415" height="36" class="s5 sw2 f14"/>
<line y2="1451" x1="1562" class="s7 sw6" x2="1598" y1="1415"/>
<line y2="1451" x1="1598" class="s7 sw6" x2="1562" y1="1415"/>
<rect x="1553" width="54" y="1397" height="18" class="s14 sw2 f8"/>
<text x="1573" y="1436" class="f4">18</text>
<polygon stroke-width="0" class=" s4 f4" points="1589,1397 1589,1403 1595,1403 1583,1415 1583,1409 1577,1409"/>
<rect x="2039" width="36" y="1080" height="36" class="s5 sw2 f13"/>
<rect x="2030" width="54" y="1062" height="18" class="s13 sw2 f8"/>
<text x="2050" y="1101" class="f4">21</text>
<polygon stroke-width="0" class=" s4 f4" points="2066,1062 2066,1068 2072,1068 2060,1080 2060,1074 2054,1074"/>
<polygon class=" s5 sw2 f13" points="1430,580 1484,580 1457,616"/>
<rect x="1430" width="54" y="562" height="18" class="s13 sw2 f8"/>
<text x="1450" y="601" class="f4">25</text>
<polygon stroke-width="0" class=" s4 f4" points="1466,562 1466,568 1472,568 1460,580 1460,574 1454,574"/>
<polygon class=" s5 sw2 f13" points="1478,553 1496,553 1505,562 1505,580 1496,589 1478,589 1469,580 1469,562"/>
<rect x="1460" width="54" y="535" height="18" class="s13 sw2 f7"/>
<text x="1480" y="574" class="f4">9</text>
<rect x="1139" width="36" y="880" height="36" class="s5 sw2 f13"/>
<rect x="1130" width="54" y="862" height="18" class="s13 sw2 f8"/>
<text x="1150" y="901" class="f4">22</text>
<polygon stroke-width="0" class=" s4 f4" points="1166,862 1166,868 1172,868 1160,880 1160,874 1154,874"/>
<polygon class=" s5 sw2 f13" points="2030,680 2084,680 2057,716"/>
<rect x="2030" width="54" y="662" height="18" class="s13 sw2 f8"/>
<text x="2050" y="701" class="f4">23</text>
<polygon stroke-width="0" class=" s4 f4" points="2066,662 2066,668 2072,668 2060,680 2060,674 2054,674"/>
<polygon class=" s5 sw2 f13" points="1957,1580 1975,1598 1957,1616 1939,1598"/>
<rect x="1930" width="54" y="1562" height="18" class="s13 sw2 f8"/>
<text x="1950" y="1601" class="f4">16</text>
<polygon stroke-width="0" class=" s4 f4" points="1966,1562 1966,1568 1972,1568 1960,1580 1960,1574 1954,1574"/>
<polygon class=" s5 sw2 f13" points="1960,1553 2014,1553 1987,1589"/>
<rect x="1960" width="54" y="1535" height="18" class="s13 sw2 f8"/>
<text x="1980" y="1574" class="f4">26</text>
<polygon stroke-width="0" class=" s4 f4" points="1996,1535 1996,1541 2002,1541 1990,1553 1990,1547 1984,1547"/>
<rect x="1239" width="36" y="1180" height="36" class="s5 sw2 f13"/>
<rect x="1230" width="54" y="1162" height="18" class="s13 sw2 f8"/>
<text x="1250" y="1201" class="f4">18</text>
<polygon stroke-width="0" class=" s4 f4" points="1266,1162 1266,1168 1272,1168 1260,1180 1260,1174 1254,1174"/>
<polygon class=" s5 sw2 f13" points="1848,880 1866,880 1875,889 1875,907 1866,916 1848,916 1839,907 1839,889"/>
<rect x="1830" width="54" y="862" height="18" class="s13 sw2 f8"/>
<text x="1850" y="901" class="f4">10</text>
<polygon stroke-width="0" class=" s4 f4" points="1866,862 1866,868 1872,868 1860,880 1860,874 1854,874"/>
<circle r="18" class="s5 sw2 f13" cx="1657" cy="1598"/>
<rect x="1630" width="54" y="1562" height="18" class="s13 sw2 f7"/>
<text x="1650" y="1601" class="f4">3</text>
<circle r="18" class="s5 sw2 f13" cx="1457" cy="1598"/>
<rect x="1430" width="54" y="1562" height="18" class="s13 sw2 f7"/>
<text x="1450" y="1601" class="f4">1</text>
<polygon class=" s5 sw2 f13" points="1630,880 1684,880 1657,916"/>
<rect x="1630" width="54" y="862" height="18" class="s13 sw2 f8"/>
<text x="1650" y="901" class="f4">28</text>
<polygon stroke-width="0" class=" s4 f4" points="1666,862 1666,868 1672,868 1660,880 1660,874 1654,874"/>
<rect x="1669" width="36" y="853" height="36" class="s5 sw2 f13"/>
<rect x="1660" width="54" y="835" height="18" class="s13 sw2 f7"/>
<text x="1680" y="874" class="f4">17</text>
<polygon class=" s5 sw2 f13" points="1680,815 1698,833 1680,851 1662,833"/>
<rect x="1653" width="54" y="797" height="18" class="s13 sw2 f7"/>
<text x="1673" y="836" class="f4">15</text>
<polygon class=" s5 sw2 f13" points="1657,980 1675,998 1657,1016 1639,998"/>
<rect x="1630" width="54" y="962" height="18" class="s13 sw2 f7"/>
<text x="1650" y="1001" class="f4">14</text>
<polygon class=" s5 sw2 f13" points="1530,680 1584,680 1557,716"/>
<rect x="1530" width="54" y="662" height="18" class="s13 sw2 f8"/>
<text x="1550" y="701" class="f4">24</text>
<polygon stroke-width="0" class=" s4 f4" points="1566,662 1566,668 1572,668 1560,680 1560,674 1554,674"/>
<polygon class=" s5 sw2 f14" points="1348,1180 1366,1180 1375,1189 1375,1207 1366,1216 1348,1216 1339,1207 1339,1189"/>
<line y2="1216" x1="1339" class="s7 sw6" x2="1375" y1="1180"/>
<line y2="1216" x1="1375" class="s7 sw6" x2="1339" y1="1180"/>
<rect x="1330" width="54" y="1162" height="18" class="s14 sw2 f7"/>
<text x="1350" y="1201" class="f4">11</text>
<polygon stroke-width="0" class=" s4 f4" points="1354,1162 1366,1162 1366,1168 1384,1168 1384,1174 1366,1174 1366,1180 1354,1180 1354,1174 1360,1174 1360,1168 1354,1168"/>
<polygon class=" s5 sw2 f14" points="1378,1153 1396,1153 1405,1162 1405,1180 1396,1189 1378,1189 1369,1180 1369,1162"/>
<line y2="1189" x1="1369" class="s7 sw6" x2="1405" y1="1153"/>
<line y2="1189" x1="1405" class="s7 sw6" x2="1369" y1="1153"/>
<rect x="1360" width="54" y="1135" height="18" class="s14 sw2 f7"/>
<text x="1380" y="1174" class="f4">8</text>
<polygon stroke-width="0" class=" s4 f4" points="1384,1135 1396,1135 1396,1141 1414,1141 1414,1147 1396,1147 1396,1153 1384,1153 1384,1147 1390,1147 1390,1141 1384,1141"/>
<polygon class=" s5 sw2 f14" points="1353,1115 1407,1115 1380,1151"/>
<line y2="1151" x1="1362" class="s7 sw6" x2="1398" y1="1115"/>
<line y2="1151" x1="1398" class="s7 sw6" x2="1362" y1="1115"/>
<rect x="1353" width="54" y="1097" height="18" class="s14 sw2 f8"/>
<text x="1373" y="1136" class="f4">28</text>
<polygon stroke-width="0" class=" s4 f4" points="1389,1097 1389,1103 1395,1103 1383,1115 1383,1109 1377,1109"/>
<polygon class=" s5 sw2 f14" points="1316,1102 1370,1102 1343,1138"/>
<line y2="1138" x1="1325" class="s7 sw6" x2="1361" y1="1102"/>
<line y2="1138" x1="1361" class="s7 sw6" x2="1325" y1="1102"/>
<rect x="1316" width="54" y="1084" height="18" class="s14 sw2 f8"/>
<text x="1336" y="1123" class="f4">26</text>
<polygon stroke-width="0" class=" s4 f4" points="1352,1084 1352,1090 1358,1090 1346,1102 1346,1096 1340,1096"/>
<polygon class=" s5 sw2 f14" points="1286,1129 1340,1129 1313,1165"/>
<line y2="1165" x1="1295" class="s7 sw6" x2="1331" y1="1129"/>
<line y2="1165" x1="1331" class="s7 sw6" x2="1295" y1="1129"/>
<rect x="1286" width="54" y="1111" height="18" class="s14 sw2 f8"/>
<text x="1306" y="1150" class="f4">27</text>
<polygon stroke-width="0" class=" s4 f4" points="1322,1111 1322,1117 1328,1117 1316,1129 1316,1123 1310,1123"/>
<rect x="1302" width="36" y="1167" height="36" class="s5 sw2 f14"/>
<line y2="1203" x1="1302" class="s7 sw6" x2="1338" y1="1167"/>
<line y2="1203" x1="1338" class="s7 sw6" x2="1302" y1="1167"/>
<rect x="1293" width="54" y="1149" height="18" class="s14 sw2 f8"/>
<text x="1313" y="1188" class="f4">22</text>
<polygon stroke-width="0" class=" s4 f4" points="1329,1149 1329,1155 1335,1155 1323,1167 1323,1161 1317,1161"/>
<rect x="1344" width="36" y="1203" height="36" class="s5 sw2 f14"/>
<line y2="1239" x1="1344" class="s7 sw6" x2="1380" y1="1203"/>
<line y2="1239" x1="1380" class="s7 sw6" x2="1344" y1="1203"/>
<rect x="1335" width="54" y="1185" height="18" class="s14 sw2 f8"/>
<text x="1355" y="1224" class="f4">20</text>
<polygon stroke-width="0" class=" s4 f4" points="1371,1185 1371,1191 1377,1191 1365,1203 1365,1197 1359,1197"/>
<rect x="1365" width="36" y="1195" height="36" class="s5 sw2 f14"/>
<line y2="1231" x1="1365" class="s7 sw6" x2="1401" y1="1195"/>
<line y2="1231" x1="1401" class="s7 sw6" x2="1365" y1="1195"/>
<rect x="1356" width="54" y="1177" height="18" class="s14 sw2 f8"/>
<text x="1376" y="1216" class="f4">19</text>
<polygon stroke-width="0" class=" s4 f4" points="1392,1177 1392,1183 1398,1183 1386,1195 1386,1189 1380,1189"/>
<rect x="1381" width="36" y="1181" height="36" class="s5 sw2 f14"/>
<line y2="1217" x1="1381" class="s7 sw6" x2="1417" y1="1181"/>
<line y2="1217" x1="1417" class="s7 sw6" x2="1381" y1="1181"/>
<rect x="1372" width="54" y="1163" height="18" class="s14 sw2 f8"/>
<text x="1392" y="1202" class="f4">21</text>
<polygon stroke-width="0" class=" s4 f4" points="1408,1163 1408,1169 1414,1169 1402,1181 1402,1175 1396,1175"/>
<rect x="1392" width="36" y="1161" height="36" class="s5 sw2 f14"/>
<line y2="1197" x1="1392" class="s7 sw6" x2="1428" y1="1161"/>
<line y2="1197" x1="1428" class="s7 sw6" x2="1392" y1="1161"/>
<rect x="1383" width="54" y="1143" height="18" class="s14 sw2 f8"/>
<text x="1403" y="1182" class="f4">17</text>
<polygon stroke-width="0" class=" s4 f4" points="1419,1143 1419,1149 1425,1149 1413,1161 1413,1155 1407,1155"/>
<polygon class=" s5 sw2 f14" points="1386,1140 1440,1140 1413,1176"/>
<line y2="1176" x1="1395" class="s7 sw6" x2="1431" y1="1140"/>
<line y2="1176" x1="1431" class="s7 sw6" x2="1395" y1="1140"/>
<rect x="1386" width="54" y="1122" height="18" class="s14 sw2 f8"/>
<text x="1406" y="1161" class="f4">25</text>
<polygon stroke-width="0" class=" s4 f4" points="1422,1122 1422,1128 1428,1128 1416,1140 1416,1134 1410,1134"/>
<circle r="18" class="s5 sw2 f14" cx="1409" cy="1136"/>
<line y2="1154" x1="1391" class="s7 sw6" x2="1427" y1="1118"/>
<line y2="1154" x1="1427" class="s7 sw6" x2="1391" y1="1118"/>
<rect x="1382" width="54" y="1100" height="18" class="s14 sw2 f8"/>
<text x="1402" y="1139" class="f4">1</text>
<polygon stroke-width="0" class=" s4 f4" points="1418,1100 1418,1106 1424,1106 1412,1118 1412,1112 1406,1112"/>
<polygon class=" s5 sw2 f14" points="1371,1099 1425,1099 1398,1135"/>
<line y2="1135" x1="1380" class="s7 sw6" x2="1416" y1="1099"/>
<line y2="1135" x1="1416" class="s7 sw6" x2="1380" y1="1099"/>
<rect x="1371" width="54" y="1081" height="18" class="s14 sw2 f8"/>
<text x="1391" y="1120" class="f4">24</text>
<polygon stroke-width="0" class=" s4 f4" points="1407,1081 1407,1087 1413,1087 1401,1099 1401,1093 1395,1093"/>
<polygon class=" s5 sw2 f14" points="1380,1085 1398,1103 1380,1121 1362,1103"/>
<line y2="1121" x1="1362" class="s7 sw6" x2="1398" y1="1085"/>
<line y2="1121" x1="1398" class="s7 sw6" x2="1362" y1="1085"/>
<rect x="1353" width="54" y="1067" height="18" class="s14 sw2 f8"/>
<text x="1373" y="1106" class="f4">14</text>
<polygon stroke-width="0" class=" s4 f4" points="1389,1067 1389,1073 1395,1073 1383,1085 1383,1079 1377,1079"/>
<polygon class=" s5 sw2 f14" points="1359,1078 1377,1096 1359,1114 1341,1096"/>
<line y2="1114" x1="1341" class="s7 sw6" x2="1377" y1="1078"/>
<line y2="1114" x1="1377" class="s7 sw6" x2="1341" y1="1078"/>
<rect x="1332" width="54" y="1060" height="18" class="s14 sw2 f8"/>
<text x="1352" y="1099" class="f4">16</text>
<polygon stroke-width="0" class=" s4 f4" points="1368,1060 1368,1066 1374,1066 1362,1078 1362,1072 1356,1072"/>
<circle r="18" class="s5 sw2 f14" cx="1338" cy="1097"/>
<line y2="1115" x1="1320" class="s7 sw6" x2="1356" y1="1079"/>
<line y2="1115" x1="1356" class="s7 sw6" x2="1320" y1="1079"/>
<rect x="1311" width="54" y="1061" height="18" class="s14 sw2 f8"/>
<text x="1331" y="1100" class="f4">2</text>
<polygon stroke-width="0" class=" s4 f4" points="1347,1061 1347,1067 1353,1067 1341,1079 1341,1073 1335,1073"/>
<polygon class=" s5 sw2 f14" points="1317,1087 1335,1105 1317,1123 1299,1105"/>
<line y2="1123" x1="1299" class="s7 sw6" x2="1335" y1="1087"/>
<line y2="1123" x1="1335" class="s7 sw6" x2="1299" y1="1087"/>
<rect x="1290" width="54" y="1069" height="18" class="s14 sw2 f8"/>
<text x="1310" y="1108" class="f4">15</text>
<polygon stroke-width="0" class=" s4 f4" points="1326,1069 1326,1075 1332,1075 1320,1087 1320,1081 1314,1081"/>
<polygon class=" s5 sw2 f14" points="1274,1101 1328,1101 1301,1137"/>
<line y2="1137" x1="1283" class="s7 sw6" x2="1319" y1="1101"/>
<line y2="1137" x1="1319" class="s7 sw6" x2="1283" y1="1101"/>
<rect x="1274" width="54" y="1083" height="18" class="s14 sw2 f8"/>
<text x="1294" y="1122" class="f4">23</text>
<polygon stroke-width="0" class=" s4 f4" points="1310,1083 1310,1089 1316,1089 1304,1101 1304,1095 1298,1095"/>
<circle r="18" class="s5 sw2 f14" cx="1290" cy="1139"/>
<line y2="1157" x1="1272" class="s7 sw6" x2="1308" y1="1121"/>
<line y2="1157" x1="1308" class="s7 sw6" x2="1272" y1="1121"/>
<rect x="1263" width="54" y="1103" height="18" class="s14 sw2 f8"/>
<text x="1283" y="1142" class="f4">6</text>
<polygon stroke-width="0" class=" s4 f4" points="1299,1103 1299,1109 1305,1109 1293,1121 1293,1115 1287,1115"/>
<polygon class=" s5 sw2 f14" points="1287,1142 1305,1160 1287,1178 1269,1160"/>
<line y2="1178" x1="1269" class="s7 sw6" x2="1305" y1="1142"/>
<line y2="1178" x1="1305" class="s7 sw6" x2="1269" y1="1142"/>
<rect x="1260" width="54" y="1124" height="18" class="s14 sw2 f8"/>
<text x="1280" y="1163" class="f4">13</text>
<polygon stroke-width="0" class=" s4 f4" points="1296,1124 1296,1130 1302,1130 1290,1142 1290,1136 1284,1136"/>
<circle r="18" class="s5 sw2 f14" cx="1291" cy="1182"/>
<line y2="1200" x1="1273" class="s7 sw6" x2="1309" y1="1164"/>
<line y2="1200" x1="1309" class="s7 sw6" x2="1273" y1="1164"/>
<rect x="1264" width="54" y="1146" height="18" class="s14 sw2 f8"/>
<text x="1284" y="1185" class="f4">5</text>
<polygon stroke-width="0" class=" s4 f4" points="1300,1146 1300,1152 1306,1152 1294,1164 1294,1158 1288,1158"/>
<circle r="18" class="s5 sw2 f14" cx="2057" cy="1698"/>
<rect x="2030" width="54" y="1662" height="18" class="s14 sw2 f8"/>
<text x="2050" y="1701" class="f4">4</text>
<circle stroke-width="0" r="3" class="s4 f4" cx="2066" cy="1665"/>
<circle stroke-width="0" r="3" class="s4 f4" cx="2066" cy="1677"/>
<circle stroke-width="0" r="3" class="s4 f4" cx="2057" cy="1671"/>
<circle stroke-width="0" r="3" class="s4 f4" cx="2075" cy="1671"/>
<line y2="1671" x1="2060" class="s4 sw1" x2="2072" y1="1671"/>
<line y2="1674" x1="2066" class="s4 sw1" x2="2066" y1="1668"/>
<rect x="1139" width="36" y="680" height="36" class="s5 sw2 f13"/>
<rect x="1130" width="54" y="662" height="18" class="s13 sw2 f7"/>
<text x="1150" y="701" class="f4">20</text>
<rect x="1169" width="36" y="653" height="36" class="s5 sw2 f13"/>
<rect x="1160" width="54" y="635" height="18" class="s13 sw2 f8"/>
<text x="1180" y="674" class="f4">19</text>
<polygon stroke-width="0" class=" s4 f4" points="1196,635 1196,641 1202,641 1190,653 1190,647 1184,647"/>
<polygon class=" s5 sw2 f13" points="1171,615 1189,615 1198,624 1198,642 1189,651 1171,651 1162,642 1162,624"/>
<rect x="1153" width="54" y="597" height="18" class="s13 sw2 f7"/>
<text x="1173" y="636" class="f4">12</text>
<polygon class=" s5 sw2 f13" points="1457,1180 1475,1198 1457,1216 1439,1198"/>
<rect x="1430" width="54" y="1162" height="18" class="s13 sw2 f8"/>
<text x="1450" y="1201" class="f4">13</text>
<polygon stroke-width="0" class=" s4 f4" points="1466,1162 1466,1168 1472,1168 1460,1180 1460,1174 1454,1174"/>
<circle r="18" class="s5 sw2 f13" cx="1857" cy="1198"/>
<rect x="1830" width="54" y="1162" height="18" class="s13 sw2 f7"/>
<text x="1850" y="1201" class="f4">5</text>
<circle r="18" class="s5 sw2 f13" cx="1057" cy="1298"/>
<rect x="1030" width="54" y="1262" height="18" class="s13 sw2 f8"/>
<text x="1050" y="1301" class="f4">2</text>
<polygon stroke-width="0" class=" s4 f4" points="1066,1262 1066,1268 1072,1268 1060,1280 1060,1274 1054,1274"/>
<line y2="1289" x1="1387" class="s14 sw4" x2="1057" y1="1162"/>
<line x1="1387" x2="1057" y1="1162" y2="1289" class="s3 sw4 sd" marker-end="url(#ar1)"/>
<line y2="1589" x1="1087" class="s14 sw4" x2="1657" y1="1062"/>
<line x1="1087" x2="1657" y1="1062" y2="1589" class="s3 sw4 sd" marker-end="url(#ar1)"/>
<line y2="889" x1="1357" class="s14 sw4" x2="1657" y1="1189"/>
<line x1="1357" x2="1657" y1="1189" y2="889" class="s3 sw4 sd" marker-end="url(#ar1)"/>
<line y2="1589" x1="1057" class="s14 sw4" x2="1657" y1="1089"/>
<line x1="1057" x2="1657" y1="1089" y2="1589" class="s3 sw4 sd" marker-end="url(#ar1)"/>
<g id="teamTable" transform="translate(-100, 150)">
<text x="2350" y="75" class="TxtNrml">Step: 121</text>
<text x="2350" y="180" class="Tb" text-anchor="start">
<tspan fill="rgba(0,158,115,1.0)" x="2350">A</tspan>
<tspan x="2750">4117</tspan>
<tspan x="2950">24</tspan>
<tspan x="3150">0</tspan>
<tspan x="3350">24</tspan>
</text>
<text x="2350" y="220" class="Tb" text-anchor="start">
<tspan fill="rgba(0,114,178,1.0)" x="2350">B</tspan>
<tspan x="2750">28053</tspan>
<tspan x="2950">104</tspan>
<tspan x="3150">56</tspan>
<tspan x="3350">48</tspan>
</text>
</g>
<g id="agentTable" transform="translate(-100, 150)">
<text x="2350" y="316" class="Tb2" text-anchor="start">
<tspan x="2535">35/35</tspan>
<tspan x="2650">0/4</tspan>
<tspan x="2765">0</tspan>
<tspan x="2880">2</tspan>
<tspan x="2995">recharge :successful</tspan>
</text>
<text x="2350" y="346" class="Tb2" text-anchor="start">
<tspan x="2535">35/35</tspan>
<tspan x="2650">0/4</tspan>
<tspan x="2765">0</tspan>
<tspan x="2880">2</tspan>
<tspan x="2995">recharge :successful</tspan>
</text>
<text x="2350" y="376" class="Tb2" text-anchor="start">
<tspan x="2535">35/35</tspan>
<tspan x="2650">0/4</tspan>
<tspan x="2765">0</tspan>
<tspan x="2880">2</tspan>
<tspan x="2995">recharge :successful</tspan>
</text>
<text x="2350" y="406" class="Tb2" text-anchor="start">
<tspan x="2535">30/35</tspan>
<tspan x="2650">4/4</tspan>
<tspan x="2765">0</tspan>
<tspan x="2880">2</tspan>
<tspan x="2995">goto v343:successful</tspan>
</text>
<text x="2350" y="436" class="Tb2" text-anchor="start">
<tspan x="2535">35/35</tspan>
<tspan x="2650">0/4</tspan>
<tspan x="2765">0</tspan>
<tspan x="2880">2</tspan>
<tspan x="2995">recharge :successful</tspan>
</text>
<text x="2350" y="466" class="Tb2" text-anchor="start">
<tspan x="2535">35/35</tspan>
<tspan x="2650">0/4</tspan>
<tspan x="2765">0</tspan>
<tspan x="2880">2</tspan>
<tspan x="2995">recharge :successful</tspan>
</text>
<text x="2350" y="496" class="Tb2" text-anchor="start">
<tspan x="2535">16/25</tspan>
<tspan x="2650">0/6</tspan>
<tspan x="2765">0</tspan>
<tspan x="2880">1</tspan>
<tspan x="2995">recharge :successful</tspan>
</text>
<text x="2350" y="526" class="Tb2" text-anchor="start">
<tspan x="2535">7/25</tspan>
<tspan x="2650">0/6</tspan>
<tspan x="2765">0</tspan>
<tspan x="2880">1</tspan>
<tspan fill="red" x="2995">repair b2:failed_out_of_range</tspan>
</text>
<text x="2350" y="556" class="Tb2" text-anchor="start">
<tspan x="2535">10/25</tspan>
<tspan x="2650">0/6</tspan>
<tspan x="2765">0</tspan>
<tspan x="2880">1</tspan>
<tspan fill="red" x="2995">repair b3:failed_out_of_range</tspan>
</text>
<text x="2350" y="586" class="Tb2" text-anchor="start">
<tspan x="2535">13/25</tspan>
<tspan x="2650">0/6</tspan>
<tspan x="2765">0</tspan>
<tspan x="2880">1</tspan>
<tspan x="2995">recharge :successful</tspan>
</text>
<text x="2350" y="616" class="Tb2" text-anchor="start">
<tspan x="2535">6/25</tspan>
<tspan x="2650">0/6</tspan>
<tspan x="2765">0</tspan>
<tspan x="2880">1</tspan>
<tspan fill="red" x="2995">repair b28:failed_out_of_range</tspan>
</text>
<text x="2350" y="646" class="Tb2" text-anchor="start">
<tspan x="2535">10/25</tspan>
<tspan x="2650">0/6</tspan>
<tspan x="2765">0</tspan>
<tspan x="2880">1</tspan>
<tspan fill="red" x="2995">repair b3:failed_out_of_range</tspan>
</text>
<text x="2350" y="676" class="Tb2" text-anchor="start">
<tspan x="2535">20/20</tspan>
<tspan x="2650">0/3</tspan>
<tspan x="2765">3</tspan>
<tspan x="2880">1</tspan>
<tspan x="2995">recharge :successful</tspan>
</text>
<text x="2350" y="706" class="Tb2" text-anchor="start">
<tspan x="2535">20/20</tspan>
<tspan x="2650">0/3</tspan>
<tspan x="2765">3</tspan>
<tspan x="2880">1</tspan>
<tspan x="2995">recharge :successful</tspan>
</text>
<text x="2350" y="736" class="Tb2" text-anchor="start">
<tspan x="2535">20/20</tspan>
<tspan x="2650">0/3</tspan>
<tspan x="2765">3</tspan>
<tspan x="2880">1</tspan>
<tspan x="2995">recharge :successful</tspan>
</text>
<text x="2350" y="766" class="Tb2" text-anchor="start">
<tspan x="2535">20/20</tspan>
<tspan x="2650">0/3</tspan>
<tspan x="2765">3</tspan>
<tspan x="2880">1</tspan>
<tspan x="2995">recharge :successful</tspan>
</text>
<text x="2350" y="796" class="Tb2" text-anchor="start">
<tspan x="2535">30/30</tspan>
<tspan x="2650">0/1</tspan>
<tspan x="2765">0</tspan>
<tspan x="2880">3</tspan>
<tspan x="2995">recharge :successful</tspan>
</text>
<text x="2350" y="826" class="Tb2" text-anchor="start">
<tspan x="2535">30/30</tspan>
<tspan x="2650">0/1</tspan>
<tspan x="2765">0</tspan>
<tspan x="2880">3</tspan>
<tspan x="2995">recharge :successful</tspan>
</text>
<text x="2350" y="856" class="Tb2" text-anchor="start">
<tspan x="2535">30/30</tspan>
<tspan x="2650">0/1</tspan>
<tspan x="2765">0</tspan>
<tspan x="2880">3</tspan>
<tspan x="2995">recharge :successful</tspan>
</text>
<text x="2350" y="886" class="Tb2" text-anchor="start">
<tspan x="2535">30/30</tspan>
<tspan x="2650">0/1</tspan>
<tspan x="2765">0</tspan>
<tspan x="2880">3</tspan>
<tspan x="2995">recharge :successful</tspan>
</text>
<text x="2350" y="916" class="Tb2" text-anchor="start">
<tspan x="2535">30/30</tspan>
<tspan x="2650">0/1</tspan>
<tspan x="2765">0</tspan>
<tspan x="2880">3</tspan>
<tspan x="2995">recharge :successful</tspan>
</text>
<text x="2350" y="946" class="Tb2" text-anchor="start">
<tspan x="2535">30/30</tspan>
<tspan x="2650">0/1</tspan>
<tspan x="2765">0</tspan>
<tspan x="2880">3</tspan>
<tspan x="2995">recharge :successful</tspan>
</text>
<text x="2350" y="976" class="Tb2" text-anchor="start">
<tspan x="2535">25/25</tspan>
<tspan x="2650">0/6</tspan>
<tspan x="2765">0</tspan>
<tspan x="2880">1</tspan>
<tspan x="2995">recharge :successful</tspan>
</text>
<text x="2350" y="1006" class="Tb2" text-anchor="start">
<tspan x="2535">25/25</tspan>
<tspan x="2650">0/6</tspan>
<tspan x="2765">0</tspan>
<tspan x="2880">1</tspan>
<tspan x="2995">recharge :successful</tspan>
</text>
<text x="2350" y="1036" class="Tb2" text-anchor="start">
<tspan x="2535">25/25</tspan>
<tspan x="2650">0/6</tspan>
<tspan x="2765">0</tspan>
<tspan x="2880">1</tspan>
<tspan x="2995">recharge :successful</tspan>
</text>
<text x="2350" y="1066" class="Tb2" text-anchor="start">
<tspan x="2535">25/25</tspan>
<tspan x="2650">0/6</tspan>
<tspan x="2765">0</tspan>
<tspan x="2880">1</tspan>
<tspan x="2995">recharge :successful</tspan>
</text>
<text x="2350" y="1096" class="Tb2" text-anchor="start">
<tspan x="2535">25/25</tspan>
<tspan x="2650">0/6</tspan>
<tspan x="2765">0</tspan>
<tspan x="2880">1</tspan>
<tspan x="2995">recharge :successful</tspan>
</text>
<text x="2350" y="1126" class="Tb2" text-anchor="start">
<tspan x="2535">25/25</tspan>
<tspan x="2650">0/6</tspan>
<tspan x="2765">0</tspan>
<tspan x="2880">1</tspan>
<tspan x="2995">recharge :successful</tspan>
</text>
<text x="2350" y="1156" class="Tb2" text-anchor="start">
<tspan x="2535">35/35</tspan>
<tspan x="2650">4/4</tspan>
<tspan x="2765">0</tspan>
<tspan x="2880">2</tspan>
<tspan fill="red" x="2995">noAction :failed</tspan>
</text>
<text x="2350" y="1186" class="Tb2" text-anchor="start">
<tspan x="2535">35/35</tspan>
<tspan x="2650">4/4</tspan>
<tspan x="2765">0</tspan>
<tspan x="2880">2</tspan>
<tspan x="2995">recharge :successful</tspan>
</text>
<text x="2350" y="1216" class="Tb2" text-anchor="start">
<tspan x="2535">35/35</tspan>
<tspan x="2650">4/4</tspan>
<tspan x="2765">0</tspan>
<tspan x="2880">2</tspan>
<tspan fill="red" x="2995">noAction :failed</tspan>
</text>
<text x="2350" y="1246" class="Tb2" text-anchor="start">
<tspan x="2535">35/35</tspan>
<tspan x="2650">4/4</tspan>
<tspan x="2765">0</tspan>
<tspan x="2880">2</tspan>
<tspan fill="red" x="2995">noAction :failed</tspan>
</text>
<text x="2350" y="1276" class="Tb2" text-anchor="start">
<tspan x="2535">35/35</tspan>
<tspan x="2650">4/4</tspan>
<tspan x="2765">0</tspan>
<tspan x="2880">2</tspan>
<tspan fill="red" x="2995">noAction :failed</tspan>
</text>
<text x="2350" y="1306" class="Tb2" text-anchor="start">
<tspan x="2535">35/35</tspan>
<tspan x="2650">4/4</tspan>
<tspan x="2765">0</tspan>
<tspan x="2880">2</tspan>
<tspan fill="red" x="2995">noAction :failed</tspan>
</text>
<text x="2350" y="1336" class="Tb2" text-anchor="start">
<tspan x="2535">25/25</tspan>
<tspan x="2650">6/6</tspan>
<tspan x="2765">0</tspan>
<tspan x="2880">1</tspan>
<tspan x="2995">recharge :successful</tspan>
</text>
<text x="2350" y="1366" class="Tb2" text-anchor="start">
<tspan x="2535">25/25</tspan>
<tspan x="2650">6/6</tspan>
<tspan x="2765">0</tspan>
<tspan x="2880">1</tspan>
<tspan fill="red" x="2995">noAction :failed</tspan>
</text>
<text x="2350" y="1396" class="Tb2" text-anchor="start">
<tspan x="2535">25/25</tspan>
<tspan x="2650">6/6</tspan>
<tspan x="2765">0</tspan>
<tspan x="2880">1</tspan>
<tspan fill="red" x="2995">noAction :failed</tspan>
</text>
<text x="2350" y="1426" class="Tb2" text-anchor="start">
<tspan x="2535">25/25</tspan>
<tspan x="2650">6/6</tspan>
<tspan x="2765">0</tspan>
<tspan x="2880">1</tspan>
<tspan x="2995">recharge :successful</tspan>
</text>
<text x="2350" y="1456" class="Tb2" text-anchor="start">
<tspan x="2535">25/25</tspan>
<tspan x="2650">6/6</tspan>
<tspan x="2765">0</tspan>
<tspan x="2880">1</tspan>
<tspan fill="red" x="2995">noAction :failed</tspan>
</text>
<text x="2350" y="1486" class="Tb2" text-anchor="start">
<tspan x="2535">25/25</tspan>
<tspan x="2650">6/6</tspan>
<tspan x="2765">0</tspan>
<tspan x="2880">1</tspan>
<tspan fill="red" x="2995">noAction :failed</tspan>
</text>
<text x="2350" y="1516" class="Tb2" text-anchor="start">
<tspan x="2535">20/20</tspan>
<tspan x="2650">3/3</tspan>
<tspan x="2765">3</tspan>
<tspan x="2880">1</tspan>
<tspan x="2995">recharge :successful</tspan>
</text>
<text x="2350" y="1546" class="Tb2" text-anchor="start">
<tspan x="2535">20/20</tspan>
<tspan x="2650">3/3</tspan>
<tspan x="2765">3</tspan>
<tspan x="2880">1</tspan>
<tspan fill="red" x="2995">noAction :failed</tspan>
</text>
<text x="2350" y="1576" class="Tb2" text-anchor="start">
<tspan x="2535">20/20</tspan>
<tspan x="2650">3/3</tspan>
<tspan x="2765">3</tspan>
<tspan x="2880">1</tspan>
<tspan fill="red" x="2995">noAction :failed</tspan>
</text>
<text x="2350" y="1606" class="Tb2" text-anchor="start">
<tspan x="2535">20/20</tspan>
<tspan x="2650">3/3</tspan>
<tspan x="2765">3</tspan>
<tspan x="2880">1</tspan>
<tspan x="2995">recharge :successful</tspan>
</text>
<text x="2350" y="1636" class="Tb2" text-anchor="start">
<tspan x="2535">30/30</tspan>
<tspan x="2650">1/1</tspan>
<tspan x="2765">0</tspan>
<tspan x="2880">3</tspan>
<tspan fill="red" x="2995">noAction :failed</tspan>
</text>
<text x="2350" y="1666" class="Tb2" text-anchor="start">
<tspan x="2535">30/30</tspan>
<tspan x="2650">1/1</tspan>
<tspan x="2765">0</tspan>
<tspan x="2880">3</tspan>
<tspan x="2995">recharge :successful</tspan>
</text>
<text x="2350" y="1696" class="Tb2" text-anchor="start">
<tspan x="2535">30/30</tspan>
<tspan x="2650">1/1</tspan>
<tspan x="2765">0</tspan>
<tspan x="2880">3</tspan>
<tspan x="2995">recharge :successful</tspan>
</text>
<text x="2350" y="1726" class="Tb2" text-anchor="start">
<tspan x="2535">30/30</tspan>
<tspan x="2650">1/1</tspan>
<tspan x="2765">0</tspan>
<tspan x="2880">3</tspan>
<tspan fill="red" x="2995">noAction :failed</tspan>
</text>
<text x="2350" y="1756" class="Tb2" text-anchor="start">
<tspan x="2535">30/30</tspan>
<tspan x="2650">1/1</tspan>
<tspan x="2765">0</tspan>
<tspan x="2880">3</tspan>
<tspan x="2995">recharge :successful</tspan>
</text>
<text x="2350" y="1786" class="Tb2" text-anchor="start">
<tspan x="2535">30/30</tspan>
<tspan x="2650">1/1</tspan>
<tspan x="2765">0</tspan>
<tspan x="2880">3</tspan>
<tspan x="2995">recharge :successful</tspan>
</text>
<text x="2350" y="1816" class="Tb2" text-anchor="start">
<tspan x="2535">25/25</tspan>
<tspan x="2650">6/6</tspan>
<tspan x="2765">0</tspan>
<tspan x="2880">1</tspan>
<tspan x="2995">recharge :successful</tspan>
</text>
<text x="2350" y="1846" class="Tb2" text-anchor="start">
<tspan x="2535">25/25</tspan>
<tspan x="2650">6/6</tspan>
<tspan x="2765">0</tspan>
<tspan x="2880">1</tspan>
<tspan x="2995">recharge :successful</tspan>
</text>
<text x="2350" y="1876" class="Tb2" text-anchor="start">
<tspan x="2535">25/25</tspan>
<tspan x="2650">6/6</tspan>
<tspan x="2765">0</tspan>
<tspan x="2880">1</tspan>
<tspan x="2995">recharge :successful</tspan>
</text>
<text x="2350" y="1906" class="Tb2" text-anchor="start">
<tspan x="2535">25/25</tspan>
<tspan x="2650">6/6</tspan>
<tspan x="2765">0</tspan>
<tspan x="2880">1</tspan>
<tspan x="2995">recharge :successful</tspan>
</text>
<text x="2350" y="1936" class="Tb2" text-anchor="start">
<tspan x="2535">25/25</tspan>
<tspan x="2650">6/6</tspan>
<tspan x="2765">0</tspan>
<tspan x="2880">1</tspan>
<tspan x="2995">recharge :successful</tspan>
</text>
<text x="2350" y="1966" class="Tb2" text-anchor="start">
<tspan x="2535">25/25</tspan>
<tspan x="2650">6/6</tspan>
<tspan x="2765">0</tspan>
<tspan x="2880">1</tspan>
<tspan x="2995">recharge :successful</tspan>
</text>
</g>
<line y2="442" x1="3290" class="s5 sw1" x2="3290" y1="1996"/>
<g id="achievementPart" transform="translate(-100, 150)">
<text x="3400" y="301" class="TxtAch">
<tspan x="3400">Achievements</tspan>
<tspan fill="rgba(0,158,115,1.0)" x="3400" y="331">A</tspan>
<tspan x="3400" y="351">proved5</tspan>
<tspan x="3400" y="371">proved10</tspan>
<tspan x="3400" y="391">proved20</tspan>
<tspan x="3400" y="411">proved40</tspan>
<tspan x="3400" y="431">surveyed10</tspan>
<tspan x="3400" y="451">surveyed20</tspan>
<tspan x="3400" y="471">surveyed40</tspan>
<tspan x="3400" y="491">surveyed80</tspan>
<tspan x="3400" y="511">surveyed160</tspan>
<tspan x="3400" y="531">area10</tspan>
<tspan x="3400" y="551">area20</tspan>
<tspan x="3400" y="571">area40</tspan>
<tspan fill="rgba(0,114,178,1.0)" x="3400" y="596">B</tspan>
<tspan x="3400" y="616">proved5</tspan>
<tspan x="3400" y="636">proved10</tspan>
<tspan x="3400" y="656">proved20</tspan>
<tspan x="3400" y="676">proved40</tspan>
<tspan x="3400" y="696">proved80</tspan>
<tspan x="3400" y="716">proved160</tspan>
<tspan x="3400" y="736">surveyed10</tspan>
<tspan x="3400" y="756">surveyed20</tspan>
<tspan x="3400" y="776">surveyed40</tspan>
<tspan x="3400" y="796">surveyed80</tspan>
<tspan x="3400" y="816">surveyed160</tspan>
<tspan x="3400" y="836">surveyed320</tspan>
<tspan x="3400" y="856">inspected5</tspan>
<tspan x="3400" y="876">inspected10</tspan>
<tspan x="3400" y="896">inspected20</tspan>
<tspan x="3400" y="916">attacked5</tspan>
<tspan x="3400" y="936">attacked10</tspan>
<tspan x="3400" y="956">attacked20</tspan>
<tspan x="3400" y="976">area10</tspan>
<tspan x="3400" y="996">area20</tspan>
<tspan x="3400" y="1016">area40</tspan>
<tspan x="3400" y="1036">area80</tspan>
<tspan x="3400" y="1056">area160</tspan>
<tspan x="3400" y="1076">area320</tspan>
</text>
</g>
</g>
</svg>
