<?xml version="1.0" encoding="UTF-8"?><?xml-stylesheet type="text/css" href="style.css"?><svg xmlns="http://www.w3.org/2000/svg" xmlns:xlink="http://www.w3.org/1999/xlink" contentScriptType="text/ecmascript" zoomAndPan="magnify" contentStyleType="text/css" preserveAspectRatio="xMidYMid meet" version="1.0">
<g id="scaleSvg" transform="scale(0.25)">
<polygon class=" s5 sw2 f13" points="130,2080 184,2080 157,2116"/>
<rect x="130" width="54" y="2062" height="18" class="s13 sw2 f8"/>
<text x="150" y="2101" class="f4">28</text>
<polygon class=" s5 sw2 f13" points="1630,780 1684,780 1657,816"/>
<rect x="1630" width="54" y="762" height="18" class="s13 sw2 f8"/>
<text x="1650" y="801" class="f4">25</text>
<polygon class=" s5 sw2 f14" points="557,880 575,898 557,916 539,898"/>
<rect x="530" width="54" y="862" height="18" class="s14 sw2 f8"/>
<text x="550" y="901" class="f4">15</text>
<polygon class=" s5 sw2 f14" points="857,1480 875,1498 857,1516 839,1498"/>
<rect x="830" width="54" y="1462" height="18" class="s14 sw2 f8"/>
<text x="850" y="1501" class="f4">14</text>
<rect x="1339" width="36" y="880" height="36" class="s5 sw2 f13"/>
<rect x="1330" width="54" y="862" height="18" class="s13 sw2 f8"/>
<text x="1350" y="901" class="f4">19</text>
<rect x="1039" width="36" y="1780" height="36" class="s5 sw2 f14"/>
<rect x="1030" width="54" y="1762" height="18" class="s14 sw2 f8"/>
<text x="1050" y="1801" class="f4">22</text>
<circle r="18" class="s5 sw2 f13" cx="2057" cy="1298"/>
<rect x="2030" width="54" y="1262" height="18" class="s13 sw2 f8"/>
<text x="2050" y="1301" class="f4">1</text>
<circle r="18" class="s5 sw2 f13" cx="1757" cy="1098"/>
<rect x="1730" width="54" y="1062" height="18" class="s13 sw2 f8"/>
<text x="1750" y="1101" class="f4">3</text>
<rect x="939" width="36" y="380" height="36" class="s5 sw2 f14"/>
<rect x="930" width="54" y="362" height="18" class="s14 sw2 f8"/>
<text x="950" y="401" class="f4">17</text>
<circle r="18" class="s5 sw2 f13" cx="987" cy="371"/>
<rect x="960" width="54" y="335" height="18" class="s13 sw2 f8"/>
<text x="980" y="374" class="f4">6</text>
<polygon class=" s5 sw2 f14" points="1648,1780 1666,1780 1675,1789 1675,1807 1666,1816 1648,1816 1639,1807 1639,1789"/>
<rect x="1630" width="54" y="1762" height="18" class="s14 sw2 f8"/>
<text x="1650" y="1801" class="f4">12</text>
<polygon class=" s5 sw2 f13" points="1748,2080 1766,2080 1775,2089 1775,2107 1766,2116 1748,2116 1739,2107 1739,2089"/>
<rect x="1730" width="54" y="2062" height="18" class="s13 sw2 f8"/>
<text x="1750" y="2101" class="f4">10</text>
<polygon class=" s5 sw2 f14" points="1430,1480 1484,1480 1457,1516"/>
<rect x="1430" width="54" y="1462" height="18" class="s14 sw2 f8"/>
<text x="1450" y="1501" class="f4">26</text>
<rect x="2139" width="36" y="980" height="36" class="s5 sw2 f13"/>
<rect x="2130" width="54" y="962" height="18" class="s13 sw2 f8"/>
<text x="2150" y="1001" class="f4">21</text>
<polygon class=" s5 sw2 f14" points="648,380 666,380 675,389 675,407 666,416 648,416 639,407 639,389"/>
<rect x="630" width="54" y="362" height="18" class="s14 sw2 f8"/>
<text x="650" y="401" class="f4">9</text>
<polygon class=" s5 sw2 f14" points="530,780 584,780 557,816"/>
<rect x="530" width="54" y="762" height="18" class="s14 sw2 f8"/>
<text x="550" y="801" class="f4">25</text>
<polygon class=" s5 sw2 f13" points="1548,380 1566,380 1575,389 1575,407 1566,416 1548,416 1539,407 1539,389"/>
<rect x="1530" width="54" y="362" height="18" class="s13 sw2 f8"/>
<text x="1550" y="401" class="f4">9</text>
<circle r="18" class="s5 sw2 f13" cx="2057" cy="1098"/>
<rect x="2030" width="54" y="1062" height="18" class="s13 sw2 f8"/>
<text x="2050" y="1101" class="f4">5</text>
<polygon class=" s5 sw2 f13" points="230,1180 284,1180 257,1216"/>
<rect x="230" width="54" y="1162" height="18" class="s13 sw2 f8"/>
<text x="250" y="1201" class="f4">27</text>
<polygon class=" s5 sw2 f14" points="230,1580 284,1580 257,1616"/>
<rect x="230" width="54" y="1562" height="18" class="s14 sw2 f8"/>
<text x="250" y="1601" class="f4">24</text>
<circle r="18" class="s5 sw2 f14" cx="457" cy="1098"/>
<rect x="430" width="54" y="1062" height="18" class="s14 sw2 f8"/>
<text x="450" y="1101" class="f4">3</text>
<polygon class=" s5 sw2 f13" points="1930,1580 1984,1580 1957,1616"/>
<rect x="1930" width="54" y="1562" height="18" class="s13 sw2 f8"/>
<text x="1950" y="1601" class="f4">24</text>
<polygon class=" s5 sw2 f13" points="730,1480 784,1480 757,1516"/>
<rect x="730" width="54" y="1462" height="18" class="s13 sw2 f8"/>
<text x="750" y="1501" class="f4">26</text>
<circle r="18" class="s5 sw2 f14" cx="157" cy="1098"/>
<rect x="130" width="54" y="1062" height="18" class="s14 sw2 f8"/>
<text x="150" y="1101" class="f4">5</text>
<circle r="18" class="s5 sw2 f14" cx="1257" cy="398"/>
<rect x="1230" width="54" y="362" height="18" class="s14 sw2 f8"/>
<text x="1250" y="401" class="f4">6</text>
<rect x="1269" width="36" y="353" height="36" class="s5 sw2 f13"/>
<rect x="1260" width="54" y="335" height="18" class="s13 sw2 f8"/>
<text x="1280" y="374" class="f4">17</text>
<polygon class=" s5 sw2 f13" points="548,1780 566,1780 575,1789 575,1807 566,1816 548,1816 539,1807 539,1789"/>
<rect x="530" width="54" y="1762" height="18" class="s13 sw2 f8"/>
<text x="550" y="1801" class="f4">12</text>
<polygon class=" s5 sw2 f14" points="1930,1180 1984,1180 1957,1216"/>
<rect x="1930" width="54" y="1162" height="18" class="s14 sw2 f8"/>
<text x="1950" y="1201" class="f4">27</text>
<circle r="18" class="s5 sw2 f14" cx="1557" cy="498"/>
<rect x="1530" width="54" y="462" height="18" class="s14 sw2 f8"/>
<text x="1550" y="501" class="f4">2</text>
<polygon class=" s5 sw2 f13" points="1748,980 1766,980 1775,989 1775,1007 1766,1016 1748,1016 1739,1007 1739,989"/>
<rect x="1730" width="54" y="962" height="18" class="s13 sw2 f8"/>
<text x="1750" y="1001" class="f4">8</text>
<polygon class=" s5 sw2 f13" points="1787,953 1805,971 1787,989 1769,971"/>
<rect x="1760" width="54" y="935" height="18" class="s13 sw2 f8"/>
<text x="1780" y="974" class="f4">16</text>
<circle r="18" class="s5 sw2 f13" cx="657" cy="498"/>
<rect x="630" width="54" y="462" height="18" class="s13 sw2 f8"/>
<text x="650" y="501" class="f4">2</text>
<circle r="18" class="s5 sw2 f13" cx="57" cy="1898"/>
<rect x="30" width="54" y="1862" height="18" class="s13 sw2 f8"/>
<text x="50" y="1901" class="f4">4</text>
<polygon class=" s5 sw2 f13" points="1248,780 1266,780 1275,789 1275,807 1266,816 1248,816 1239,807 1239,789"/>
<rect x="1230" width="54" y="762" height="18" class="s13 sw2 f8"/>
<text x="1250" y="801" class="f4">11</text>
<polygon class=" s5 sw2 f13" points="1357,1480 1375,1498 1357,1516 1339,1498"/>
<rect x="1330" width="54" y="1462" height="18" class="s13 sw2 f8"/>
<text x="1350" y="1501" class="f4">14</text>
<polygon class=" s5 sw2 f14" points="448,2080 466,2080 475,2089 475,2107 466,2116 448,2116 439,2107 439,2089"/>
<rect x="430" width="54" y="2062" height="18" class="s14 sw2 f8"/>
<text x="450" y="2101" class="f4">10</text>
<rect x="1639" width="36" y="1380" height="36" class="s5 sw2 f14"/>
<rect x="1630" width="54" y="1362" height="18" class="s14 sw2 f8"/>
<text x="1650" y="1401" class="f4">20</text>
<polygon class=" s5 sw2 f13" points="1530,1580 1584,1580 1557,1616"/>
<rect x="1530" width="54" y="1562" height="18" class="s13 sw2 f8"/>
<text x="1550" y="1601" class="f4">23</text>
<rect x="1739" width="36" y="2180" height="36" class="s5 sw2 f14"/>
<rect x="1730" width="54" y="2162" height="18" class="s14 sw2 f8"/>
<text x="1750" y="2201" class="f4">18</text>
<rect x="1139" width="36" y="1780" height="36" class="s5 sw2 f13"/>
<rect x="1130" width="54" y="1762" height="18" class="s13 sw2 f8"/>
<text x="1150" y="1801" class="f4">22</text>
<polygon class=" s5 sw2 f14" points="457,480 475,498 457,516 439,498"/>
<rect x="430" width="54" y="462" height="18" class="s14 sw2 f8"/>
<text x="450" y="501" class="f4">13</text>
<rect x="39" width="36" y="980" height="36" class="s5 sw2 f14"/>
<rect x="30" width="54" y="962" height="18" class="s14 sw2 f8"/>
<text x="50" y="1001" class="f4">21</text>
<circle r="18" class="s5 sw2 f14" cx="2157" cy="1898"/>
<rect x="2130" width="54" y="1862" height="18" class="s14 sw2 f8"/>
<text x="2150" y="1901" class="f4">4</text>
<polygon class=" s5 sw2 f14" points="848,2080 866,2080 875,2089 875,2107 866,2116 848,2116 839,2107 839,2089"/>
<rect x="830" width="54" y="2062" height="18" class="s14 sw2 f8"/>
<text x="850" y="2101" class="f4">7</text>
<polygon class=" s5 sw2 f13" points="1657,880 1675,898 1657,916 1639,898"/>
<rect x="1630" width="54" y="862" height="18" class="s13 sw2 f8"/>
<text x="1650" y="901" class="f4">15</text>
<polygon class=" s5 sw2 f14" points="2030,2080 2084,2080 2057,2116"/>
<rect x="2030" width="54" y="2062" height="18" class="s14 sw2 f8"/>
<text x="2050" y="2101" class="f4">28</text>
<polygon class=" s5 sw2 f13" points="1757,480 1775,498 1757,516 1739,498"/>
<rect x="1730" width="54" y="462" height="18" class="s13 sw2 f8"/>
<text x="1750" y="501" class="f4">13</text>
<polygon class=" s5 sw2 f14" points="630,1580 684,1580 657,1616"/>
<rect x="630" width="54" y="1562" height="18" class="s14 sw2 f8"/>
<text x="650" y="1601" class="f4">23</text>
<circle r="18" class="s5 sw2 f14" cx="157" cy="1298"/>
<rect x="130" width="54" y="1262" height="18" class="s14 sw2 f8"/>
<text x="150" y="1301" class="f4">1</text>
<polygon class=" s5 sw2 f14" points="948,780 966,780 975,789 975,807 966,816 948,816 939,807 939,789"/>
<rect x="930" width="54" y="762" height="18" class="s14 sw2 f8"/>
<text x="950" y="801" class="f4">11</text>
<rect x="839" width="36" y="880" height="36" class="s5 sw2 f14"/>
<rect x="830" width="54" y="862" height="18" class="s14 sw2 f8"/>
<text x="850" y="901" class="f4">19</text>
<rect x="439" width="36" y="2180" height="36" class="s5 sw2 f13"/>
<rect x="430" width="54" y="2162" height="18" class="s13 sw2 f8"/>
<text x="450" y="2201" class="f4">18</text>
<polygon class=" s5 sw2 f14" points="448,980 466,980 475,989 475,1007 466,1016 448,1016 439,1007 439,989"/>
<rect x="430" width="54" y="962" height="18" class="s14 sw2 f8"/>
<text x="450" y="1001" class="f4">8</text>
<polygon class=" s5 sw2 f14" points="487,953 505,971 487,989 469,971"/>
<rect x="460" width="54" y="935" height="18" class="s14 sw2 f8"/>
<text x="480" y="974" class="f4">16</text>
<polygon class=" s5 sw2 f13" points="1348,2080 1366,2080 1375,2089 1375,2107 1366,2116 1348,2116 1339,2107 1339,2089"/>
<rect x="1330" width="54" y="2062" height="18" class="s13 sw2 f8"/>
<text x="1350" y="2101" class="f4">7</text>
<rect x="539" width="36" y="1380" height="36" class="s5 sw2 f13"/>
<rect x="530" width="54" y="1362" height="18" class="s13 sw2 f8"/>
<text x="550" y="1401" class="f4">20</text>
<g id="teamTable" transform="translate(-100, 150)">
<text x="2350" y="75" class="TxtNrml">Step: 0</text>
<text x="2350" y="180" class="Tb" text-anchor="start">
<tspan fill="rgba(0,158,115,1.0)" x="2350">A</tspan>
<tspan x="2750">0</tspan>
<tspan x="2950">0</tspan>
<tspan x="3150">0</tspan>
<tspan x="3350">0</tspan>
</text>
<text x="2350" y="220" class="Tb" text-anchor="start">
<tspan fill="rgba(0,114,178,1.0)" x="2350">B</tspan>
<tspan x="2750">0</tspan>
<tspan x="2950">0</tspan>
<tspan x="3150">0</tspan>
<tspan x="3350">0</tspan>
</text>
</g>
<g id="agentTable" transform="translate(-100, 150)">
<text x="2350" y="316" class="Tb2" text-anchor="start">
<tspan x="2535">35/35</tspan>
<tspan x="2650">4/4</tspan>
<tspan x="2765">0</tspan>
<tspan x="2880">2</tspan>
<tspan x="2995">skip null:successful</tspan>
</text>
<text x="2350" y="346" class="Tb2" text-anchor="start">
<tspan x="2535">35/35</tspan>
<tspan x="2650">4/4</tspan>
<tspan x="2765">0</tspan>
<tspan x="2880">2</tspan>
<tspan x="2995">skip null:successful</tspan>
</text>
<text x="2350" y="376" class="Tb2" text-anchor="start">
<tspan x="2535">35/35</tspan>
<tspan x="2650">4/4</tspan>
<tspan x="2765">0</tspan>
<tspan x="2880">2</tspan>
<tspan x="2995">skip null:successful</tspan>
</text>
<text x="2350" y="406" class="Tb2" text-anchor="start">
<tspan x="2535">35/35</tspan>
<tspan x="2650">4/4</tspan>
<tspan x="2765">0</tspan>
<tspan x="2880">2</tspan>
<tspan x="2995">skip null:successful</tspan>
</text>
<text x="2350" y="436" class="Tb2" text-anchor="start">
<tspan x="2535">35/35</tspan>
<tspan x="2650">4/4</tspan>
<tspan x="2765">0</tspan>
<tspan x="2880">2</tspan>
<tspan x="2995">skip null:successful</tspan>
</text>
<text x="2350" y="466" class="Tb2" text-anchor="start">
<tspan x="2535">35/35</tspan>
<tspan x="2650">4/4</tspan>
<tspan x="2765">0</tspan>
<tspan x="2880">2</tspan>
<tspan x="2995">skip null:successful</tspan>
</text>
<text x="2350" y="496" class="Tb2" text-anchor="start">
<tspan x="2535">25/25</tspan>
<tspan x="2650">6/6</tspan>
<tspan x="2765">0</tspan>
<tspan x="2880">1</tspan>
<tspan x="2995">skip null:successful</tspan>
</text>
<text x="2350" y="526" class="Tb2" text-anchor="start">
<tspan x="2535">25/25</tspan>
<tspan x="2650">6/6</tspan>
<tspan x="2765">0</tspan>
<tspan x="2880">1</tspan>
<tspan x="2995">skip null:successful</tspan>
</text>
<text x="2350" y="556" class="Tb2" text-anchor="start">
<tspan x="2535">25/25</tspan>
<tspan x="2650">6/6</tspan>
<tspan x="2765">0</tspan>
<tspan x="2880">1</tspan>
<tspan x="2995">skip null:successful</tspan>
</text>
<text x="2350" y="586" class="Tb2" text-anchor="start">
<tspan x="2535">25/25</tspan>
<tspan x="2650">6/6</tspan>
<tspan x="2765">0</tspan>
<tspan x="2880">1</tspan>
<tspan x="2995">skip null:successful</tspan>
</text>
<text x="2350" y="616" class="Tb2" text-anchor="start">
<tspan x="2535">25/25</tspan>
<tspan x="2650">6/6</tspan>
<tspan x="2765">0</tspan>
<tspan x="2880">1</tspan>
<tspan x="2995">skip null:successful</tspan>
</text>
<text x="2350" y="646" class="Tb2" text-anchor="start">
<tspan x="2535">25/25</tspan>
<tspan x="2650">6/6</tspan>
<tspan x="2765">0</tspan>
<tspan x="2880">1</tspan>
<tspan x="2995">skip null:successful</tspan>
</text>
<text x="2350" y="676" class="Tb2" text-anchor="start">
<tspan x="2535">20/20</tspan>
<tspan x="2650">3/3</tspan>
<tspan x="2765">3</tspan>
<tspan x="2880">1</tspan>
<tspan x="2995">skip null:successful</tspan>
</text>
<text x="2350" y="706" class="Tb2" text-anchor="start">
<tspan x="2535">20/20</tspan>
<tspan x="2650">3/3</tspan>
<tspan x="2765">3</tspan>
<tspan x="2880">1</tspan>
<tspan x="2995">skip null:successful</tspan>
</text>
<text x="2350" y="736" class="Tb2" text-anchor="start">
<tspan x="2535">20/20</tspan>
<tspan x="2650">3/3</tspan>
<tspan x="2765">3</tspan>
<tspan x="2880">1</tspan>
<tspan x="2995">skip null:successful</tspan>
</text>
<text x="2350" y="766" class="Tb2" text-anchor="start">
<tspan x="2535">20/20</tspan>
<tspan x="2650">3/3</tspan>
<tspan x="2765">3</tspan>
<tspan x="2880">1</tspan>
<tspan x="2995">skip null:successful</tspan>
</text>
<text x="2350" y="796" class="Tb2" text-anchor="start">
<tspan x="2535">30/30</tspan>
<tspan x="2650">1/1</tspan>
<tspan x="2765">0</tspan>
<tspan x="2880">3</tspan>
<tspan x="2995">skip null:successful</tspan>
</text>
<text x="2350" y="826" class="Tb2" text-anchor="start">
<tspan x="2535">30/30</tspan>
<tspan x="2650">1/1</tspan>
<tspan x="2765">0</tspan>
<tspan x="2880">3</tspan>
<tspan x="2995">skip null:successful</tspan>
</text>
<text x="2350" y="856" class="Tb2" text-anchor="start">
<tspan x="2535">30/30</tspan>
<tspan x="2650">1/1</tspan>
<tspan x="2765">0</tspan>
<tspan x="2880">3</tspan>
<tspan x="2995">skip null:successful</tspan>
</text>
<text x="2350" y="886" class="Tb2" text-anchor="start">
<tspan x="2535">30/30</tspan>
<tspan x="2650">1/1</tspan>
<tspan x="2765">0</tspan>
<tspan x="2880">3</tspan>
<tspan x="2995">skip null:successful</tspan>
</text>
<text x="2350" y="916" class="Tb2" text-anchor="start">
<tspan x="2535">30/30</tspan>
<tspan x="2650">1/1</tspan>
<tspan x="2765">0</tspan>
<tspan x="2880">3</tspan>
<tspan x="2995">skip null:successful</tspan>
</text>
<text x="2350" y="946" class="Tb2" text-anchor="start">
<tspan x="2535">30/30</tspan>
<tspan x="2650">1/1</tspan>
<tspan x="2765">0</tspan>
<tspan x="2880">3</tspan>
<tspan x="2995">skip null:successful</tspan>
</text>
<text x="2350" y="976" class="Tb2" text-anchor="start">
<tspan x="2535">25/25</tspan>
<tspan x="2650">6/6</tspan>
<tspan x="2765">0</tspan>
<tspan x="2880">1</tspan>
<tspan x="2995">skip null:successful</tspan>
</text>
<text x="2350" y="1006" class="Tb2" text-anchor="start">
<tspan x="2535">25/25</tspan>
<tspan x="2650">6/6</tspan>
<tspan x="2765">0</tspan>
<tspan x="2880">1</tspan>
<tspan x="2995">skip null:successful</tspan>
</text>
<text x="2350" y="1036" class="Tb2" text-anchor="start">
<tspan x="2535">25/25</tspan>
<tspan x="2650">6/6</tspan>
<tspan x="2765">0</tspan>
<tspan x="2880">1</tspan>
<tspan x="2995">skip null:successful</tspan>
</text>
<text x="2350" y="1066" class="Tb2" text-anchor="start">
<tspan x="2535">25/25</tspan>
<tspan x="2650">6/6</tspan>
<tspan x="2765">0</tspan>
<tspan x="2880">1</tspan>
<tspan x="2995">skip null:successful</tspan>
</text>
<text x="2350" y="1096" class="Tb2" text-anchor="start">
<tspan x="2535">25/25</tspan>
<tspan x="2650">6/6</tspan>
<tspan x="2765">0</tspan>
<tspan x="2880">1</tspan>
<tspan x="2995">skip null:successful</tspan>
</text>
<text x="2350" y="1126" class="Tb2" text-anchor="start">
<tspan x="2535">25/25</tspan>
<tspan x="2650">6/6</tspan>
<tspan x="2765">0</tspan>
<tspan x="2880">1</tspan>
<tspan x="2995">skip null:successful</tspan>
</text>
<text x="2350" y="1156" class="Tb2" text-anchor="start">
<tspan x="2535">35/35</tspan>
<tspan x="2650">4/4</tspan>
<tspan x="2765">0</tspan>
<tspan x="2880">2</tspan>
<tspan x="2995">skip null:successful</tspan>
</text>
<text x="2350" y="1186" class="Tb2" text-anchor="start">
<tspan x="2535">35/35</tspan>
<tspan x="2650">4/4</tspan>
<tspan x="2765">0</tspan>
<tspan x="2880">2</tspan>
<tspan x="2995">skip null:successful</tspan>
</text>
<text x="2350" y="1216" class="Tb2" text-anchor="start">
<tspan x="2535">35/35</tspan>
<tspan x="2650">4/4</tspan>
<tspan x="2765">0</tspan>
<tspan x="2880">2</tspan>
<tspan x="2995">skip null:successful</tspan>
</text>
<text x="2350" y="1246" class="Tb2" text-anchor="start">
<tspan x="2535">35/35</tspan>
<tspan x="2650">4/4</tspan>
<tspan x="2765">0</tspan>
<tspan x="2880">2</tspan>
<tspan x="2995">skip null:successful</tspan>
</text>
<text x="2350" y="1276" class="Tb2" text-anchor="start">
<tspan x="2535">35/35</tspan>
<tspan x="2650">4/4</tspan>
<tspan x="2765">0</tspan>
<tspan x="2880">2</tspan>
<tspan x="2995">skip null:successful</tspan>
</text>
<text x="2350" y="1306" class="Tb2" text-anchor="start">
<tspan x="2535">35/35</tspan>
<tspan x="2650">4/4</tspan>
<tspan x="2765">0</tspan>
<tspan x="2880">2</tspan>
<tspan x="2995">skip null:successful</tspan>
</text>
<text x="2350" y="1336" class="Tb2" text-anchor="start">
<tspan x="2535">25/25</tspan>
<tspan x="2650">6/6</tspan>
<tspan x="2765">0</tspan>
<tspan x="2880">1</tspan>
<tspan x="2995">skip null:successful</tspan>
</text>
<text x="2350" y="1366" class="Tb2" text-anchor="start">
<tspan x="2535">25/25</tspan>
<tspan x="2650">6/6</tspan>
<tspan x="2765">0</tspan>
<tspan x="2880">1</tspan>
<tspan x="2995">skip null:successful</tspan>
</text>
<text x="2350" y="1396" class="Tb2" text-anchor="start">
<tspan x="2535">25/25</tspan>
<tspan x="2650">6/6</tspan>
<tspan x="2765">0</tspan>
<tspan x="2880">1</tspan>
<tspan x="2995">skip null:successful</tspan>
</text>
<text x="2350" y="1426" class="Tb2" text-anchor="start">
<tspan x="2535">25/25</tspan>
<tspan x="2650">6/6</tspan>
<tspan x="2765">0</tspan>
<tspan x="2880">1</tspan>
<tspan x="2995">skip null:successful</tspan>
</text>
<text x="2350" y="1456" class="Tb2" text-anchor="start">
<tspan x="2535">25/25</tspan>
<tspan x="2650">6/6</tspan>
<tspan x="2765">0</tspan>
<tspan x="2880">1</tspan>
<tspan x="2995">skip null:successful</tspan>
</text>
<text x="2350" y="1486" class="Tb2" text-anchor="start">
<tspan x="2535">25/25</tspan>
<tspan x="2650">6/6</tspan>
<tspan x="2765">0</tspan>
<tspan x="2880">1</tspan>
<tspan x="2995">skip null:successful</tspan>
</text>
<text x="2350" y="1516" class="Tb2" text-anchor="start">
<tspan x="2535">20/20</tspan>
<tspan x="2650">3/3</tspan>
<tspan x="2765">3</tspan>
<tspan x="2880">1</tspan>
<tspan x="2995">skip null:successful</tspan>
</text>
<text x="2350" y="1546" class="Tb2" text-anchor="start">
<tspan x="2535">20/20</tspan>
<tspan x="2650">3/3</tspan>
<tspan x="2765">3</tspan>
<tspan x="2880">1</tspan>
<tspan x="2995">skip null:successful</tspan>
</text>
<text x="2350" y="1576" class="Tb2" text-anchor="start">
<tspan x="2535">20/20</tspan>
<tspan x="2650">3/3</tspan>
<tspan x="2765">3</tspan>
<tspan x="2880">1</tspan>
<tspan x="2995">skip null:successful</tspan>
</text>
<text x="2350" y="1606" class="Tb2" text-anchor="start">
<tspan x="2535">20/20</tspan>
<tspan x="2650">3/3</tspan>
<tspan x="2765">3</tspan>
<tspan x="2880">1</tspan>
<tspan x="2995">skip null:successful</tspan>
</text>
<text x="2350" y="1636" class="Tb2" text-anchor="start">
<tspan x="2535">30/30</tspan>
<tspan x="2650">1/1</tspan>
<tspan x="2765">0</tspan>
<tspan x="2880">3</tspan>
<tspan x="2995">skip null:successful</tspan>
</text>
<text x="2350" y="1666" class="Tb2" text-anchor="start">
<tspan x="2535">30/30</tspan>
<tspan x="2650">1/1</tspan>
<tspan x="2765">0</tspan>
<tspan x="2880">3</tspan>
<tspan x="2995">skip null:successful</tspan>
</text>
<text x="2350" y="1696" class="Tb2" text-anchor="start">
<tspan x="2535">30/30</tspan>
<tspan x="2650">1/1</tspan>
<tspan x="2765">0</tspan>
<tspan x="2880">3</tspan>
<tspan x="2995">skip null:successful</tspan>
</text>
<text x="2350" y="1726" class="Tb2" text-anchor="start">
<tspan x="2535">30/30</tspan>
<tspan x="2650">1/1</tspan>
<tspan x="2765">0</tspan>
<tspan x="2880">3</tspan>
<tspan x="2995">skip null:successful</tspan>
</text>
<text x="2350" y="1756" class="Tb2" text-anchor="start">
<tspan x="2535">30/30</tspan>
<tspan x="2650">1/1</tspan>
<tspan x="2765">0</tspan>
<tspan x="2880">3</tspan>
<tspan x="2995">skip null:successful</tspan>
</text>
<text x="2350" y="1786" class="Tb2" text-anchor="start">
<tspan x="2535">30/30</tspan>
<tspan x="2650">1/1</tspan>
<tspan x="2765">0</tspan>
<tspan x="2880">3</tspan>
<tspan x="2995">skip null:successful</tspan>
</text>
<text x="2350" y="1816" class="Tb2" text-anchor="start">
<tspan x="2535">25/25</tspan>
<tspan x="2650">6/6</tspan>
<tspan x="2765">0</tspan>
<tspan x="2880">1</tspan>
<tspan x="2995">skip null:successful</tspan>
</text>
<text x="2350" y="1846" class="Tb2" text-anchor="start">
<tspan x="2535">25/25</tspan>
<tspan x="2650">6/6</tspan>
<tspan x="2765">0</tspan>
<tspan x="2880">1</tspan>
<tspan x="2995">skip null:successful</tspan>
</text>
<text x="2350" y="1876" class="Tb2" text-anchor="start">
<tspan x="2535">25/25</tspan>
<tspan x="2650">6/6</tspan>
<tspan x="2765">0</tspan>
<tspan x="2880">1</tspan>
<tspan x="2995">skip null:successful</tspan>
</text>
<text x="2350" y="1906" class="Tb2" text-anchor="start">
<tspan x="2535">25/25</tspan>
<tspan x="2650">6/6</tspan>
<tspan x="2765">0</tspan>
<tspan x="2880">1</tspan>
<tspan x="2995">skip null:successful</tspan>
</text>
<text x="2350" y="1936" class="Tb2" text-anchor="start">
<tspan x="2535">25/25</tspan>
<tspan x="2650">6/6</tspan>
<tspan x="2765">0</tspan>
<tspan x="2880">1</tspan>
<tspan x="2995">skip null:successful</tspan>
</text>
<text x="2350" y="1966" class="Tb2" text-anchor="start">
<tspan x="2535">25/25</tspan>
<tspan x="2650">6/6</tspan>
<tspan x="2765">0</tspan>
<tspan x="2880">1</tspan>
<tspan x="2995">skip null:successful</tspan>
</text>
</g>
<line y2="442" x1="3290" class="s5 sw1" x2="3290" y1="1996"/>
<g id="achievementPart" transform="translate(-100, 150)">
<text x="3400" y="301" class="TxtAch">
<tspan x="3400">Achievements</tspan>
<tspan fill="rgba(0,158,115,1.0)" x="3400" y="331">A</tspan>
<tspan fill="rgba(0,114,178,1.0)" x="3400" y="356">B</tspan>
</text>
</g>
</g>
</svg>
