<?xml version="1.0" encoding="UTF-8"?><?xml-stylesheet type="text/css" href="style.css"?><svg xmlns="http://www.w3.org/2000/svg" xmlns:xlink="http://www.w3.org/1999/xlink" contentScriptType="text/ecmascript" zoomAndPan="magnify" contentStyleType="text/css" preserveAspectRatio="xMidYMid meet" version="1.0">
<defs>
<marker refX="100" refY="10" markerUnits="strokeWidth" orient="auto" class="f3" markerHeight="6" id="ar1" viewBox="0 0 20 20" markerWidth="8">
<path d="M 0 0 L 20 10 L 0 20 z"/>
</marker>
<marker refX="100" refY="10" markerUnits="strokeWidth" orient="auto" class="f0" markerHeight="6" id="ar2" viewBox="0 0 20 20" markerWidth="8">
<path d="M 0 0 L 20 10 L 0 20 z"/>
</marker>
</defs>
<g id="scaleSvg" transform="scale(0.25)">
<circle r="25" class="T1n" cx="1450" cy="1150"/>
<circle r="25" class="T1n" cx="1850" cy="150"/>
<circle r="25" class="T1n" cx="450" cy="550"/>
<circle r="25" class="T1n" cx="1950" cy="50"/>
<circle r="25" class="T1n" cx="1350" cy="1250"/>
<circle r="25" class="T1n" cx="2050" cy="50"/>
<circle r="25" class="T1n" cx="750" cy="2050"/>
<circle r="25" class="T1n" cx="350" cy="350"/>
<circle r="25" class="T1n" cx="1950" cy="150"/>
<circle r="25" class="T1n" cx="950" cy="650"/>
<circle r="25" class="T1n" cx="1250" cy="1250"/>
<circle r="25" class="T1n" cx="450" cy="450"/>
<circle r="25" class="T1n" cx="1350" cy="2050"/>
<circle r="25" class="T1n" cx="2150" cy="1050"/>
<circle r="25" class="T1n" cx="550" cy="1850"/>
<circle r="25" class="T1n" cx="2150" cy="50"/>
<circle r="25" class="T1n" cx="950" cy="1650"/>
<circle r="25" class="T1n" cx="650" cy="1950"/>
<circle r="25" class="T1n" cx="550" cy="1550"/>
<circle r="25" class="T1n" cx="1050" cy="1550"/>
<line y2="350" x1="450" class="T1e" x2="350" y1="450"/>
<line y2="1550" x1="950" class="T1e" x2="1050" y1="1650"/>
<line y2="1850" x1="650" class="T1e" x2="550" y1="1950"/>
<line y2="2050" x1="650" class="T1e" x2="750" y1="1950"/>
<line y2="550" x1="450" class="T1e" x2="450" y1="450"/>
<line y2="150" x1="1950" class="T1e" x2="1850" y1="50"/>
<line y2="1150" x1="1350" class="T1e" x2="1450" y1="1250"/>
<line y2="50" x1="2050" class="T1e" x2="1950" y1="50"/>
<line y2="50" x1="2050" class="T1e" x2="2150" y1="50"/>
<line y2="150" x1="1950" class="T1e" x2="1850" y1="150"/>
<line y2="1250" x1="1250" class="T1e" x2="1350" y1="1250"/>
<circle r="5" class="N" cx="1450" cy="1150"/>
<circle r="9" class="N" cx="1850" cy="150"/>
<circle r="6" class="N" cx="450" cy="550"/>
<circle r="12" class="N" cx="1950" cy="50"/>
<circle r="6" class="N" cx="1350" cy="1250"/>
<circle r="18" class="N" cx="2050" cy="50"/>
<circle r="9" class="N" cx="750" cy="2050"/>
<circle r="6" class="N" cx="350" cy="350"/>
<circle r="9" class="N" cx="1950" cy="150"/>
<circle r="11" class="N" cx="950" cy="650"/>
<circle r="9" class="N" cx="1250" cy="1250"/>
<circle r="6" class="N" cx="450" cy="450"/>
<circle r="6" class="N" cx="1350" cy="2050"/>
<circle r="9" class="N" cx="2150" cy="1050"/>
<circle r="11" class="N" cx="550" cy="1850"/>
<circle r="18" class="N" cx="2150" cy="50"/>
<circle r="6" class="N" cx="950" cy="1650"/>
<circle r="18" class="N" cx="650" cy="1950"/>
<circle r="6" class="N" cx="550" cy="1550"/>
<circle r="5" class="N" cx="1050" cy="1550"/>
<line y2="350" x1="450" class="E sw11" x2="350" y1="450"/>
<line y2="1550" x1="950" class="E sw5" x2="1050" y1="1650"/>
<line y2="1850" x1="650" class="E sw6" x2="550" y1="1950"/>
<line y2="2050" x1="650" class="E sw6" x2="750" y1="1950"/>
<line y2="550" x1="450" class="E sw8" x2="450" y1="450"/>
<line y2="150" x1="1950" class="E sw9" x2="1850" y1="50"/>
<line y2="1150" x1="1350" class="E sw7" x2="1450" y1="1250"/>
<line y2="50" x1="2050" class="E sw11" x2="1950" y1="50"/>
<line y2="50" x1="2050" class="E sw8" x2="2150" y1="50"/>
<line y2="150" x1="1950" class="E sw9" x2="1850" y1="150"/>
<line y2="1250" x1="1250" class="E sw8" x2="1350" y1="1250"/>
<polygon class="T2" points="1750,850 1550,950 1550,850 "/>
<polygon class="T2" points="1550,950 1450,850 1550,850 "/>
<polygon class="T2" points="1550,950 1650,1050 1550,1150 1550,1050 "/>
<polygon class="T2" points="1550,950 1750,850 1550,950 1450,850 1550,850 "/>
<polygon class="T2" points="1750,850 1550,850 1750,850 1550,950 1550,850 "/>
<polygon class="T2" points="1650,1050 1550,950 1450,850 1550,850 1550,950 "/>
<polygon class="T2" points="1450,850 1550,950 1450,850 1550,850 1550,950 "/>
<polygon class="T2" points="1550,850 1450,850 1550,850 1750,850 1550,950 "/>
<polygon class="T2" points="1550,950 1550,1050 1550,950 1450,850 1550,850 "/>
<polygon class="T2" points="1550,1150 1550,1350 1550,1150 1550,1050 1550,950 1650,1050 "/>
<polygon class="T2" points="1550,1150 1650,1050 1550,1150 1550,1050 1550,950 1650,1050 "/>
<polygon class="T2" points="1550,1050 1550,1150 1550,1050 1550,950 1650,1050 1550,1150 "/>
<circle r="25" class="T2n" cx="1050" cy="350"/>
<circle r="25" class="T2n" cx="650" cy="50"/>
<circle r="25" class="T2n" cx="1050" cy="2150"/>
<circle r="25" class="T2n" cx="1450" cy="850"/>
<circle r="25" class="T2n" cx="1950" cy="250"/>
<circle r="25" class="T2n" cx="1550" cy="950"/>
<circle r="25" class="T2n" cx="1550" cy="1350"/>
<circle r="25" class="T2n" cx="2050" cy="1250"/>
<circle r="25" class="T2n" cx="1550" cy="850"/>
<circle r="25" class="T2n" cx="1250" cy="950"/>
<circle r="25" class="T2n" cx="950" cy="350"/>
<circle r="25" class="T2n" cx="1450" cy="1350"/>
<circle r="25" class="T2n" cx="950" cy="1750"/>
<circle r="25" class="T2n" cx="1750" cy="850"/>
<circle r="25" class="T2n" cx="950" cy="150"/>
<circle r="25" class="T2n" cx="1450" cy="2050"/>
<circle r="25" class="T2n" cx="1550" cy="1050"/>
<circle r="25" class="T2n" cx="1150" cy="1550"/>
<circle r="25" class="T2n" cx="1550" cy="1150"/>
<circle r="25" class="T2n" cx="1350" cy="1150"/>
<circle r="25" class="T2n" cx="750" cy="750"/>
<circle r="25" class="T2n" cx="1350" cy="1050"/>
<circle r="25" class="T2n" cx="450" cy="1450"/>
<circle r="25" class="T2n" cx="250" cy="250"/>
<circle r="25" class="T2n" cx="1650" cy="1050"/>
<line y2="350" x1="950" class="T2e" x2="950" y1="150"/>
<line y2="350" x1="1050" class="T2e" x2="950" y1="350"/>
<line y2="850" x1="1550" class="T2e" x2="1750" y1="950"/>
<line y2="850" x1="1550" class="T2e" x2="1750" y1="850"/>
<line y2="1350" x1="1550" class="T2e" x2="1550" y1="1150"/>
<line y2="950" x1="1650" class="T2e" x2="1550" y1="1050"/>
<line y2="1150" x1="1650" class="T2e" x2="1550" y1="1050"/>
<line y2="950" x1="1350" class="T2e" x2="1250" y1="1050"/>
<line y2="950" x1="1450" class="T2e" x2="1550" y1="850"/>
<line y2="1350" x1="1450" class="T2e" x2="1550" y1="1350"/>
<line y2="850" x1="1550" class="T2e" x2="1450" y1="850"/>
<line y2="950" x1="1550" class="T2e" x2="1550" y1="850"/>
<line y2="1150" x1="1350" class="T2e" x2="1350" y1="1050"/>
<line y2="1050" x1="1550" class="T2e" x2="1550" y1="950"/>
<line y2="1050" x1="1550" class="T2e" x2="1550" y1="1150"/>
<circle r="15" class="N" cx="1050" cy="350"/>
<circle r="5" class="N" cx="650" cy="50"/>
<circle r="5" class="N" cx="1050" cy="2150"/>
<circle r="6" class="N" cx="1450" cy="850"/>
<circle r="12" class="N" cx="1950" cy="250"/>
<circle r="5" class="N" cx="1550" cy="950"/>
<circle r="5" class="N" cx="1550" cy="1350"/>
<circle r="6" class="N" cx="2050" cy="1250"/>
<circle r="5" class="N" cx="1550" cy="850"/>
<circle r="8" class="N" cx="1250" cy="950"/>
<circle r="18" class="N" cx="950" cy="350"/>
<circle r="5" class="N" cx="1450" cy="1350"/>
<circle r="5" class="N" cx="950" cy="1750"/>
<circle r="5" class="N" cx="1750" cy="850"/>
<circle r="11" class="N" cx="950" cy="150"/>
<circle r="9" class="N" cx="1450" cy="2050"/>
<circle r="5" class="N" cx="1550" cy="1050"/>
<circle r="5" class="N" cx="1150" cy="1550"/>
<circle r="5" class="N" cx="1550" cy="1150"/>
<circle r="8" class="N" cx="1350" cy="1150"/>
<circle r="11" class="N" cx="750" cy="750"/>
<circle r="6" class="N" cx="1350" cy="1050"/>
<circle r="5" class="N" cx="450" cy="1450"/>
<circle r="12" class="N" cx="250" cy="250"/>
<circle r="5" class="N" cx="1650" cy="1050"/>
<line y2="350" x1="950" class="E sw11" x2="950" y1="150"/>
<line y2="350" x1="1050" class="E sw10" x2="950" y1="350"/>
<line y2="850" x1="1550" class="E sw10" x2="1750" y1="950"/>
<line y2="850" x1="1550" class="E sw3" x2="1750" y1="850"/>
<line y2="1350" x1="1550" class="E sw10" x2="1550" y1="1150"/>
<line y2="950" x1="1650" class="E sw9" x2="1550" y1="1050"/>
<line y2="1150" x1="1650" class="E sw5" x2="1550" y1="1050"/>
<line y2="950" x1="1350" class="E sw10" x2="1250" y1="1050"/>
<line y2="950" x1="1450" class="E sw3" x2="1550" y1="850"/>
<line y2="1350" x1="1450" class="E sw6" x2="1550" y1="1350"/>
<line y2="850" x1="1550" class="E sw3" x2="1450" y1="850"/>
<line y2="950" x1="1550" class="E sw3" x2="1550" y1="850"/>
<line y2="1150" x1="1350" class="E sw7" x2="1350" y1="1050"/>
<line y2="1050" x1="1550" class="E sw8" x2="1550" y1="950"/>
<line y2="1050" x1="1550" class="E sw9" x2="1550" y1="1150"/>
<polygon class=" s5 sw2 f14" points="1430,1180 1484,1180 1457,1216"/>
<rect x="1430" width="54" y="1162" height="18" class="s14 sw2 f8"/>
<text x="1450" y="1201" class="f4">27</text>
<circle stroke-width="0" r="3" class="s4 f4" cx="1466" cy="1165"/>
<circle stroke-width="0" r="3" class="s4 f4" cx="1466" cy="1177"/>
<circle stroke-width="0" r="3" class="s4 f4" cx="1457" cy="1171"/>
<circle stroke-width="0" r="3" class="s4 f4" cx="1475" cy="1171"/>
<line y2="1171" x1="1460" class="s4 sw1" x2="1472" y1="1171"/>
<line y2="1174" x1="1466" class="s4 sw1" x2="1466" y1="1168"/>
<polygon class=" s5 sw2 f14" points="1830,180 1884,180 1857,216"/>
<rect x="1830" width="54" y="162" height="18" class="s14 sw2 f8"/>
<text x="1850" y="201" class="f4">24</text>
<circle stroke-width="0" r="3" class="s4 f4" cx="1866" cy="165"/>
<circle stroke-width="0" r="3" class="s4 f4" cx="1866" cy="177"/>
<circle stroke-width="0" r="3" class="s4 f4" cx="1857" cy="171"/>
<circle stroke-width="0" r="3" class="s4 f4" cx="1875" cy="171"/>
<line y2="171" x1="1860" class="s4 sw1" x2="1872" y1="171"/>
<line y2="174" x1="1866" class="s4 sw1" x2="1866" y1="168"/>
<polygon class=" s5 sw2 f14" points="1057,1380 1075,1398 1057,1416 1039,1398"/>
<line y2="1416" x1="1039" class="s7 sw6" x2="1075" y1="1380"/>
<line y2="1416" x1="1075" class="s7 sw6" x2="1039" y1="1380"/>
<rect x="1030" width="54" y="1362" height="18" class="s14 sw2 f8"/>
<text x="1050" y="1401" class="f4">16</text>
<circle stroke-width="0" r="3" class="s4 f4" cx="1066" cy="1365"/>
<circle stroke-width="0" r="3" class="s4 f4" cx="1066" cy="1377"/>
<circle stroke-width="0" r="3" class="s4 f4" cx="1057" cy="1371"/>
<circle stroke-width="0" r="3" class="s4 f4" cx="1075" cy="1371"/>
<line y2="1371" x1="1060" class="s4 sw1" x2="1072" y1="1371"/>
<line y2="1374" x1="1066" class="s4 sw1" x2="1066" y1="1368"/>
<polygon class=" s5 sw2 f14" points="430,580 484,580 457,616"/>
<rect x="430" width="54" y="562" height="18" class="s14 sw2 f8"/>
<text x="450" y="601" class="f4">26</text>
<polygon stroke-width="0" class=" s4 f4" points="466,562 466,568 472,568 460,580 460,574 454,574"/>
<polygon class=" s5 sw2 f13" points="1048,380 1066,380 1075,389 1075,407 1066,416 1048,416 1039,407 1039,389"/>
<rect x="1030" width="54" y="362" height="18" class="s13 sw2 f8"/>
<text x="1050" y="401" class="f4">9</text>
<circle stroke-width="0" r="3" class="s4 f4" cx="1066" cy="365"/>
<circle stroke-width="0" r="3" class="s4 f4" cx="1066" cy="377"/>
<circle stroke-width="0" r="3" class="s4 f4" cx="1057" cy="371"/>
<circle stroke-width="0" r="3" class="s4 f4" cx="1075" cy="371"/>
<line y2="371" x1="1060" class="s4 sw1" x2="1072" y1="371"/>
<line y2="374" x1="1066" class="s4 sw1" x2="1066" y1="368"/>
<circle r="18" class="s5 sw2 f13" cx="657" cy="98"/>
<rect x="630" width="54" y="62" height="18" class="s13 sw2 f7"/>
<text x="650" y="101" class="f4">3</text>
<circle stroke-width="0" r="3" class="s4 f4" cx="666" cy="65"/>
<circle stroke-width="0" r="3" class="s4 f4" cx="666" cy="77"/>
<circle stroke-width="0" r="3" class="s4 f4" cx="657" cy="71"/>
<circle stroke-width="0" r="3" class="s4 f4" cx="675" cy="71"/>
<line y2="71" x1="660" class="s4 sw1" x2="672" y1="71"/>
<line y2="74" x1="666" class="s4 sw1" x2="666" y1="68"/>
<circle r="18" class="s5 sw2 f13" cx="1057" cy="2198"/>
<rect x="1030" width="54" y="2162" height="18" class="s13 sw2 f8"/>
<text x="1050" y="2201" class="f4">2</text>
<circle stroke-width="0" r="3" class="s4 f4" cx="1066" cy="2165"/>
<circle stroke-width="0" r="3" class="s4 f4" cx="1066" cy="2177"/>
<circle stroke-width="0" r="3" class="s4 f4" cx="1057" cy="2171"/>
<circle stroke-width="0" r="3" class="s4 f4" cx="1075" cy="2171"/>
<line y2="2171" x1="1060" class="s4 sw1" x2="1072" y1="2171"/>
<line y2="2174" x1="1066" class="s4 sw1" x2="1066" y1="2168"/>
<polygon class=" s5 sw2 f13" points="1930,280 1984,280 1957,316"/>
<rect x="1930" width="54" y="262" height="18" class="s13 sw2 f8"/>
<text x="1950" y="301" class="f4">26</text>
<circle stroke-width="0" r="3" class="s4 f4" cx="1966" cy="265"/>
<circle stroke-width="0" r="3" class="s4 f4" cx="1966" cy="277"/>
<circle stroke-width="0" r="3" class="s4 f4" cx="1957" cy="271"/>
<circle stroke-width="0" r="3" class="s4 f4" cx="1975" cy="271"/>
<line y2="271" x1="1960" class="s4 sw1" x2="1972" y1="271"/>
<line y2="274" x1="1966" class="s4 sw1" x2="1966" y1="268"/>
<rect x="739" width="36" y="2080" height="36" class="s5 sw2 f14"/>
<rect x="730" width="54" y="2062" height="18" class="s14 sw2 f8"/>
<text x="750" y="2101" class="f4">21</text>
<circle stroke-width="0" r="3" class="s4 f4" cx="766" cy="2065"/>
<circle stroke-width="0" r="3" class="s4 f4" cx="766" cy="2077"/>
<circle stroke-width="0" r="3" class="s4 f4" cx="757" cy="2071"/>
<circle stroke-width="0" r="3" class="s4 f4" cx="775" cy="2071"/>
<line y2="2071" x1="760" class="s4 sw1" x2="772" y1="2071"/>
<line y2="2074" x1="766" class="s4 sw1" x2="766" y1="2068"/>
<rect x="1539" width="36" y="980" height="36" class="s5 sw2 f13"/>
<rect x="1530" width="54" y="962" height="18" class="s13 sw2 f8"/>
<text x="1550" y="1001" class="f4">18</text>
<circle r="6" class="s4 sw1 f8" cx="1554" cy="974"/>
<circle r="6" class="s4 sw1 f8" cx="1572" cy="974"/>
<line y2="974" x1="1560" class="s4 sw1" x2="1566" y1="974"/>
<line y2="962" x1="1548" class="s4 sw1" x2="1560" y1="974"/>
<line y2="962" x1="1578" class="s4 sw1" x2="1584" y1="974"/>
<polygon class=" s5 sw2 f13" points="1578,953 1596,953 1605,962 1605,980 1596,989 1578,989 1569,980 1569,962"/>
<rect x="1560" width="54" y="935" height="18" class="s13 sw2 f8"/>
<text x="1580" y="974" class="f4">12</text>
<circle stroke-width="0" r="3" class="s4 f4" cx="1596" cy="938"/>
<circle stroke-width="0" r="3" class="s4 f4" cx="1596" cy="950"/>
<circle stroke-width="0" r="3" class="s4 f4" cx="1587" cy="944"/>
<circle stroke-width="0" r="3" class="s4 f4" cx="1605" cy="944"/>
<line y2="944" x1="1590" class="s4 sw1" x2="1602" y1="944"/>
<line y2="947" x1="1596" class="s4 sw1" x2="1596" y1="941"/>
<rect x="2039" width="36" y="1280" height="36" class="s5 sw2 f13"/>
<rect x="2030" width="54" y="1262" height="18" class="s13 sw2 f8"/>
<text x="2050" y="1301" class="f4">21</text>
<circle stroke-width="0" r="3" class="s4 f4" cx="2066" cy="1265"/>
<circle stroke-width="0" r="3" class="s4 f4" cx="2066" cy="1277"/>
<circle stroke-width="0" r="3" class="s4 f4" cx="2057" cy="1271"/>
<circle stroke-width="0" r="3" class="s4 f4" cx="2075" cy="1271"/>
<line y2="1271" x1="2060" class="s4 sw1" x2="2072" y1="1271"/>
<line y2="1274" x1="2066" class="s4 sw1" x2="2066" y1="1268"/>
<polygon class=" s5 sw2 f14" points="1048,1780 1066,1780 1075,1789 1075,1807 1066,1816 1048,1816 1039,1807 1039,1789"/>
<rect x="1030" width="54" y="1762" height="18" class="s14 sw2 f8"/>
<text x="1050" y="1801" class="f4">10</text>
<polygon stroke-width="0" class=" s4 f4" points="1066,1762 1066,1768 1072,1768 1060,1780 1060,1774 1054,1774"/>
<rect x="1069" width="36" y="1753" height="36" class="s5 sw2 f13"/>
<rect x="1060" width="54" y="1735" height="18" class="s13 sw2 f8"/>
<text x="1080" y="1774" class="f4">17</text>
<circle stroke-width="0" r="3" class="s4 f4" cx="1096" cy="1738"/>
<circle stroke-width="0" r="3" class="s4 f4" cx="1096" cy="1750"/>
<circle stroke-width="0" r="3" class="s4 f4" cx="1087" cy="1744"/>
<circle stroke-width="0" r="3" class="s4 f4" cx="1105" cy="1744"/>
<line y2="1744" x1="1090" class="s4 sw1" x2="1102" y1="1744"/>
<line y2="1747" x1="1096" class="s4 sw1" x2="1096" y1="1741"/>
<rect x="339" width="36" y="380" height="36" class="s5 sw2 f14"/>
<rect x="330" width="54" y="362" height="18" class="s14 sw2 f8"/>
<text x="350" y="401" class="f4">18</text>
<polygon stroke-width="0" class=" s4 f4" points="366,362 366,368 372,368 360,380 360,374 354,374"/>
<polygon class=" s5 sw2 f14" points="948,680 966,680 975,689 975,707 966,716 948,716 939,707 939,689"/>
<rect x="930" width="54" y="662" height="18" class="s14 sw2 f8"/>
<text x="950" y="701" class="f4">12</text>
<polygon stroke-width="0" class=" s4 f4" points="966,662 966,668 972,668 960,680 960,674 954,674"/>
<rect x="1539" width="36" y="880" height="36" class="s5 sw2 f13"/>
<rect x="1530" width="54" y="862" height="18" class="s13 sw2 f8"/>
<text x="1550" y="901" class="f4">19</text>
<circle stroke-width="0" r="3" class="s4 f4" cx="1566" cy="865"/>
<circle stroke-width="0" r="3" class="s4 f4" cx="1566" cy="877"/>
<circle stroke-width="0" r="3" class="s4 f4" cx="1557" cy="871"/>
<circle stroke-width="0" r="3" class="s4 f4" cx="1575" cy="871"/>
<line y2="871" x1="1560" class="s4 sw1" x2="1572" y1="871"/>
<line y2="874" x1="1566" class="s4 sw1" x2="1566" y1="868"/>
<circle r="18" class="s5 sw2 f13" cx="1257" cy="998"/>
<rect x="1230" width="54" y="962" height="18" class="s13 sw2 f8"/>
<text x="1250" y="1001" class="f4">4</text>
<polygon stroke-width="0" class=" s4 f4" points="1257,962 1275,962 1266,980"/>
<circle r="18" class="s5 sw2 f14" cx="1257" cy="1298"/>
<rect x="1230" width="54" y="1262" height="18" class="s14 sw2 f8"/>
<text x="1250" y="1301" class="f4">4</text>
<polygon stroke-width="0" class=" s4 f4" points="1266,1262 1266,1268 1272,1268 1260,1280 1260,1274 1254,1274"/>
<polygon class=" s5 sw2 f13" points="1278,1253 1296,1253 1305,1262 1305,1280 1296,1289 1278,1289 1269,1280 1269,1262"/>
<rect x="1260" width="54" y="1235" height="18" class="s13 sw2 f8"/>
<text x="1280" y="1274" class="f4">7</text>
<circle stroke-width="0" r="3" class="s4 f4" cx="1296" cy="1238"/>
<circle stroke-width="0" r="3" class="s4 f4" cx="1296" cy="1250"/>
<circle stroke-width="0" r="3" class="s4 f4" cx="1287" cy="1244"/>
<circle stroke-width="0" r="3" class="s4 f4" cx="1305" cy="1244"/>
<line y2="1244" x1="1290" class="s4 sw1" x2="1302" y1="1244"/>
<line y2="1247" x1="1296" class="s4 sw1" x2="1296" y1="1241"/>
<polygon class=" s5 sw2 f14" points="1271,1215 1289,1215 1298,1224 1298,1242 1289,1251 1271,1251 1262,1242 1262,1224"/>
<rect x="1253" width="54" y="1197" height="18" class="s14 sw2 f8"/>
<text x="1273" y="1236" class="f4">7</text>
<circle stroke-width="0" r="3" class="s4 f4" cx="1289" cy="1200"/>
<circle stroke-width="0" r="3" class="s4 f4" cx="1289" cy="1212"/>
<circle stroke-width="0" r="3" class="s4 f4" cx="1280" cy="1206"/>
<circle stroke-width="0" r="3" class="s4 f4" cx="1298" cy="1206"/>
<line y2="1206" x1="1283" class="s4 sw1" x2="1295" y1="1206"/>
<line y2="1209" x1="1289" class="s4 sw1" x2="1289" y1="1203"/>
<circle r="18" class="s5 sw2 f14" cx="1357" cy="2098"/>
<rect x="1330" width="54" y="2062" height="18" class="s14 sw2 f8"/>
<text x="1350" y="2101" class="f4">1</text>
<polygon stroke-width="0" class=" s4 f4" points="1357,2062 1375,2062 1366,2080"/>
<circle r="18" class="s5 sw2 f14" cx="2157" cy="1098"/>
<rect x="2130" width="54" y="1062" height="18" class="s14 sw2 f8"/>
<text x="2150" y="1101" class="f4">6</text>
<polygon stroke-width="0" class=" s4 f4" points="2166,1062 2166,1068 2172,1068 2160,1080 2160,1074 2154,1074"/>
<polygon class=" s5 sw2 f14" points="1548,780 1566,780 1575,789 1575,807 1566,816 1548,816 1539,807 1539,789"/>
<rect x="1530" width="54" y="762" height="18" class="s14 sw2 f8"/>
<text x="1550" y="801" class="f4">11</text>
<polygon stroke-width="0" class=" s4 f4" points="1557,762 1575,762 1575,774 1566,780 1557,774"/>
<polygon class=" s5 sw2 f14" points="1587,753 1605,771 1587,789 1569,771"/>
<line y2="789" x1="1569" class="s7 sw6" x2="1605" y1="753"/>
<line y2="789" x1="1605" class="s7 sw6" x2="1569" y1="753"/>
<rect x="1560" width="54" y="735" height="18" class="s14 sw2 f8"/>
<text x="1580" y="774" class="f4">15</text>
<polygon stroke-width="0" class=" s4 f4" points="1596,735 1596,741 1602,741 1590,753 1590,747 1584,747"/>
<rect x="1562" width="36" y="715" height="36" class="s5 sw2 f14"/>
<line y2="751" x1="1562" class="s7 sw6" x2="1598" y1="715"/>
<line y2="751" x1="1598" class="s7 sw6" x2="1562" y1="715"/>
<rect x="1553" width="54" y="697" height="18" class="s14 sw2 f8"/>
<text x="1573" y="736" class="f4">20</text>
<polygon stroke-width="0" class=" s4 f4" points="1589,697 1589,703 1595,703 1583,715 1583,709 1577,709"/>
<circle r="18" class="s5 sw2 f14" cx="1543" cy="720"/>
<line y2="738" x1="1525" class="s7 sw6" x2="1561" y1="702"/>
<line y2="738" x1="1561" class="s7 sw6" x2="1525" y1="702"/>
<rect x="1516" width="54" y="684" height="18" class="s14 sw2 f8"/>
<text x="1536" y="723" class="f4">3</text>
<polygon stroke-width="0" class=" s4 f4" points="1552,684 1552,690 1558,690 1546,702 1546,696 1540,696"/>
<rect x="1495" width="36" y="729" height="36" class="s5 sw2 f13"/>
<rect x="1486" width="54" y="711" height="18" class="s13 sw2 f8"/>
<text x="1506" y="750" class="f4">22</text>
<polygon stroke-width="0" class=" s4 f4" points="1522,711 1522,717 1528,717 1516,729 1516,723 1510,723"/>
<polygon class=" s5 sw2 f14" points="530,1880 584,1880 557,1916"/>
<rect x="530" width="54" y="1862" height="18" class="s14 sw2 f8"/>
<text x="550" y="1901" class="f4">25</text>
<circle stroke-width="0" r="3" class="s4 f4" cx="566" cy="1865"/>
<circle stroke-width="0" r="3" class="s4 f4" cx="566" cy="1877"/>
<circle stroke-width="0" r="3" class="s4 f4" cx="557" cy="1871"/>
<circle stroke-width="0" r="3" class="s4 f4" cx="575" cy="1871"/>
<line y2="1871" x1="560" class="s4 sw1" x2="572" y1="1871"/>
<line y2="1874" x1="566" class="s4 sw1" x2="566" y1="1868"/>
<polygon class=" s5 sw2 f13" points="1430,1380 1484,1380 1457,1416"/>
<rect x="1430" width="54" y="1362" height="18" class="s13 sw2 f8"/>
<text x="1450" y="1401" class="f4">25</text>
<circle stroke-width="0" r="3" class="s4 f4" cx="1466" cy="1365"/>
<circle stroke-width="0" r="3" class="s4 f4" cx="1466" cy="1377"/>
<circle stroke-width="0" r="3" class="s4 f4" cx="1457" cy="1371"/>
<circle stroke-width="0" r="3" class="s4 f4" cx="1475" cy="1371"/>
<line y2="1371" x1="1460" class="s4 sw1" x2="1472" y1="1371"/>
<line y2="1374" x1="1466" class="s4 sw1" x2="1466" y1="1368"/>
<polygon class=" s5 sw2 f13" points="1460,1353 1514,1353 1487,1389"/>
<rect x="1460" width="54" y="1335" height="18" class="s13 sw2 f8"/>
<text x="1480" y="1374" class="f4">27</text>
<circle stroke-width="0" r="3" class="s4 f4" cx="1496" cy="1338"/>
<circle stroke-width="0" r="3" class="s4 f4" cx="1496" cy="1350"/>
<circle stroke-width="0" r="3" class="s4 f4" cx="1487" cy="1344"/>
<circle stroke-width="0" r="3" class="s4 f4" cx="1505" cy="1344"/>
<line y2="1344" x1="1490" class="s4 sw1" x2="1502" y1="1344"/>
<line y2="1347" x1="1496" class="s4 sw1" x2="1496" y1="1341"/>
<polygon class=" s5 sw2 f14" points="1348,880 1366,880 1375,889 1375,907 1366,916 1348,916 1339,907 1339,889"/>
<rect x="1330" width="54" y="862" height="18" class="s14 sw2 f7"/>
<text x="1350" y="901" class="f4">9</text>
<polygon stroke-width="0" class=" s4 f4" points="1354,862 1366,862 1366,868 1384,868 1384,874 1366,874 1366,880 1354,880 1354,874 1360,874 1360,868 1354,868"/>
<polygon class=" s5 sw2 f13" points="1360,853 1414,853 1387,889"/>
<rect x="1360" width="54" y="835" height="18" class="s13 sw2 f8"/>
<text x="1380" y="874" class="f4">28</text>
<circle stroke-width="0" r="3" class="s4 f4" cx="1396" cy="838"/>
<circle stroke-width="0" r="3" class="s4 f4" cx="1396" cy="850"/>
<circle stroke-width="0" r="3" class="s4 f4" cx="1387" cy="844"/>
<circle stroke-width="0" r="3" class="s4 f4" cx="1405" cy="844"/>
<line y2="844" x1="1390" class="s4 sw1" x2="1402" y1="844"/>
<line y2="847" x1="1396" class="s4 sw1" x2="1396" y1="841"/>
<polygon class=" s5 sw2 f14" points="748,580 766,580 775,589 775,607 766,616 748,616 739,607 739,589"/>
<rect x="730" width="54" y="562" height="18" class="s14 sw2 f8"/>
<text x="750" y="601" class="f4">8</text>
<polygon stroke-width="0" class=" s4 f4" points="766,562 766,568 772,568 760,580 760,574 754,574"/>
<polygon class=" s5 sw2 f13" points="787,553 805,571 787,589 769,571"/>
<rect x="760" width="54" y="535" height="18" class="s13 sw2 f8"/>
<text x="780" y="574" class="f4">15</text>
<polygon stroke-width="0" class=" s4 f4" points="796,535 796,541 802,541 790,553 790,547 784,547"/>
<rect x="762" width="36" y="515" height="36" class="s5 sw2 f14"/>
<line y2="551" x1="762" class="s7 sw6" x2="798" y1="515"/>
<line y2="551" x1="798" class="s7 sw6" x2="762" y1="515"/>
<rect x="753" width="54" y="497" height="18" class="s14 sw2 f8"/>
<text x="773" y="536" class="f4">22</text>
<circle stroke-width="0" r="3" class="s4 f4" cx="789" cy="500"/>
<circle stroke-width="0" r="3" class="s4 f4" cx="789" cy="512"/>
<circle stroke-width="0" r="3" class="s4 f4" cx="780" cy="506"/>
<circle stroke-width="0" r="3" class="s4 f4" cx="798" cy="506"/>
<line y2="506" x1="783" class="s4 sw1" x2="795" y1="506"/>
<line y2="509" x1="789" class="s4 sw1" x2="789" y1="503"/>
<circle r="18" class="s5 sw2 f13" cx="957" cy="1798"/>
<rect x="930" width="54" y="1762" height="18" class="s13 sw2 f8"/>
<text x="950" y="1801" class="f4">1</text>
<polygon stroke-width="0" class=" s4 f4" points="957,1762 975,1762 966,1780"/>
<rect x="939" width="36" y="180" height="36" class="s5 sw2 f13"/>
<rect x="930" width="54" y="162" height="18" class="s13 sw2 f8"/>
<text x="950" y="201" class="f4">20</text>
<circle stroke-width="0" r="3" class="s4 f4" cx="966" cy="165"/>
<circle stroke-width="0" r="3" class="s4 f4" cx="966" cy="177"/>
<circle stroke-width="0" r="3" class="s4 f4" cx="957" cy="171"/>
<circle stroke-width="0" r="3" class="s4 f4" cx="975" cy="171"/>
<line y2="171" x1="960" class="s4 sw1" x2="972" y1="171"/>
<line y2="174" x1="966" class="s4 sw1" x2="966" y1="168"/>
<circle r="18" class="s5 sw2 f13" cx="1457" cy="2098"/>
<rect x="1430" width="54" y="2062" height="18" class="s13 sw2 f8"/>
<text x="1450" y="2101" class="f4">5</text>
<polygon stroke-width="0" class=" s4 f4" points="1457,2062 1475,2062 1466,2080"/>
<polygon class=" s5 sw2 f13" points="930,1680 984,1680 957,1716"/>
<rect x="930" width="54" y="1662" height="18" class="s13 sw2 f8"/>
<text x="950" y="1701" class="f4">23</text>
<line y2="1674" x1="960" class="s4 sw3" x2="972" y1="1668"/>
<circle stroke-width="0" r="6" class="s4 f4" cx="960" cy="1668"/>
<circle r="18" class="s5 sw2 f14" cx="987" cy="1671"/>
<rect x="960" width="54" y="1635" height="18" class="s14 sw2 f8"/>
<text x="980" y="1674" class="f4">5</text>
<circle stroke-width="0" r="3" class="s4 f4" cx="996" cy="1638"/>
<circle stroke-width="0" r="3" class="s4 f4" cx="996" cy="1650"/>
<circle stroke-width="0" r="3" class="s4 f4" cx="987" cy="1644"/>
<circle stroke-width="0" r="3" class="s4 f4" cx="1005" cy="1644"/>
<line y2="1644" x1="990" class="s4 sw1" x2="1002" y1="1644"/>
<line y2="1647" x1="996" class="s4 sw1" x2="996" y1="1641"/>
<polygon class=" s5 sw2 f14" points="953,1615 1007,1615 980,1651"/>
<rect x="953" width="54" y="1597" height="18" class="s14 sw2 f8"/>
<text x="973" y="1636" class="f4">23</text>
<circle stroke-width="0" r="3" class="s4 f4" cx="989" cy="1600"/>
<circle stroke-width="0" r="3" class="s4 f4" cx="989" cy="1612"/>
<circle stroke-width="0" r="3" class="s4 f4" cx="980" cy="1606"/>
<circle stroke-width="0" r="3" class="s4 f4" cx="998" cy="1606"/>
<line y2="1606" x1="983" class="s4 sw1" x2="995" y1="1606"/>
<line y2="1609" x1="989" class="s4 sw1" x2="989" y1="1603"/>
<polygon class=" s5 sw2 f14" points="1157,780 1175,798 1157,816 1139,798"/>
<line y2="816" x1="1139" class="s7 sw6" x2="1175" y1="780"/>
<line y2="816" x1="1175" class="s7 sw6" x2="1139" y1="780"/>
<rect x="1130" width="54" y="762" height="18" class="s14 sw2 f8"/>
<text x="1150" y="801" class="f4">14</text>
<polygon stroke-width="0" class=" s4 f4" points="1166,762 1166,768 1172,768 1160,780 1160,774 1154,774"/>
<polygon class=" s5 sw2 f14" points="1057,1680 1075,1698 1057,1716 1039,1698"/>
<line y2="1716" x1="1039" class="s7 sw6" x2="1075" y1="1680"/>
<line y2="1716" x1="1075" class="s7 sw6" x2="1039" y1="1680"/>
<rect x="1030" width="54" y="1662" height="18" class="s14 sw2 f7"/>
<text x="1050" y="1701" class="f4">13</text>
<polygon stroke-width="0" class=" s4 f4" points="1066,1662 1066,1668 1072,1668 1060,1680 1060,1674 1054,1674"/>
<circle r="18" class="s5 sw2 f14" cx="1087" cy="1671"/>
<rect x="1060" width="54" y="1635" height="18" class="s14 sw2 f8"/>
<text x="1080" y="1674" class="f4">2</text>
<polygon stroke-width="0" class=" s4 f4" points="1096,1635 1096,1641 1102,1641 1090,1653 1090,1647 1084,1647"/>
<polygon class=" s5 sw2 f13" points="1080,1615 1098,1633 1080,1651 1062,1633"/>
<rect x="1053" width="54" y="1597" height="18" class="s13 sw2 f8"/>
<text x="1073" y="1636" class="f4">16</text>
<polygon stroke-width="0" class=" s4 f4" points="1089,1597 1089,1603 1095,1603 1083,1615 1083,1609 1077,1609"/>
<rect x="539" width="36" y="1580" height="36" class="s5 sw2 f14"/>
<rect x="530" width="54" y="1562" height="18" class="s14 sw2 f8"/>
<text x="550" y="1601" class="f4">19</text>
<circle stroke-width="0" r="3" class="s4 f4" cx="566" cy="1565"/>
<circle stroke-width="0" r="3" class="s4 f4" cx="566" cy="1577"/>
<circle stroke-width="0" r="3" class="s4 f4" cx="557" cy="1571"/>
<circle stroke-width="0" r="3" class="s4 f4" cx="575" cy="1571"/>
<line y2="1571" x1="560" class="s4 sw1" x2="572" y1="1571"/>
<line y2="1574" x1="566" class="s4 sw1" x2="566" y1="1568"/>
<polygon class=" s5 sw2 f13" points="1148,1580 1166,1580 1175,1589 1175,1607 1166,1616 1148,1616 1139,1607 1139,1589"/>
<rect x="1130" width="54" y="1562" height="18" class="s13 sw2 f8"/>
<text x="1150" y="1601" class="f4">10</text>
<circle r="6" class="s4 sw1 f8" cx="1154" cy="1574"/>
<circle r="6" class="s4 sw1 f8" cx="1172" cy="1574"/>
<line y2="1574" x1="1160" class="s4 sw1" x2="1166" y1="1574"/>
<line y2="1562" x1="1148" class="s4 sw1" x2="1160" y1="1574"/>
<line y2="1562" x1="1178" class="s4 sw1" x2="1184" y1="1574"/>
<polygon class=" s5 sw2 f13" points="1548,1180 1566,1180 1575,1189 1575,1207 1566,1216 1548,1216 1539,1207 1539,1189"/>
<rect x="1530" width="54" y="1162" height="18" class="s13 sw2 f8"/>
<text x="1550" y="1201" class="f4">8</text>
<circle r="6" class="s4 sw1 f8" cx="1554" cy="1174"/>
<circle r="6" class="s4 sw1 f8" cx="1572" cy="1174"/>
<line y2="1174" x1="1560" class="s4 sw1" x2="1566" y1="1174"/>
<line y2="1162" x1="1548" class="s4 sw1" x2="1560" y1="1174"/>
<line y2="1162" x1="1578" class="s4 sw1" x2="1584" y1="1174"/>
<polygon class=" s5 sw2 f14" points="1430,580 1484,580 1457,616"/>
<rect x="1430" width="54" y="562" height="18" class="s14 sw2 f7"/>
<text x="1450" y="601" class="f4">28</text>
<line y2="574" x1="1460" class="s4 sw3" x2="1472" y1="568"/>
<circle stroke-width="0" r="6" class="s4 f4" cx="1460" cy="568"/>
<polygon class=" s5 sw2 f13" points="1487,553 1505,571 1487,589 1469,571"/>
<rect x="1460" width="54" y="535" height="18" class="s13 sw2 f8"/>
<text x="1480" y="574" class="f4">14</text>
<polygon stroke-width="0" class=" s4 f4" points="1478,535 1484,535 1502,544 1508,535 1508,547 1514,547 1508,553 1505,550 1502,553 1490,553 1502,547 1478,541"/>
<polygon class=" s5 sw2 f13" points="1357,1180 1375,1198 1357,1216 1339,1198"/>
<rect x="1330" width="54" y="1162" height="18" class="s13 sw2 f8"/>
<text x="1350" y="1201" class="f4">13</text>
<polygon stroke-width="0" class=" s4 f4" points="1348,1162 1354,1162 1372,1171 1378,1162 1378,1174 1384,1174 1378,1180 1375,1177 1372,1180 1360,1180 1372,1174 1348,1168"/>
<polygon class=" s5 sw2 f13" points="748,780 766,780 775,789 775,807 766,816 748,816 739,807 739,789"/>
<rect x="730" width="54" y="762" height="18" class="s13 sw2 f8"/>
<text x="750" y="801" class="f4">11</text>
<circle stroke-width="0" r="3" class="s4 f4" cx="766" cy="765"/>
<circle stroke-width="0" r="3" class="s4 f4" cx="766" cy="777"/>
<circle stroke-width="0" r="3" class="s4 f4" cx="757" cy="771"/>
<circle stroke-width="0" r="3" class="s4 f4" cx="775" cy="771"/>
<line y2="771" x1="760" class="s4 sw1" x2="772" y1="771"/>
<line y2="774" x1="766" class="s4 sw1" x2="766" y1="768"/>
<circle r="18" class="s5 sw2 f13" cx="457" cy="1498"/>
<rect x="430" width="54" y="1462" height="18" class="s13 sw2 f8"/>
<text x="450" y="1501" class="f4">6</text>
<circle stroke-width="0" r="3" class="s4 f4" cx="466" cy="1465"/>
<circle stroke-width="0" r="3" class="s4 f4" cx="466" cy="1477"/>
<circle stroke-width="0" r="3" class="s4 f4" cx="457" cy="1471"/>
<circle stroke-width="0" r="3" class="s4 f4" cx="475" cy="1471"/>
<line y2="1471" x1="460" class="s4 sw1" x2="472" y1="1471"/>
<line y2="1474" x1="466" class="s4 sw1" x2="466" y1="1468"/>
<polygon class=" s5 sw2 f13" points="230,280 284,280 257,316"/>
<rect x="230" width="54" y="262" height="18" class="s13 sw2 f8"/>
<text x="250" y="301" class="f4">24</text>
<circle stroke-width="0" r="3" class="s4 f4" cx="266" cy="265"/>
<circle stroke-width="0" r="3" class="s4 f4" cx="266" cy="277"/>
<circle stroke-width="0" r="3" class="s4 f4" cx="257" cy="271"/>
<circle stroke-width="0" r="3" class="s4 f4" cx="275" cy="271"/>
<line y2="271" x1="260" class="s4 sw1" x2="272" y1="271"/>
<line y2="274" x1="266" class="s4 sw1" x2="266" y1="268"/>
<rect x="1039" width="36" y="1580" height="36" class="s5 sw2 f14"/>
<rect x="1030" width="54" y="1562" height="18" class="s14 sw2 f8"/>
<text x="1050" y="1601" class="f4">17</text>
<circle stroke-width="0" r="3" class="s4 f4" cx="1066" cy="1565"/>
<circle stroke-width="0" r="3" class="s4 f4" cx="1066" cy="1577"/>
<circle stroke-width="0" r="3" class="s4 f4" cx="1057" cy="1571"/>
<circle stroke-width="0" r="3" class="s4 f4" cx="1075" cy="1571"/>
<line y2="1571" x1="1060" class="s4 sw1" x2="1072" y1="1571"/>
<line y2="1574" x1="1066" class="s4 sw1" x2="1066" y1="1568"/>
<line y2="562" x1="1357" class="s14 sw4" x2="1487" y1="889"/>
<line x1="1357" x2="1487" y1="889" y2="562" class="s3 sw4 sd" marker-end="url(#ar1)"/>
<line y2="1224" x1="1357" class="s13 sw4" x2="1280" y1="1189"/>
<line x1="1357" x2="1280" y1="1189" y2="1224" class="s0 sw4 sd" marker-end="url(#ar2)"/>
<g id="teamTable" transform="translate(-100, 150)">
<text x="2350" y="75" class="TxtNrml">Step: 15</text>
<text x="2350" y="180" class="Tb" text-anchor="start">
<tspan fill="rgba(0,158,115,1.0)" x="2350">A</tspan>
<tspan x="2750">479</tspan>
<tspan x="2950">38</tspan>
<tspan x="3150">22</tspan>
<tspan x="3350">16</tspan>
</text>
<text x="2350" y="220" class="Tb" text-anchor="start">
<tspan fill="rgba(0,114,178,1.0)" x="2350">B</tspan>
<tspan x="2750">780</tspan>
<tspan x="2950">58</tspan>
<tspan x="3150">30</tspan>
<tspan x="3350">28</tspan>
</text>
</g>
<g id="agentTable" transform="translate(-100, 150)">
<text x="2350" y="316" class="Tb2" text-anchor="start">
<tspan x="2535">17/35</tspan>
<tspan x="2650">4/4</tspan>
<tspan x="2765">0</tspan>
<tspan x="2880">2</tspan>
<tspan x="2995">probe :successful</tspan>
</text>
<text x="2350" y="346" class="Tb2" text-anchor="start">
<tspan x="2535">29/35</tspan>
<tspan x="2650">4/4</tspan>
<tspan x="2765">0</tspan>
<tspan x="2880">2</tspan>
<tspan x="2995">recharge :successful</tspan>
</text>
<text x="2350" y="376" class="Tb2" text-anchor="start">
<tspan x="2535">35/35</tspan>
<tspan x="2650">0/4</tspan>
<tspan x="2765">0</tspan>
<tspan x="2880">2</tspan>
<tspan x="2995">recharge :successful</tspan>
</text>
<text x="2350" y="406" class="Tb2" text-anchor="start">
<tspan x="2535">35/35</tspan>
<tspan x="2650">4/4</tspan>
<tspan x="2765">0</tspan>
<tspan x="2880">2</tspan>
<tspan x="2995">recharge :successful</tspan>
</text>
<text x="2350" y="436" class="Tb2" text-anchor="start">
<tspan x="2535">9/35</tspan>
<tspan x="2650">4/4</tspan>
<tspan x="2765">0</tspan>
<tspan x="2880">2</tspan>
<tspan x="2995">goto v314:successful</tspan>
</text>
<text x="2350" y="466" class="Tb2" text-anchor="start">
<tspan x="2535">35/35</tspan>
<tspan x="2650">4/4</tspan>
<tspan x="2765">0</tspan>
<tspan x="2880">2</tspan>
<tspan x="2995">recharge :successful</tspan>
</text>
<text x="2350" y="496" class="Tb2" text-anchor="start">
<tspan x="2535">18/25</tspan>
<tspan x="2650">3/6</tspan>
<tspan x="2765">0</tspan>
<tspan x="2880">1</tspan>
<tspan x="2995">goto v182:successful</tspan>
</text>
<text x="2350" y="526" class="Tb2" text-anchor="start">
<tspan x="2535">21/25</tspan>
<tspan x="2650">6/6</tspan>
<tspan x="2765">0</tspan>
<tspan x="2880">1</tspan>
<tspan x="2995">recharge :successful</tspan>
</text>
<text x="2350" y="556" class="Tb2" text-anchor="start">
<tspan x="2535">6/25</tspan>
<tspan x="2650">6/6</tspan>
<tspan x="2765">0</tspan>
<tspan x="2880">1</tspan>
<tspan fill="red" x="2995">repair b14:failed_out_of_range</tspan>
</text>
<text x="2350" y="586" class="Tb2" text-anchor="start">
<tspan x="2535">25/25</tspan>
<tspan x="2650">6/6</tspan>
<tspan x="2765">0</tspan>
<tspan x="2880">1</tspan>
<tspan x="2995">recharge :successful</tspan>
</text>
<text x="2350" y="616" class="Tb2" text-anchor="start">
<tspan x="2535">9/25</tspan>
<tspan x="2650">6/6</tspan>
<tspan x="2765">0</tspan>
<tspan x="2880">1</tspan>
<tspan x="2995">parry :useless</tspan>
</text>
<text x="2350" y="646" class="Tb2" text-anchor="start">
<tspan x="2535">17/25</tspan>
<tspan x="2650">6/6</tspan>
<tspan x="2765">0</tspan>
<tspan x="2880">1</tspan>
<tspan x="2995">recharge :successful</tspan>
</text>
<text x="2350" y="676" class="Tb2" text-anchor="start">
<tspan x="2535">6/20</tspan>
<tspan x="2650">0/3</tspan>
<tspan x="2765">3</tspan>
<tspan x="2880">1</tspan>
<tspan fill="red" x="2995">recharge :failed_random</tspan>
</text>
<text x="2350" y="706" class="Tb2" text-anchor="start">
<tspan x="2535">11/20</tspan>
<tspan x="2650">0/3</tspan>
<tspan x="2765">3</tspan>
<tspan x="2880">1</tspan>
<tspan x="2995">recharge :successful</tspan>
</text>
<text x="2350" y="736" class="Tb2" text-anchor="start">
<tspan x="2535">20/20</tspan>
<tspan x="2650">0/3</tspan>
<tspan x="2765">3</tspan>
<tspan x="2880">1</tspan>
<tspan x="2995">recharge :successful</tspan>
</text>
<text x="2350" y="766" class="Tb2" text-anchor="start">
<tspan x="2535">2/20</tspan>
<tspan x="2650">0/3</tspan>
<tspan x="2765">3</tspan>
<tspan x="2880">1</tspan>
<tspan x="2995">goto v22:successful</tspan>
</text>
<text x="2350" y="796" class="Tb2" text-anchor="start">
<tspan x="2535">23/30</tspan>
<tspan x="2650">1/1</tspan>
<tspan x="2765">0</tspan>
<tspan x="2880">3</tspan>
<tspan x="2995">goto v395:successful</tspan>
</text>
<text x="2350" y="826" class="Tb2" text-anchor="start">
<tspan x="2535">30/30</tspan>
<tspan x="2650">1/1</tspan>
<tspan x="2765">0</tspan>
<tspan x="2880">3</tspan>
<tspan x="2995">recharge :successful</tspan>
</text>
<text x="2350" y="856" class="Tb2" text-anchor="start">
<tspan x="2535">8/30</tspan>
<tspan x="2650">1/1</tspan>
<tspan x="2765">0</tspan>
<tspan x="2880">3</tspan>
<tspan x="2995">goto v335:successful</tspan>
</text>
<text x="2350" y="886" class="Tb2" text-anchor="start">
<tspan x="2535">30/30</tspan>
<tspan x="2650">0/1</tspan>
<tspan x="2765">0</tspan>
<tspan x="2880">3</tspan>
<tspan x="2995">recharge :successful</tspan>
</text>
<text x="2350" y="916" class="Tb2" text-anchor="start">
<tspan x="2535">17/30</tspan>
<tspan x="2650">1/1</tspan>
<tspan x="2765">0</tspan>
<tspan x="2880">3</tspan>
<tspan x="2995">goto v103:successful</tspan>
</text>
<text x="2350" y="946" class="Tb2" text-anchor="start">
<tspan x="2535">8/30</tspan>
<tspan x="2650">0/1</tspan>
<tspan x="2765">0</tspan>
<tspan x="2880">3</tspan>
<tspan x="2995">goto v276:successful</tspan>
</text>
<text x="2350" y="976" class="Tb2" text-anchor="start">
<tspan x="2535">8/25</tspan>
<tspan x="2650">6/6</tspan>
<tspan x="2765">0</tspan>
<tspan x="2880">1</tspan>
<tspan x="2995">goto v314:successful</tspan>
</text>
<text x="2350" y="1006" class="Tb2" text-anchor="start">
<tspan x="2535">11/25</tspan>
<tspan x="2650">6/6</tspan>
<tspan x="2765">0</tspan>
<tspan x="2880">1</tspan>
<tspan x="2995">goto v7:successful</tspan>
</text>
<text x="2350" y="1036" class="Tb2" text-anchor="start">
<tspan x="2535">13/25</tspan>
<tspan x="2650">6/6</tspan>
<tspan x="2765">0</tspan>
<tspan x="2880">1</tspan>
<tspan x="2995">goto v223:successful</tspan>
</text>
<text x="2350" y="1066" class="Tb2" text-anchor="start">
<tspan x="2535">21/25</tspan>
<tspan x="2650">6/6</tspan>
<tspan x="2765">0</tspan>
<tspan x="2880">1</tspan>
<tspan x="2995">recharge :successful</tspan>
</text>
<text x="2350" y="1096" class="Tb2" text-anchor="start">
<tspan x="2535">1/25</tspan>
<tspan x="2650">6/6</tspan>
<tspan x="2765">0</tspan>
<tspan x="2880">1</tspan>
<tspan x="2995">goto v6:successful</tspan>
</text>
<text x="2350" y="1126" class="Tb2" text-anchor="start">
<tspan x="2535">12/25</tspan>
<tspan x="2650">3/6</tspan>
<tspan x="2765">0</tspan>
<tspan x="2880">1</tspan>
<tspan fill="red" x="2995">inspect :failed_attacked</tspan>
</text>
<text x="2350" y="1156" class="Tb2" text-anchor="start">
<tspan x="2535">11/35</tspan>
<tspan x="2650">4/4</tspan>
<tspan x="2765">0</tspan>
<tspan x="2880">2</tspan>
<tspan x="2995">probe :successful</tspan>
</text>
<text x="2350" y="1186" class="Tb2" text-anchor="start">
<tspan x="2535">2/35</tspan>
<tspan x="2650">4/4</tspan>
<tspan x="2765">0</tspan>
<tspan x="2880">2</tspan>
<tspan x="2995">goto v44:successful</tspan>
</text>
<text x="2350" y="1216" class="Tb2" text-anchor="start">
<tspan x="2535">8/35</tspan>
<tspan x="2650">4/4</tspan>
<tspan x="2765">0</tspan>
<tspan x="2880">2</tspan>
<tspan fill="red" x="2995">goto v324:failed_random</tspan>
</text>
<text x="2350" y="1246" class="Tb2" text-anchor="start">
<tspan x="2535">7/35</tspan>
<tspan x="2650">4/4</tspan>
<tspan x="2765">0</tspan>
<tspan x="2880">2</tspan>
<tspan x="2995">probe :successful</tspan>
</text>
<text x="2350" y="1276" class="Tb2" text-anchor="start">
<tspan x="2535">18/35</tspan>
<tspan x="2650">4/4</tspan>
<tspan x="2765">0</tspan>
<tspan x="2880">2</tspan>
<tspan x="2995">probe :successful</tspan>
</text>
<text x="2350" y="1306" class="Tb2" text-anchor="start">
<tspan x="2535">5/35</tspan>
<tspan x="2650">4/4</tspan>
<tspan x="2765">0</tspan>
<tspan x="2880">2</tspan>
<tspan x="2995">goto v384:successful</tspan>
</text>
<text x="2350" y="1336" class="Tb2" text-anchor="start">
<tspan x="2535">7/25</tspan>
<tspan x="2650">6/6</tspan>
<tspan x="2765">0</tspan>
<tspan x="2880">1</tspan>
<tspan x="2995">goto v182:successful</tspan>
</text>
<text x="2350" y="1366" class="Tb2" text-anchor="start">
<tspan x="2535">6/25</tspan>
<tspan x="2650">6/6</tspan>
<tspan x="2765">0</tspan>
<tspan x="2880">1</tspan>
<tspan x="2995">survey :successful</tspan>
</text>
<text x="2350" y="1396" class="Tb2" text-anchor="start">
<tspan x="2535">15/25</tspan>
<tspan x="2650">6/6</tspan>
<tspan x="2765">0</tspan>
<tspan x="2880">1</tspan>
<tspan x="2995">goto v36:successful</tspan>
</text>
<text x="2350" y="1426" class="Tb2" text-anchor="start">
<tspan x="2535">2/25</tspan>
<tspan x="2650">6/6</tspan>
<tspan x="2765">0</tspan>
<tspan x="2880">1</tspan>
<tspan x="2995">survey :successful</tspan>
</text>
<text x="2350" y="1456" class="Tb2" text-anchor="start">
<tspan x="2535">11/25</tspan>
<tspan x="2650">6/6</tspan>
<tspan x="2765">0</tspan>
<tspan x="2880">1</tspan>
<tspan x="2995">goto v372:successful</tspan>
</text>
<text x="2350" y="1486" class="Tb2" text-anchor="start">
<tspan x="2535">7/25</tspan>
<tspan x="2650">6/6</tspan>
<tspan x="2765">0</tspan>
<tspan x="2880">1</tspan>
<tspan x="2995">goto v108:successful</tspan>
</text>
<text x="2350" y="1516" class="Tb2" text-anchor="start">
<tspan x="2535">9/20</tspan>
<tspan x="2650">3/3</tspan>
<tspan x="2765">3</tspan>
<tspan x="2880">1</tspan>
<tspan x="2995">attack LTI-USP7:successful</tspan>
</text>
<text x="2350" y="1546" class="Tb2" text-anchor="start">
<tspan x="2535">3/20</tspan>
<tspan x="2650">3/3</tspan>
<tspan x="2765">3</tspan>
<tspan x="2880">1</tspan>
<tspan x="2995">attack LTI-USP28:successful</tspan>
</text>
<text x="2350" y="1576" class="Tb2" text-anchor="start">
<tspan x="2535">10/20</tspan>
<tspan x="2650">3/3</tspan>
<tspan x="2765">3</tspan>
<tspan x="2880">1</tspan>
<tspan x="2995">recharge :successful</tspan>
</text>
<text x="2350" y="1606" class="Tb2" text-anchor="start">
<tspan x="2535">11/20</tspan>
<tspan x="2650">3/3</tspan>
<tspan x="2765">3</tspan>
<tspan x="2880">1</tspan>
<tspan x="2995">recharge :successful</tspan>
</text>
<text x="2350" y="1636" class="Tb2" text-anchor="start">
<tspan x="2535">14/30</tspan>
<tspan x="2650">1/1</tspan>
<tspan x="2765">0</tspan>
<tspan x="2880">3</tspan>
<tspan x="2995">goto v137:successful</tspan>
</text>
<text x="2350" y="1666" class="Tb2" text-anchor="start">
<tspan x="2535">4/30</tspan>
<tspan x="2650">1/1</tspan>
<tspan x="2765">0</tspan>
<tspan x="2880">3</tspan>
<tspan x="2995">survey :successful</tspan>
</text>
<text x="2350" y="1696" class="Tb2" text-anchor="start">
<tspan x="2535">10/30</tspan>
<tspan x="2650">1/1</tspan>
<tspan x="2765">0</tspan>
<tspan x="2880">3</tspan>
<tspan x="2995">goto v172:successful</tspan>
</text>
<text x="2350" y="1726" class="Tb2" text-anchor="start">
<tspan x="2535">10/30</tspan>
<tspan x="2650">1/1</tspan>
<tspan x="2765">0</tspan>
<tspan x="2880">3</tspan>
<tspan x="2995">goto v300:successful</tspan>
</text>
<text x="2350" y="1756" class="Tb2" text-anchor="start">
<tspan x="2535">6/30</tspan>
<tspan x="2650">1/1</tspan>
<tspan x="2765">0</tspan>
<tspan x="2880">3</tspan>
<tspan x="2995">goto v119:successful</tspan>
</text>
<text x="2350" y="1786" class="Tb2" text-anchor="start">
<tspan x="2535">19/30</tspan>
<tspan x="2650">1/1</tspan>
<tspan x="2765">0</tspan>
<tspan x="2880">3</tspan>
<tspan x="2995">recharge :successful</tspan>
</text>
<text x="2350" y="1816" class="Tb2" text-anchor="start">
<tspan x="2535">15/25</tspan>
<tspan x="2650">6/6</tspan>
<tspan x="2765">0</tspan>
<tspan x="2880">1</tspan>
<tspan x="2995">inspect :successful</tspan>
</text>
<text x="2350" y="1846" class="Tb2" text-anchor="start">
<tspan x="2535">10/25</tspan>
<tspan x="2650">6/6</tspan>
<tspan x="2765">0</tspan>
<tspan x="2880">1</tspan>
<tspan x="2995">goto v387:successful</tspan>
</text>
<text x="2350" y="1876" class="Tb2" text-anchor="start">
<tspan x="2535">7/25</tspan>
<tspan x="2650">6/6</tspan>
<tspan x="2765">0</tspan>
<tspan x="2880">1</tspan>
<tspan x="2995">goto v233:successful</tspan>
</text>
<text x="2350" y="1906" class="Tb2" text-anchor="start">
<tspan x="2535">9/25</tspan>
<tspan x="2650">6/6</tspan>
<tspan x="2765">0</tspan>
<tspan x="2880">1</tspan>
<tspan x="2995">goto v50:successful</tspan>
</text>
<text x="2350" y="1936" class="Tb2" text-anchor="start">
<tspan x="2535">8/25</tspan>
<tspan x="2650">6/6</tspan>
<tspan x="2765">0</tspan>
<tspan x="2880">1</tspan>
<tspan x="2995">goto v233:successful</tspan>
</text>
<text x="2350" y="1966" class="Tb2" text-anchor="start">
<tspan x="2535">2/25</tspan>
<tspan x="2650">6/6</tspan>
<tspan x="2765">0</tspan>
<tspan x="2880">1</tspan>
<tspan x="2995">goto v254:successful</tspan>
</text>
</g>
<line y2="442" x1="3290" class="s5 sw1" x2="3290" y1="1996"/>
<g id="achievementPart" transform="translate(-100, 150)">
<text x="3400" y="301" class="TxtAch">
<tspan x="3400">Achievements</tspan>
<tspan fill="rgba(0,158,115,1.0)" x="3400" y="331">A</tspan>
<tspan x="3400" y="351">proved5</tspan>
<tspan x="3400" y="371">proved10</tspan>
<tspan x="3400" y="391">proved20</tspan>
<tspan x="3400" y="411">surveyed10</tspan>
<tspan x="3400" y="431">surveyed20</tspan>
<tspan x="3400" y="451">surveyed40</tspan>
<tspan x="3400" y="471">surveyed80</tspan>
<tspan x="3400" y="491">area10</tspan>
<tspan fill="rgba(0,114,178,1.0)" x="3400" y="516">B</tspan>
<tspan x="3400" y="536">proved5</tspan>
<tspan x="3400" y="556">proved10</tspan>
<tspan x="3400" y="576">proved20</tspan>
<tspan x="3400" y="596">proved40</tspan>
<tspan x="3400" y="616">surveyed10</tspan>
<tspan x="3400" y="636">surveyed20</tspan>
<tspan x="3400" y="656">surveyed40</tspan>
<tspan x="3400" y="676">surveyed80</tspan>
<tspan x="3400" y="696">surveyed160</tspan>
<tspan x="3400" y="716">surveyed320</tspan>
<tspan x="3400" y="736">inspected5</tspan>
<tspan x="3400" y="756">attacked5</tspan>
<tspan x="3400" y="776">area10</tspan>
<tspan x="3400" y="796">area20</tspan>
</text>
</g>
</g>
</svg>
