<?xml version="1.0" encoding="UTF-8"?><?xml-stylesheet type="text/css" href="style.css"?><svg xmlns="http://www.w3.org/2000/svg" xmlns:xlink="http://www.w3.org/1999/xlink" contentScriptType="text/ecmascript" zoomAndPan="magnify" contentStyleType="text/css" preserveAspectRatio="xMidYMid meet" version="1.0">
<g id="scaleSvg" transform="scale(0.25)">
<polygon class=" s5 sw2 f14" points="1030,1980 1084,1980 1057,2016"/>
<rect x="1030" width="54" y="1962" height="18" class="s14 sw2 f8"/>
<text x="1050" y="2001" class="f4">27</text>
<rect x="1839" width="36" y="1480" height="36" class="s5 sw2 f13"/>
<rect x="1830" width="54" y="1462" height="18" class="s13 sw2 f8"/>
<text x="1850" y="1501" class="f4">19</text>
<circle r="18" class="s5 sw2 f13" cx="457" cy="1898"/>
<rect x="430" width="54" y="1862" height="18" class="s13 sw2 f8"/>
<text x="450" y="1901" class="f4">1</text>
<rect x="1839" width="36" y="380" height="36" class="s5 sw2 f13"/>
<rect x="1830" width="54" y="362" height="18" class="s13 sw2 f8"/>
<text x="1850" y="401" class="f4">18</text>
<polygon class=" s5 sw2 f14" points="1757,1680 1775,1698 1757,1716 1739,1698"/>
<rect x="1730" width="54" y="1662" height="18" class="s14 sw2 f8"/>
<text x="1750" y="1701" class="f4">16</text>
<polygon class=" s5 sw2 f13" points="457,1680 475,1698 457,1716 439,1698"/>
<rect x="430" width="54" y="1662" height="18" class="s13 sw2 f8"/>
<text x="450" y="1701" class="f4">16</text>
<circle r="18" class="s5 sw2 f14" cx="1957" cy="1098"/>
<rect x="1930" width="54" y="1062" height="18" class="s14 sw2 f8"/>
<text x="1950" y="1101" class="f4">6</text>
<rect x="2039" width="36" y="1780" height="36" class="s5 sw2 f13"/>
<rect x="2030" width="54" y="1762" height="18" class="s13 sw2 f8"/>
<text x="2050" y="1801" class="f4">21</text>
<polygon class=" s5 sw2 f14" points="757,180 775,198 757,216 739,198"/>
<rect x="730" width="54" y="162" height="18" class="s14 sw2 f8"/>
<text x="750" y="201" class="f4">14</text>
<polygon class=" s5 sw2 f14" points="1630,1880 1684,1880 1657,1916"/>
<rect x="1630" width="54" y="1862" height="18" class="s14 sw2 f8"/>
<text x="1650" y="1901" class="f4">23</text>
<rect x="539" width="36" y="80" height="36" class="s5 sw2 f13"/>
<rect x="530" width="54" y="62" height="18" class="s13 sw2 f8"/>
<text x="550" y="101" class="f4">20</text>
<polygon class=" s5 sw2 f13" points="2030,480 2084,480 2057,516"/>
<rect x="2030" width="54" y="462" height="18" class="s13 sw2 f8"/>
<text x="2050" y="501" class="f4">26</text>
<polygon class=" s5 sw2 f14" points="1148,1780 1166,1780 1175,1789 1175,1807 1166,1816 1148,1816 1139,1807 1139,1789"/>
<rect x="1130" width="54" y="1762" height="18" class="s14 sw2 f8"/>
<text x="1150" y="1801" class="f4">10</text>
<rect x="1169" width="36" y="1753" height="36" class="s5 sw2 f14"/>
<rect x="1160" width="54" y="1735" height="18" class="s14 sw2 f8"/>
<text x="1180" y="1774" class="f4">17</text>
<polygon class=" s5 sw2 f14" points="1557,580 1575,598 1557,616 1539,598"/>
<rect x="1530" width="54" y="562" height="18" class="s14 sw2 f8"/>
<text x="1550" y="601" class="f4">15</text>
<polygon class=" s5 sw2 f13" points="1930,1580 1984,1580 1957,1616"/>
<rect x="1930" width="54" y="1562" height="18" class="s13 sw2 f8"/>
<text x="1950" y="1601" class="f4">25</text>
<polygon class=" s5 sw2 f14" points="857,1080 875,1098 857,1116 839,1098"/>
<rect x="830" width="54" y="1062" height="18" class="s14 sw2 f8"/>
<text x="850" y="1101" class="f4">13</text>
<circle r="18" class="s5 sw2 f14" cx="1057" cy="1298"/>
<rect x="1030" width="54" y="1262" height="18" class="s14 sw2 f8"/>
<text x="1050" y="1301" class="f4">4</text>
<polygon class=" s5 sw2 f14" points="1048,680 1066,680 1075,689 1075,707 1066,716 1048,716 1039,707 1039,689"/>
<rect x="1030" width="54" y="662" height="18" class="s14 sw2 f8"/>
<text x="1050" y="701" class="f4">9</text>
<polygon class=" s5 sw2 f13" points="130,380 184,380 157,416"/>
<rect x="130" width="54" y="362" height="18" class="s13 sw2 f8"/>
<text x="150" y="401" class="f4">24</text>
<circle r="18" class="s5 sw2 f13" cx="857" cy="398"/>
<rect x="830" width="54" y="362" height="18" class="s13 sw2 f8"/>
<text x="850" y="401" class="f4">3</text>
<polygon class=" s5 sw2 f13" points="1048,1780 1066,1780 1075,1789 1075,1807 1066,1816 1048,1816 1039,1807 1039,1789"/>
<rect x="1030" width="54" y="1762" height="18" class="s13 sw2 f8"/>
<text x="1050" y="1801" class="f4">10</text>
<rect x="1069" width="36" y="1753" height="36" class="s5 sw2 f13"/>
<rect x="1060" width="54" y="1735" height="18" class="s13 sw2 f8"/>
<text x="1080" y="1774" class="f4">17</text>
<rect x="339" width="36" y="380" height="36" class="s5 sw2 f14"/>
<rect x="330" width="54" y="362" height="18" class="s14 sw2 f8"/>
<text x="350" y="401" class="f4">18</text>
<rect x="1639" width="36" y="380" height="36" class="s5 sw2 f13"/>
<rect x="1630" width="54" y="362" height="18" class="s13 sw2 f8"/>
<text x="1650" y="401" class="f4">22</text>
<circle r="18" class="s5 sw2 f14" cx="1757" cy="1898"/>
<rect x="1730" width="54" y="1862" height="18" class="s14 sw2 f8"/>
<text x="1750" y="1901" class="f4">1</text>
<circle r="18" class="s5 sw2 f14" cx="1357" cy="398"/>
<rect x="1330" width="54" y="362" height="18" class="s14 sw2 f8"/>
<text x="1350" y="401" class="f4">3</text>
<polygon class=" s5 sw2 f13" points="1148,680 1166,680 1175,689 1175,707 1166,716 1148,716 1139,707 1139,689"/>
<rect x="1130" width="54" y="662" height="18" class="s13 sw2 f8"/>
<text x="1150" y="701" class="f4">9</text>
<polygon class=" s5 sw2 f14" points="448,780 466,780 475,789 475,807 466,816 448,816 439,807 439,789"/>
<rect x="430" width="54" y="762" height="18" class="s14 sw2 f8"/>
<text x="450" y="801" class="f4">8</text>
<polygon class=" s5 sw2 f14" points="478,753 496,753 505,762 505,780 496,789 478,789 469,780 469,762"/>
<rect x="460" width="54" y="735" height="18" class="s14 sw2 f8"/>
<text x="480" y="774" class="f4">12</text>
<polygon class=" s5 sw2 f13" points="1748,780 1766,780 1775,789 1775,807 1766,816 1748,816 1739,807 1739,789"/>
<rect x="1730" width="54" y="762" height="18" class="s13 sw2 f8"/>
<text x="1750" y="801" class="f4">8</text>
<polygon class=" s5 sw2 f13" points="1778,753 1796,753 1805,762 1805,780 1796,789 1778,789 1769,780 1769,762"/>
<rect x="1760" width="54" y="735" height="18" class="s13 sw2 f8"/>
<text x="1780" y="774" class="f4">12</text>
<circle r="18" class="s5 sw2 f13" cx="1557" cy="2098"/>
<rect x="1530" width="54" y="2062" height="18" class="s13 sw2 f8"/>
<text x="1550" y="2101" class="f4">5</text>
<polygon class=" s5 sw2 f14" points="1548,780 1566,780 1575,789 1575,807 1566,816 1548,816 1539,807 1539,789"/>
<rect x="1530" width="54" y="762" height="18" class="s14 sw2 f8"/>
<text x="1550" y="801" class="f4">11</text>
<polygon class=" s5 sw2 f13" points="1578,753 1596,753 1605,762 1605,780 1596,789 1578,789 1569,780 1569,762"/>
<rect x="1560" width="54" y="735" height="18" class="s13 sw2 f8"/>
<text x="1580" y="774" class="f4">7</text>
<polygon class=" s5 sw2 f13" points="530,1880 584,1880 557,1916"/>
<rect x="530" width="54" y="1862" height="18" class="s13 sw2 f8"/>
<text x="550" y="1901" class="f4">23</text>
<rect x="1639" width="36" y="80" height="36" class="s5 sw2 f14"/>
<rect x="1630" width="54" y="62" height="18" class="s14 sw2 f8"/>
<text x="1650" y="101" class="f4">20</text>
<polygon class=" s5 sw2 f13" points="657,580 675,598 657,616 639,598"/>
<rect x="630" width="54" y="562" height="18" class="s13 sw2 f8"/>
<text x="650" y="601" class="f4">15</text>
<circle r="18" class="s5 sw2 f13" cx="257" cy="1098"/>
<rect x="230" width="54" y="1062" height="18" class="s13 sw2 f8"/>
<text x="250" y="1101" class="f4">6</text>
<circle r="18" class="s5 sw2 f14" cx="957" cy="1898"/>
<rect x="930" width="54" y="1862" height="18" class="s14 sw2 f8"/>
<text x="950" y="1901" class="f4">2</text>
<polygon class=" s5 sw2 f13" points="730,580 784,580 757,616"/>
<rect x="730" width="54" y="562" height="18" class="s13 sw2 f8"/>
<text x="750" y="601" class="f4">28</text>
<polygon class=" s5 sw2 f14" points="648,780 666,780 675,789 675,807 666,816 648,816 639,807 639,789"/>
<rect x="630" width="54" y="762" height="18" class="s14 sw2 f8"/>
<text x="650" y="801" class="f4">7</text>
<polygon class=" s5 sw2 f13" points="678,753 696,753 705,762 705,780 696,789 678,789 669,780 669,762"/>
<rect x="660" width="54" y="735" height="18" class="s13 sw2 f8"/>
<text x="680" y="774" class="f4">11</text>
<polygon class=" s5 sw2 f13" points="1130,1980 1184,1980 1157,2016"/>
<rect x="1130" width="54" y="1962" height="18" class="s13 sw2 f8"/>
<text x="1150" y="2001" class="f4">27</text>
<polygon class=" s5 sw2 f14" points="230,1580 284,1580 257,1616"/>
<rect x="230" width="54" y="1562" height="18" class="s14 sw2 f8"/>
<text x="250" y="1601" class="f4">25</text>
<rect x="539" width="36" y="380" height="36" class="s5 sw2 f14"/>
<rect x="530" width="54" y="362" height="18" class="s14 sw2 f8"/>
<text x="550" y="401" class="f4">22</text>
<circle r="18" class="s5 sw2 f13" cx="1157" cy="1298"/>
<rect x="1130" width="54" y="1262" height="18" class="s13 sw2 f8"/>
<text x="1150" y="1301" class="f4">4</text>
<circle r="18" class="s5 sw2 f13" cx="1257" cy="1898"/>
<rect x="1230" width="54" y="1862" height="18" class="s13 sw2 f8"/>
<text x="1250" y="1901" class="f4">2</text>
<rect x="139" width="36" y="1780" height="36" class="s5 sw2 f14"/>
<rect x="130" width="54" y="1762" height="18" class="s14 sw2 f8"/>
<text x="150" y="1801" class="f4">21</text>
<polygon class=" s5 sw2 f14" points="2030,380 2084,380 2057,416"/>
<rect x="2030" width="54" y="362" height="18" class="s14 sw2 f8"/>
<text x="2050" y="401" class="f4">24</text>
<polygon class=" s5 sw2 f14" points="1430,580 1484,580 1457,616"/>
<rect x="1430" width="54" y="562" height="18" class="s14 sw2 f8"/>
<text x="1450" y="601" class="f4">28</text>
<rect x="339" width="36" y="1480" height="36" class="s5 sw2 f14"/>
<rect x="330" width="54" y="1462" height="18" class="s14 sw2 f8"/>
<text x="350" y="1501" class="f4">19</text>
<polygon class=" s5 sw2 f14" points="130,480 184,480 157,516"/>
<rect x="130" width="54" y="462" height="18" class="s14 sw2 f8"/>
<text x="150" y="501" class="f4">26</text>
<polygon class=" s5 sw2 f13" points="1457,180 1475,198 1457,216 1439,198"/>
<rect x="1430" width="54" y="162" height="18" class="s13 sw2 f8"/>
<text x="1450" y="201" class="f4">14</text>
<polygon class=" s5 sw2 f13" points="1357,1080 1375,1098 1357,1116 1339,1098"/>
<rect x="1330" width="54" y="1062" height="18" class="s13 sw2 f8"/>
<text x="1350" y="1101" class="f4">13</text>
<circle r="18" class="s5 sw2 f14" cx="657" cy="2098"/>
<rect x="630" width="54" y="2062" height="18" class="s14 sw2 f8"/>
<text x="650" y="2101" class="f4">5</text>
<g id="teamTable" transform="translate(-100, 150)">
<text x="2350" y="75" class="TxtNrml">Step: 0</text>
<text x="2350" y="180" class="Tb" text-anchor="start">
<tspan fill="rgba(0,158,115,1.0)" x="2350">A</tspan>
<tspan x="2750">0</tspan>
<tspan x="2950">0</tspan>
<tspan x="3150">0</tspan>
<tspan x="3350">0</tspan>
</text>
<text x="2350" y="220" class="Tb" text-anchor="start">
<tspan fill="rgba(0,114,178,1.0)" x="2350">B</tspan>
<tspan x="2750">0</tspan>
<tspan x="2950">0</tspan>
<tspan x="3150">0</tspan>
<tspan x="3350">0</tspan>
</text>
</g>
<g id="agentTable" transform="translate(-100, 150)">
<text x="2350" y="316" class="Tb2" text-anchor="start">
<tspan x="2535">35/35</tspan>
<tspan x="2650">4/4</tspan>
<tspan x="2765">0</tspan>
<tspan x="2880">2</tspan>
<tspan x="2995">skip null:successful</tspan>
</text>
<text x="2350" y="346" class="Tb2" text-anchor="start">
<tspan x="2535">35/35</tspan>
<tspan x="2650">4/4</tspan>
<tspan x="2765">0</tspan>
<tspan x="2880">2</tspan>
<tspan x="2995">skip null:successful</tspan>
</text>
<text x="2350" y="376" class="Tb2" text-anchor="start">
<tspan x="2535">35/35</tspan>
<tspan x="2650">4/4</tspan>
<tspan x="2765">0</tspan>
<tspan x="2880">2</tspan>
<tspan x="2995">skip null:successful</tspan>
</text>
<text x="2350" y="406" class="Tb2" text-anchor="start">
<tspan x="2535">35/35</tspan>
<tspan x="2650">4/4</tspan>
<tspan x="2765">0</tspan>
<tspan x="2880">2</tspan>
<tspan x="2995">skip null:successful</tspan>
</text>
<text x="2350" y="436" class="Tb2" text-anchor="start">
<tspan x="2535">35/35</tspan>
<tspan x="2650">4/4</tspan>
<tspan x="2765">0</tspan>
<tspan x="2880">2</tspan>
<tspan x="2995">skip null:successful</tspan>
</text>
<text x="2350" y="466" class="Tb2" text-anchor="start">
<tspan x="2535">35/35</tspan>
<tspan x="2650">4/4</tspan>
<tspan x="2765">0</tspan>
<tspan x="2880">2</tspan>
<tspan x="2995">skip null:successful</tspan>
</text>
<text x="2350" y="496" class="Tb2" text-anchor="start">
<tspan x="2535">25/25</tspan>
<tspan x="2650">6/6</tspan>
<tspan x="2765">0</tspan>
<tspan x="2880">1</tspan>
<tspan x="2995">skip null:successful</tspan>
</text>
<text x="2350" y="526" class="Tb2" text-anchor="start">
<tspan x="2535">25/25</tspan>
<tspan x="2650">6/6</tspan>
<tspan x="2765">0</tspan>
<tspan x="2880">1</tspan>
<tspan x="2995">skip null:successful</tspan>
</text>
<text x="2350" y="556" class="Tb2" text-anchor="start">
<tspan x="2535">25/25</tspan>
<tspan x="2650">6/6</tspan>
<tspan x="2765">0</tspan>
<tspan x="2880">1</tspan>
<tspan x="2995">skip null:successful</tspan>
</text>
<text x="2350" y="586" class="Tb2" text-anchor="start">
<tspan x="2535">25/25</tspan>
<tspan x="2650">6/6</tspan>
<tspan x="2765">0</tspan>
<tspan x="2880">1</tspan>
<tspan x="2995">skip null:successful</tspan>
</text>
<text x="2350" y="616" class="Tb2" text-anchor="start">
<tspan x="2535">25/25</tspan>
<tspan x="2650">6/6</tspan>
<tspan x="2765">0</tspan>
<tspan x="2880">1</tspan>
<tspan x="2995">skip null:successful</tspan>
</text>
<text x="2350" y="646" class="Tb2" text-anchor="start">
<tspan x="2535">25/25</tspan>
<tspan x="2650">6/6</tspan>
<tspan x="2765">0</tspan>
<tspan x="2880">1</tspan>
<tspan x="2995">skip null:successful</tspan>
</text>
<text x="2350" y="676" class="Tb2" text-anchor="start">
<tspan x="2535">20/20</tspan>
<tspan x="2650">3/3</tspan>
<tspan x="2765">3</tspan>
<tspan x="2880">1</tspan>
<tspan x="2995">skip null:successful</tspan>
</text>
<text x="2350" y="706" class="Tb2" text-anchor="start">
<tspan x="2535">20/20</tspan>
<tspan x="2650">3/3</tspan>
<tspan x="2765">3</tspan>
<tspan x="2880">1</tspan>
<tspan x="2995">skip null:successful</tspan>
</text>
<text x="2350" y="736" class="Tb2" text-anchor="start">
<tspan x="2535">20/20</tspan>
<tspan x="2650">3/3</tspan>
<tspan x="2765">3</tspan>
<tspan x="2880">1</tspan>
<tspan x="2995">skip null:successful</tspan>
</text>
<text x="2350" y="766" class="Tb2" text-anchor="start">
<tspan x="2535">20/20</tspan>
<tspan x="2650">3/3</tspan>
<tspan x="2765">3</tspan>
<tspan x="2880">1</tspan>
<tspan x="2995">skip null:successful</tspan>
</text>
<text x="2350" y="796" class="Tb2" text-anchor="start">
<tspan x="2535">30/30</tspan>
<tspan x="2650">1/1</tspan>
<tspan x="2765">0</tspan>
<tspan x="2880">3</tspan>
<tspan x="2995">skip null:successful</tspan>
</text>
<text x="2350" y="826" class="Tb2" text-anchor="start">
<tspan x="2535">30/30</tspan>
<tspan x="2650">1/1</tspan>
<tspan x="2765">0</tspan>
<tspan x="2880">3</tspan>
<tspan x="2995">skip null:successful</tspan>
</text>
<text x="2350" y="856" class="Tb2" text-anchor="start">
<tspan x="2535">30/30</tspan>
<tspan x="2650">1/1</tspan>
<tspan x="2765">0</tspan>
<tspan x="2880">3</tspan>
<tspan x="2995">skip null:successful</tspan>
</text>
<text x="2350" y="886" class="Tb2" text-anchor="start">
<tspan x="2535">30/30</tspan>
<tspan x="2650">1/1</tspan>
<tspan x="2765">0</tspan>
<tspan x="2880">3</tspan>
<tspan x="2995">skip null:successful</tspan>
</text>
<text x="2350" y="916" class="Tb2" text-anchor="start">
<tspan x="2535">30/30</tspan>
<tspan x="2650">1/1</tspan>
<tspan x="2765">0</tspan>
<tspan x="2880">3</tspan>
<tspan x="2995">skip null:successful</tspan>
</text>
<text x="2350" y="946" class="Tb2" text-anchor="start">
<tspan x="2535">30/30</tspan>
<tspan x="2650">1/1</tspan>
<tspan x="2765">0</tspan>
<tspan x="2880">3</tspan>
<tspan x="2995">skip null:successful</tspan>
</text>
<text x="2350" y="976" class="Tb2" text-anchor="start">
<tspan x="2535">25/25</tspan>
<tspan x="2650">6/6</tspan>
<tspan x="2765">0</tspan>
<tspan x="2880">1</tspan>
<tspan x="2995">skip null:successful</tspan>
</text>
<text x="2350" y="1006" class="Tb2" text-anchor="start">
<tspan x="2535">25/25</tspan>
<tspan x="2650">6/6</tspan>
<tspan x="2765">0</tspan>
<tspan x="2880">1</tspan>
<tspan x="2995">skip null:successful</tspan>
</text>
<text x="2350" y="1036" class="Tb2" text-anchor="start">
<tspan x="2535">25/25</tspan>
<tspan x="2650">6/6</tspan>
<tspan x="2765">0</tspan>
<tspan x="2880">1</tspan>
<tspan x="2995">skip null:successful</tspan>
</text>
<text x="2350" y="1066" class="Tb2" text-anchor="start">
<tspan x="2535">25/25</tspan>
<tspan x="2650">6/6</tspan>
<tspan x="2765">0</tspan>
<tspan x="2880">1</tspan>
<tspan x="2995">skip null:successful</tspan>
</text>
<text x="2350" y="1096" class="Tb2" text-anchor="start">
<tspan x="2535">25/25</tspan>
<tspan x="2650">6/6</tspan>
<tspan x="2765">0</tspan>
<tspan x="2880">1</tspan>
<tspan x="2995">skip null:successful</tspan>
</text>
<text x="2350" y="1126" class="Tb2" text-anchor="start">
<tspan x="2535">25/25</tspan>
<tspan x="2650">6/6</tspan>
<tspan x="2765">0</tspan>
<tspan x="2880">1</tspan>
<tspan x="2995">skip null:successful</tspan>
</text>
<text x="2350" y="1156" class="Tb2" text-anchor="start">
<tspan x="2535">35/35</tspan>
<tspan x="2650">4/4</tspan>
<tspan x="2765">0</tspan>
<tspan x="2880">2</tspan>
<tspan x="2995">skip null:successful</tspan>
</text>
<text x="2350" y="1186" class="Tb2" text-anchor="start">
<tspan x="2535">35/35</tspan>
<tspan x="2650">4/4</tspan>
<tspan x="2765">0</tspan>
<tspan x="2880">2</tspan>
<tspan x="2995">skip null:successful</tspan>
</text>
<text x="2350" y="1216" class="Tb2" text-anchor="start">
<tspan x="2535">35/35</tspan>
<tspan x="2650">4/4</tspan>
<tspan x="2765">0</tspan>
<tspan x="2880">2</tspan>
<tspan x="2995">skip null:successful</tspan>
</text>
<text x="2350" y="1246" class="Tb2" text-anchor="start">
<tspan x="2535">35/35</tspan>
<tspan x="2650">4/4</tspan>
<tspan x="2765">0</tspan>
<tspan x="2880">2</tspan>
<tspan x="2995">skip null:successful</tspan>
</text>
<text x="2350" y="1276" class="Tb2" text-anchor="start">
<tspan x="2535">35/35</tspan>
<tspan x="2650">4/4</tspan>
<tspan x="2765">0</tspan>
<tspan x="2880">2</tspan>
<tspan x="2995">skip null:successful</tspan>
</text>
<text x="2350" y="1306" class="Tb2" text-anchor="start">
<tspan x="2535">35/35</tspan>
<tspan x="2650">4/4</tspan>
<tspan x="2765">0</tspan>
<tspan x="2880">2</tspan>
<tspan x="2995">skip null:successful</tspan>
</text>
<text x="2350" y="1336" class="Tb2" text-anchor="start">
<tspan x="2535">25/25</tspan>
<tspan x="2650">6/6</tspan>
<tspan x="2765">0</tspan>
<tspan x="2880">1</tspan>
<tspan x="2995">skip null:successful</tspan>
</text>
<text x="2350" y="1366" class="Tb2" text-anchor="start">
<tspan x="2535">25/25</tspan>
<tspan x="2650">6/6</tspan>
<tspan x="2765">0</tspan>
<tspan x="2880">1</tspan>
<tspan x="2995">skip null:successful</tspan>
</text>
<text x="2350" y="1396" class="Tb2" text-anchor="start">
<tspan x="2535">25/25</tspan>
<tspan x="2650">6/6</tspan>
<tspan x="2765">0</tspan>
<tspan x="2880">1</tspan>
<tspan x="2995">skip null:successful</tspan>
</text>
<text x="2350" y="1426" class="Tb2" text-anchor="start">
<tspan x="2535">25/25</tspan>
<tspan x="2650">6/6</tspan>
<tspan x="2765">0</tspan>
<tspan x="2880">1</tspan>
<tspan x="2995">skip null:successful</tspan>
</text>
<text x="2350" y="1456" class="Tb2" text-anchor="start">
<tspan x="2535">25/25</tspan>
<tspan x="2650">6/6</tspan>
<tspan x="2765">0</tspan>
<tspan x="2880">1</tspan>
<tspan x="2995">skip null:successful</tspan>
</text>
<text x="2350" y="1486" class="Tb2" text-anchor="start">
<tspan x="2535">25/25</tspan>
<tspan x="2650">6/6</tspan>
<tspan x="2765">0</tspan>
<tspan x="2880">1</tspan>
<tspan x="2995">skip null:successful</tspan>
</text>
<text x="2350" y="1516" class="Tb2" text-anchor="start">
<tspan x="2535">20/20</tspan>
<tspan x="2650">3/3</tspan>
<tspan x="2765">3</tspan>
<tspan x="2880">1</tspan>
<tspan x="2995">skip null:successful</tspan>
</text>
<text x="2350" y="1546" class="Tb2" text-anchor="start">
<tspan x="2535">20/20</tspan>
<tspan x="2650">3/3</tspan>
<tspan x="2765">3</tspan>
<tspan x="2880">1</tspan>
<tspan x="2995">skip null:successful</tspan>
</text>
<text x="2350" y="1576" class="Tb2" text-anchor="start">
<tspan x="2535">20/20</tspan>
<tspan x="2650">3/3</tspan>
<tspan x="2765">3</tspan>
<tspan x="2880">1</tspan>
<tspan x="2995">skip null:successful</tspan>
</text>
<text x="2350" y="1606" class="Tb2" text-anchor="start">
<tspan x="2535">20/20</tspan>
<tspan x="2650">3/3</tspan>
<tspan x="2765">3</tspan>
<tspan x="2880">1</tspan>
<tspan x="2995">skip null:successful</tspan>
</text>
<text x="2350" y="1636" class="Tb2" text-anchor="start">
<tspan x="2535">30/30</tspan>
<tspan x="2650">1/1</tspan>
<tspan x="2765">0</tspan>
<tspan x="2880">3</tspan>
<tspan x="2995">skip null:successful</tspan>
</text>
<text x="2350" y="1666" class="Tb2" text-anchor="start">
<tspan x="2535">30/30</tspan>
<tspan x="2650">1/1</tspan>
<tspan x="2765">0</tspan>
<tspan x="2880">3</tspan>
<tspan x="2995">skip null:successful</tspan>
</text>
<text x="2350" y="1696" class="Tb2" text-anchor="start">
<tspan x="2535">30/30</tspan>
<tspan x="2650">1/1</tspan>
<tspan x="2765">0</tspan>
<tspan x="2880">3</tspan>
<tspan x="2995">skip null:successful</tspan>
</text>
<text x="2350" y="1726" class="Tb2" text-anchor="start">
<tspan x="2535">30/30</tspan>
<tspan x="2650">1/1</tspan>
<tspan x="2765">0</tspan>
<tspan x="2880">3</tspan>
<tspan x="2995">skip null:successful</tspan>
</text>
<text x="2350" y="1756" class="Tb2" text-anchor="start">
<tspan x="2535">30/30</tspan>
<tspan x="2650">1/1</tspan>
<tspan x="2765">0</tspan>
<tspan x="2880">3</tspan>
<tspan x="2995">skip null:successful</tspan>
</text>
<text x="2350" y="1786" class="Tb2" text-anchor="start">
<tspan x="2535">30/30</tspan>
<tspan x="2650">1/1</tspan>
<tspan x="2765">0</tspan>
<tspan x="2880">3</tspan>
<tspan x="2995">skip null:successful</tspan>
</text>
<text x="2350" y="1816" class="Tb2" text-anchor="start">
<tspan x="2535">25/25</tspan>
<tspan x="2650">6/6</tspan>
<tspan x="2765">0</tspan>
<tspan x="2880">1</tspan>
<tspan x="2995">skip null:successful</tspan>
</text>
<text x="2350" y="1846" class="Tb2" text-anchor="start">
<tspan x="2535">25/25</tspan>
<tspan x="2650">6/6</tspan>
<tspan x="2765">0</tspan>
<tspan x="2880">1</tspan>
<tspan x="2995">skip null:successful</tspan>
</text>
<text x="2350" y="1876" class="Tb2" text-anchor="start">
<tspan x="2535">25/25</tspan>
<tspan x="2650">6/6</tspan>
<tspan x="2765">0</tspan>
<tspan x="2880">1</tspan>
<tspan x="2995">skip null:successful</tspan>
</text>
<text x="2350" y="1906" class="Tb2" text-anchor="start">
<tspan x="2535">25/25</tspan>
<tspan x="2650">6/6</tspan>
<tspan x="2765">0</tspan>
<tspan x="2880">1</tspan>
<tspan x="2995">skip null:successful</tspan>
</text>
<text x="2350" y="1936" class="Tb2" text-anchor="start">
<tspan x="2535">25/25</tspan>
<tspan x="2650">6/6</tspan>
<tspan x="2765">0</tspan>
<tspan x="2880">1</tspan>
<tspan x="2995">skip null:successful</tspan>
</text>
<text x="2350" y="1966" class="Tb2" text-anchor="start">
<tspan x="2535">25/25</tspan>
<tspan x="2650">6/6</tspan>
<tspan x="2765">0</tspan>
<tspan x="2880">1</tspan>
<tspan x="2995">skip null:successful</tspan>
</text>
</g>
<line y2="442" x1="3290" class="s5 sw1" x2="3290" y1="1996"/>
<g id="achievementPart" transform="translate(-100, 150)">
<text x="3400" y="301" class="TxtAch">
<tspan x="3400">Achievements</tspan>
<tspan fill="rgba(0,158,115,1.0)" x="3400" y="331">A</tspan>
<tspan fill="rgba(0,114,178,1.0)" x="3400" y="356">B</tspan>
</text>
</g>
</g>
</svg>
