<?xml version="1.0" encoding="UTF-8"?><?xml-stylesheet type="text/css" href="style.css"?><svg xmlns="http://www.w3.org/2000/svg" xmlns:xlink="http://www.w3.org/1999/xlink" contentScriptType="text/ecmascript" zoomAndPan="magnify" contentStyleType="text/css" preserveAspectRatio="xMidYMid meet" version="1.0">
<defs>
<marker refX="100" refY="10" markerUnits="strokeWidth" orient="auto" class="f2" markerHeight="6" id="ar1" viewBox="0 0 20 20" markerWidth="8">
<path d="M 0 0 L 20 10 L 0 20 z"/>
</marker>
</defs>
<g id="scaleSvg" transform="scale(0.25)">
<polygon class="T1" points="1150,1550 1150,1350 1250,1450 "/>
<polygon class="T1" points="1450,750 1450,550 1550,650 1550,750 "/>
<polygon class="T1" points="1150,1350 1150,1550 1150,1350 1250,1450 1150,1550 "/>
<polygon class="T1" points="1250,1450 1150,1350 1250,1450 1150,1550 1150,1350 "/>
<polygon class="T1" points="1150,1550 1250,1450 1150,1550 1150,1350 1250,1450 "/>
<polygon class="T1" points="1250,1650 1150,1550 1150,1350 1250,1450 1150,1550 "/>
<polygon class="T1" points="1150,1250 1150,1350 1250,1450 1150,1550 1150,1350 "/>
<polygon class="T1" points="1250,650 1450,550 1550,650 1550,750 1450,750 1450,550 "/>
<polygon class="T1" points="1450,550 1450,750 1450,550 1550,650 1550,750 1450,750 "/>
<polygon class="T1" points="1550,650 1450,550 1550,650 1550,750 1450,750 1450,550 "/>
<polygon class="T1" points="1550,750 1550,650 1550,750 1450,750 1450,550 1550,650 "/>
<polygon class="T1" points="1450,750 1550,750 1450,750 1450,550 1550,650 1550,750 "/>
<circle r="25" class="T1n" cx="1050" cy="2150"/>
<circle r="25" class="T1n" cx="2150" cy="150"/>
<circle r="25" class="T1n" cx="850" cy="2150"/>
<circle r="25" class="T1n" cx="1550" cy="2150"/>
<circle r="25" class="T1n" cx="650" cy="650"/>
<circle r="25" class="T1n" cx="1250" cy="1450"/>
<circle r="25" class="T1n" cx="1050" cy="1750"/>
<circle r="25" class="T1n" cx="350" cy="350"/>
<circle r="25" class="T1n" cx="1550" cy="650"/>
<circle r="25" class="T1n" cx="250" cy="2050"/>
<circle r="25" class="T1n" cx="350" cy="1950"/>
<circle r="25" class="T1n" cx="1450" cy="750"/>
<circle r="25" class="T1n" cx="2150" cy="1050"/>
<circle r="25" class="T1n" cx="150" cy="2150"/>
<circle r="25" class="T1n" cx="1550" cy="750"/>
<circle r="25" class="T1n" cx="50" cy="1550"/>
<circle r="25" class="T1n" cx="1250" cy="650"/>
<circle r="25" class="T1n" cx="1150" cy="1250"/>
<circle r="25" class="T1n" cx="1150" cy="1350"/>
<circle r="25" class="T1n" cx="1150" cy="1550"/>
<circle r="25" class="T1n" cx="150" cy="250"/>
<circle r="25" class="T1n" cx="1250" cy="1650"/>
<circle r="25" class="T1n" cx="1450" cy="550"/>
<line y2="2150" x1="250" class="T1e" x2="150" y1="2050"/>
<line y2="1950" x1="250" class="T1e" x2="350" y1="2050"/>
<line y2="550" x1="1250" class="T1e" x2="1450" y1="650"/>
<line y2="1550" x1="1150" class="T1e" x2="1150" y1="1350"/>
<line y2="550" x1="1450" class="T1e" x2="1450" y1="750"/>
<line y2="1450" x1="1150" class="T1e" x2="1250" y1="1350"/>
<line y2="1550" x1="1250" class="T1e" x2="1150" y1="1450"/>
<line y2="550" x1="1550" class="T1e" x2="1450" y1="650"/>
<line y2="1550" x1="1250" class="T1e" x2="1150" y1="1650"/>
<line y2="1350" x1="1150" class="T1e" x2="1150" y1="1250"/>
<line y2="750" x1="1550" class="T1e" x2="1550" y1="650"/>
<line y2="750" x1="1450" class="T1e" x2="1550" y1="750"/>
<circle r="5" class="N" cx="1050" cy="2150"/>
<circle r="8" class="N" cx="2150" cy="150"/>
<circle r="8" class="N" cx="850" cy="2150"/>
<circle r="8" class="N" cx="1550" cy="2150"/>
<circle r="9" class="N" cx="650" cy="650"/>
<circle r="5" class="N" cx="1250" cy="1450"/>
<circle r="5" class="N" cx="1050" cy="1750"/>
<circle r="6" class="N" cx="350" cy="350"/>
<circle r="9" class="N" cx="1550" cy="650"/>
<circle r="5" class="N" cx="250" cy="2050"/>
<circle r="6" class="N" cx="350" cy="1950"/>
<circle r="11" class="N" cx="1450" cy="750"/>
<circle r="9" class="N" cx="2150" cy="1050"/>
<circle r="5" class="N" cx="150" cy="2150"/>
<circle r="6" class="N" cx="1550" cy="750"/>
<circle r="5" class="N" cx="50" cy="1550"/>
<circle r="11" class="N" cx="1250" cy="650"/>
<circle r="11" class="N" cx="1150" cy="1250"/>
<circle r="6" class="N" cx="1150" cy="1350"/>
<circle r="5" class="N" cx="1150" cy="1550"/>
<circle r="11" class="N" cx="150" cy="250"/>
<circle r="6" class="N" cx="1250" cy="1650"/>
<circle r="18" class="N" cx="1450" cy="550"/>
<line y2="2150" x1="250" class="E sw9" x2="150" y1="2050"/>
<line y2="1950" x1="250" class="E sw10" x2="350" y1="2050"/>
<line y2="550" x1="1250" class="E sw9" x2="1450" y1="650"/>
<line y2="1550" x1="1150" class="E sw11" x2="1150" y1="1350"/>
<line y2="550" x1="1450" class="E sw8" x2="1450" y1="750"/>
<line y2="1450" x1="1150" class="E sw11" x2="1250" y1="1350"/>
<line y2="1550" x1="1250" class="E sw10" x2="1150" y1="1450"/>
<line y2="550" x1="1550" class="E sw9" x2="1450" y1="650"/>
<line y2="1550" x1="1250" class="E sw5" x2="1150" y1="1650"/>
<line y2="1350" x1="1150" class="E sw10" x2="1150" y1="1250"/>
<line y2="750" x1="1550" class="E sw4" x2="1550" y1="650"/>
<line y2="750" x1="1450" class="E sw7" x2="1550" y1="750"/>
<polygon class="T2" points="550,1750 650,1650 650,1750 "/>
<polygon class="T2" points="650,1750 550,1850 550,1750 "/>
<polygon class="T2" points="550,1850 650,1750 650,1850 "/>
<polygon class="T2" points="450,1650 550,1550 650,1650 550,1750 "/>
<polygon class="T2" points="450,1650 550,1750 650,1650 650,1750 550,1750 "/>
<polygon class="T2" points="650,1650 550,1550 650,1650 650,1750 550,1750 "/>
<polygon class="T2" points="650,1850 750,1750 650,1850 550,1850 650,1750 "/>
<polygon class="T2" points="650,1750 650,1650 650,1750 550,1850 550,1750 "/>
<polygon class="T2" points="650,1850 650,1750 550,1850 550,1750 650,1750 "/>
<polygon class="T2" points="550,1850 650,1850 550,1850 650,1750 650,1850 "/>
<polygon class="T2" points="550,1750 550,1850 650,1750 650,1850 550,1850 "/>
<polygon class="T2" points="550,1550 450,1650 550,1550 650,1650 550,1750 450,1650 "/>
<polygon class="T2" points="850,1750 750,1750 650,1850 550,1850 650,1750 650,1850 750,1750 "/>
<circle r="25" class="T2n" cx="850" cy="850"/>
<circle r="25" class="T2n" cx="1850" cy="1150"/>
<circle r="25" class="T2n" cx="1550" cy="1750"/>
<circle r="25" class="T2n" cx="450" cy="1650"/>
<circle r="25" class="T2n" cx="350" cy="1150"/>
<circle r="25" class="T2n" cx="650" cy="1650"/>
<circle r="25" class="T2n" cx="1450" cy="850"/>
<circle r="25" class="T2n" cx="2150" cy="1650"/>
<circle r="25" class="T2n" cx="1650" cy="1850"/>
<circle r="25" class="T2n" cx="50" cy="250"/>
<circle r="25" class="T2n" cx="1550" cy="550"/>
<circle r="25" class="T2n" cx="850" cy="1750"/>
<circle r="25" class="T2n" cx="1150" cy="1150"/>
<circle r="25" class="T2n" cx="750" cy="950"/>
<circle r="25" class="T2n" cx="950" cy="650"/>
<circle r="25" class="T2n" cx="750" cy="50"/>
<circle r="25" class="T2n" cx="1950" cy="950"/>
<circle r="25" class="T2n" cx="1650" cy="150"/>
<circle r="25" class="T2n" cx="750" cy="1750"/>
<circle r="25" class="T2n" cx="550" cy="1850"/>
<circle r="25" class="T2n" cx="1450" cy="1350"/>
<circle r="25" class="T2n" cx="650" cy="1750"/>
<circle r="25" class="T2n" cx="2050" cy="1550"/>
<circle r="25" class="T2n" cx="1850" cy="250"/>
<circle r="25" class="T2n" cx="650" cy="1850"/>
<circle r="25" class="T2n" cx="550" cy="1750"/>
<circle r="25" class="T2n" cx="550" cy="350"/>
<circle r="25" class="T2n" cx="550" cy="1550"/>
<circle r="25" class="T2n" cx="650" cy="250"/>
<circle r="25" class="T2n" cx="1150" cy="1650"/>
<circle r="25" class="T2n" cx="850" cy="1950"/>
<circle r="25" class="T2n" cx="650" cy="150"/>
<circle r="25" class="T2n" cx="1750" cy="1950"/>
<circle r="25" class="T2n" cx="850" cy="150"/>
<line y2="850" x1="950" class="T2e" x2="850" y1="650"/>
<line y2="1950" x1="850" class="T2e" x2="850" y1="1750"/>
<line y2="1550" x1="450" class="T2e" x2="550" y1="1650"/>
<line y2="1750" x1="450" class="T2e" x2="550" y1="1650"/>
<line y2="1550" x1="650" class="T2e" x2="550" y1="1650"/>
<line y2="1750" x1="650" class="T2e" x2="550" y1="1650"/>
<line y2="1750" x1="650" class="T2e" x2="750" y1="1850"/>
<line y2="950" x1="850" class="T2e" x2="750" y1="850"/>
<line y2="50" x1="850" class="T2e" x2="750" y1="150"/>
<line y2="1850" x1="650" class="T2e" x2="550" y1="1750"/>
<line y2="50" x1="650" class="T2e" x2="750" y1="150"/>
<line y2="350" x1="650" class="T2e" x2="550" y1="250"/>
<line y2="1750" x1="850" class="T2e" x2="750" y1="1750"/>
<line y2="1750" x1="650" class="T2e" x2="650" y1="1650"/>
<line y2="1750" x1="650" class="T2e" x2="650" y1="1850"/>
<line y2="1850" x1="650" class="T2e" x2="550" y1="1850"/>
<line y2="1750" x1="650" class="T2e" x2="550" y1="1750"/>
<line y2="250" x1="650" class="T2e" x2="650" y1="150"/>
<line y2="1850" x1="550" class="T2e" x2="550" y1="1750"/>
<line y2="1850" x1="1550" class="T2e" x2="1650" y1="1750"/>
<line y2="1850" x1="1750" class="T2e" x2="1650" y1="1950"/>
<circle r="8" class="N" cx="850" cy="850"/>
<circle r="6" class="N" cx="1850" cy="1150"/>
<circle r="18" class="N" cx="1550" cy="1750"/>
<circle r="6" class="N" cx="450" cy="1650"/>
<circle r="6" class="N" cx="350" cy="1150"/>
<circle r="9" class="N" cx="650" cy="1650"/>
<circle r="6" class="N" cx="1450" cy="850"/>
<circle r="5" class="N" cx="2150" cy="1650"/>
<circle r="11" class="N" cx="1650" cy="1850"/>
<circle r="8" class="N" cx="50" cy="250"/>
<circle r="6" class="N" cx="1550" cy="550"/>
<circle r="6" class="N" cx="850" cy="1750"/>
<circle r="18" class="N" cx="1150" cy="1150"/>
<circle r="6" class="N" cx="750" cy="950"/>
<circle r="11" class="N" cx="950" cy="650"/>
<circle r="6" class="N" cx="750" cy="50"/>
<circle r="11" class="N" cx="1950" cy="950"/>
<circle r="5" class="N" cx="1650" cy="150"/>
<circle r="9" class="N" cx="750" cy="1750"/>
<circle r="11" class="N" cx="550" cy="1850"/>
<circle r="5" class="N" cx="1450" cy="1350"/>
<circle r="18" class="N" cx="650" cy="1750"/>
<circle r="5" class="N" cx="2050" cy="1550"/>
<circle r="15" class="N" cx="1850" cy="250"/>
<circle r="14" class="N" cx="650" cy="1850"/>
<circle r="9" class="N" cx="550" cy="1750"/>
<circle r="6" class="N" cx="550" cy="350"/>
<circle r="6" class="N" cx="550" cy="1550"/>
<circle r="6" class="N" cx="650" cy="250"/>
<circle r="5" class="N" cx="1150" cy="1650"/>
<circle r="6" class="N" cx="850" cy="1950"/>
<circle r="6" class="N" cx="650" cy="150"/>
<circle r="9" class="N" cx="1750" cy="1950"/>
<circle r="8" class="N" cx="850" cy="150"/>
<line y2="850" x1="950" class="E sw11" x2="850" y1="650"/>
<line y2="1950" x1="850" class="E sw3" x2="850" y1="1750"/>
<line y2="1550" x1="450" class="E sw5" x2="550" y1="1650"/>
<line y2="1750" x1="450" class="E sw6" x2="550" y1="1650"/>
<line y2="1550" x1="650" class="E sw7" x2="550" y1="1650"/>
<line y2="1750" x1="650" class="E sw4" x2="550" y1="1650"/>
<line y2="1750" x1="650" class="E sw11" x2="750" y1="1850"/>
<line y2="950" x1="850" class="E sw8" x2="750" y1="850"/>
<line y2="50" x1="850" class="E sw4" x2="750" y1="150"/>
<line y2="1850" x1="650" class="E sw4" x2="550" y1="1750"/>
<line y2="50" x1="650" class="E sw3" x2="750" y1="150"/>
<line y2="350" x1="650" class="E sw3" x2="550" y1="250"/>
<line y2="1750" x1="850" class="E sw8" x2="750" y1="1750"/>
<line y2="1750" x1="650" class="E sw11" x2="650" y1="1650"/>
<line y2="1750" x1="650" class="E sw9" x2="650" y1="1850"/>
<line y2="1850" x1="650" class="E sw4" x2="550" y1="1850"/>
<line y2="1750" x1="650" class="E sw11" x2="550" y1="1750"/>
<line y2="250" x1="650" class="E sw4" x2="650" y1="150"/>
<line y2="1850" x1="550" class="E sw7" x2="550" y1="1750"/>
<line y2="1850" x1="1550" class="E sw4" x2="1650" y1="1750"/>
<line y2="1850" x1="1750" class="E sw6" x2="1650" y1="1950"/>
<polygon class=" s5 sw2 f13" points="1848,1180 1866,1180 1875,1189 1875,1207 1866,1216 1848,1216 1839,1207 1839,1189"/>
<rect x="1830" width="54" y="1162" height="18" class="s13 sw2 f8"/>
<text x="1850" y="1201" class="f4">8</text>
<circle r="6" class="s4 sw1 f8" cx="1854" cy="1174"/>
<circle r="6" class="s4 sw1 f8" cx="1872" cy="1174"/>
<line y2="1174" x1="1860" class="s4 sw1" x2="1866" y1="1174"/>
<line y2="1162" x1="1848" class="s4 sw1" x2="1860" y1="1174"/>
<line y2="1162" x1="1878" class="s4 sw1" x2="1884" y1="1174"/>
<polygon class=" s5 sw2 f13" points="1530,1780 1584,1780 1557,1816"/>
<rect x="1530" width="54" y="1762" height="18" class="s13 sw2 f8"/>
<text x="1550" y="1801" class="f4">25</text>
<circle stroke-width="0" r="3" class="s4 f4" cx="1566" cy="1765"/>
<circle stroke-width="0" r="3" class="s4 f4" cx="1566" cy="1777"/>
<circle stroke-width="0" r="3" class="s4 f4" cx="1557" cy="1771"/>
<circle stroke-width="0" r="3" class="s4 f4" cx="1575" cy="1771"/>
<line y2="1771" x1="1560" class="s4 sw1" x2="1572" y1="1771"/>
<line y2="1774" x1="1566" class="s4 sw1" x2="1566" y1="1768"/>
<circle r="18" class="s5 sw2 f13" cx="357" cy="1198"/>
<rect x="330" width="54" y="1162" height="18" class="s13 sw2 f8"/>
<text x="350" y="1201" class="f4">6</text>
<polygon stroke-width="0" class=" s4 f4" points="357,1162 375,1162 366,1180"/>
<polygon class=" s5 sw2 f14" points="1030,2180 1084,2180 1057,2216"/>
<rect x="1030" width="54" y="2162" height="18" class="s14 sw2 f8"/>
<text x="1050" y="2201" class="f4">23</text>
<polygon stroke-width="0" class=" s4 f4" points="1066,2162 1066,2168 1072,2168 1060,2180 1060,2174 1054,2174"/>
<polygon class=" s5 sw2 f13" points="1448,880 1466,880 1475,889 1475,907 1466,916 1448,916 1439,907 1439,889"/>
<rect x="1430" width="54" y="862" height="18" class="s13 sw2 f8"/>
<text x="1450" y="901" class="f4">7</text>
<circle r="6" class="s4 sw1 f8" cx="1454" cy="874"/>
<circle r="6" class="s4 sw1 f8" cx="1472" cy="874"/>
<line y2="874" x1="1460" class="s4 sw1" x2="1466" y1="874"/>
<line y2="862" x1="1448" class="s4 sw1" x2="1460" y1="874"/>
<line y2="862" x1="1478" class="s4 sw1" x2="1484" y1="874"/>
<rect x="2139" width="36" y="1680" height="36" class="s5 sw2 f13"/>
<rect x="2130" width="54" y="1662" height="18" class="s13 sw2 f8"/>
<text x="2150" y="1701" class="f4">21</text>
<circle r="6" class="s4 sw1 f8" cx="2154" cy="1674"/>
<circle r="6" class="s4 sw1 f8" cx="2172" cy="1674"/>
<line y2="1674" x1="2160" class="s4 sw1" x2="2166" y1="1674"/>
<line y2="1662" x1="2148" class="s4 sw1" x2="2160" y1="1674"/>
<line y2="1662" x1="2178" class="s4 sw1" x2="2184" y1="1674"/>
<polygon class=" s5 sw2 f14" points="2130,180 2184,180 2157,216"/>
<rect x="2130" width="54" y="162" height="18" class="s14 sw2 f8"/>
<text x="2150" y="201" class="f4">24</text>
<circle stroke-width="0" r="3" class="s4 f4" cx="2166" cy="165"/>
<circle stroke-width="0" r="3" class="s4 f4" cx="2166" cy="177"/>
<circle stroke-width="0" r="3" class="s4 f4" cx="2157" cy="171"/>
<circle stroke-width="0" r="3" class="s4 f4" cx="2175" cy="171"/>
<line y2="171" x1="2160" class="s4 sw1" x2="2172" y1="171"/>
<line y2="174" x1="2166" class="s4 sw1" x2="2166" y1="168"/>
<polygon class=" s5 sw2 f13" points="30,280 84,280 57,316"/>
<rect x="30" width="54" y="262" height="18" class="s13 sw2 f8"/>
<text x="50" y="301" class="f4">24</text>
<polygon stroke-width="0" class=" s4 f4" points="66,262 66,268 72,268 60,280 60,274 54,274"/>
<circle r="18" class="s5 sw2 f14" cx="857" cy="2198"/>
<rect x="830" width="54" y="2162" height="18" class="s14 sw2 f8"/>
<text x="850" y="2201" class="f4">5</text>
<polygon stroke-width="0" class=" s4 f4" points="857,2162 875,2162 866,2180"/>
<rect x="1539" width="36" y="580" height="36" class="s5 sw2 f13"/>
<rect x="1530" width="54" y="562" height="18" class="s13 sw2 f8"/>
<text x="1550" y="601" class="f4">18</text>
<circle r="6" class="s4 sw1 f8" cx="1554" cy="574"/>
<circle r="6" class="s4 sw1 f8" cx="1572" cy="574"/>
<line y2="574" x1="1560" class="s4 sw1" x2="1566" y1="574"/>
<line y2="562" x1="1548" class="s4 sw1" x2="1560" y1="574"/>
<line y2="562" x1="1578" class="s4 sw1" x2="1584" y1="574"/>
<polygon class=" s5 sw2 f13" points="848,1780 866,1780 875,1789 875,1807 866,1816 848,1816 839,1807 839,1789"/>
<rect x="830" width="54" y="1762" height="18" class="s13 sw2 f8"/>
<text x="850" y="1801" class="f4">10</text>
<circle stroke-width="0" r="3" class="s4 f4" cx="866" cy="1765"/>
<circle stroke-width="0" r="3" class="s4 f4" cx="866" cy="1777"/>
<circle stroke-width="0" r="3" class="s4 f4" cx="857" cy="1771"/>
<circle stroke-width="0" r="3" class="s4 f4" cx="875" cy="1771"/>
<line y2="1771" x1="860" class="s4 sw1" x2="872" y1="1771"/>
<line y2="1774" x1="866" class="s4 sw1" x2="866" y1="1768"/>
<circle r="18" class="s5 sw2 f14" cx="1557" cy="2198"/>
<rect x="1530" width="54" y="2162" height="18" class="s14 sw2 f8"/>
<text x="1550" y="2201" class="f4">1</text>
<polygon stroke-width="0" class=" s4 f4" points="1557,2162 1575,2162 1566,2180"/>
<polygon class=" s5 sw2 f14" points="648,680 666,680 675,689 675,707 666,716 648,716 639,707 639,689"/>
<rect x="630" width="54" y="662" height="18" class="s14 sw2 f8"/>
<text x="650" y="701" class="f4">12</text>
<circle stroke-width="0" r="3" class="s4 f4" cx="666" cy="665"/>
<circle stroke-width="0" r="3" class="s4 f4" cx="666" cy="677"/>
<circle stroke-width="0" r="3" class="s4 f4" cx="657" cy="671"/>
<circle stroke-width="0" r="3" class="s4 f4" cx="675" cy="671"/>
<line y2="671" x1="660" class="s4 sw1" x2="672" y1="671"/>
<line y2="674" x1="666" class="s4 sw1" x2="666" y1="668"/>
<polygon class=" s5 sw2 f14" points="678,653 696,653 705,662 705,680 696,689 678,689 669,680 669,662"/>
<rect x="660" width="54" y="635" height="18" class="s14 sw2 f8"/>
<text x="680" y="674" class="f4">8</text>
<circle stroke-width="0" r="3" class="s4 f4" cx="696" cy="638"/>
<circle stroke-width="0" r="3" class="s4 f4" cx="696" cy="650"/>
<circle stroke-width="0" r="3" class="s4 f4" cx="687" cy="644"/>
<circle stroke-width="0" r="3" class="s4 f4" cx="705" cy="644"/>
<line y2="644" x1="690" class="s4 sw1" x2="702" y1="644"/>
<line y2="647" x1="696" class="s4 sw1" x2="696" y1="641"/>
<rect x="1239" width="36" y="1480" height="36" class="s5 sw2 f14"/>
<rect x="1230" width="54" y="1462" height="18" class="s14 sw2 f8"/>
<text x="1250" y="1501" class="f4">17</text>
<polygon stroke-width="0" class=" s4 f4" points="1266,1462 1266,1468 1272,1468 1260,1480 1260,1474 1254,1474"/>
<polygon class=" s5 sw2 f14" points="1048,1780 1066,1780 1075,1789 1075,1807 1066,1816 1048,1816 1039,1807 1039,1789"/>
<rect x="1030" width="54" y="1762" height="18" class="s14 sw2 f8"/>
<text x="1050" y="1801" class="f4">10</text>
<polygon stroke-width="0" class=" s4 f4" points="1066,1762 1066,1768 1072,1768 1060,1780 1060,1774 1054,1774"/>
<circle r="18" class="s5 sw2 f13" cx="1157" cy="1198"/>
<rect x="1130" width="54" y="1162" height="18" class="s13 sw2 f8"/>
<text x="1150" y="1201" class="f4">4</text>
<polygon stroke-width="0" class=" s4 f4" points="1157,1162 1175,1162 1166,1180"/>
<rect x="339" width="36" y="380" height="36" class="s5 sw2 f14"/>
<rect x="330" width="54" y="362" height="18" class="s14 sw2 f8"/>
<text x="350" y="401" class="f4">18</text>
<polygon stroke-width="0" class=" s4 f4" points="366,362 366,368 372,368 360,380 360,374 354,374"/>
<circle r="18" class="s5 sw2 f14" cx="1657" cy="398"/>
<rect x="1630" width="54" y="362" height="18" class="s14 sw2 f8"/>
<text x="1650" y="401" class="f4">3</text>
<polygon stroke-width="0" class=" s4 f4" points="1666,362 1666,368 1672,368 1660,380 1660,374 1654,374"/>
<polygon class=" s5 sw2 f13" points="1687,353 1705,371 1687,389 1669,371"/>
<rect x="1660" width="54" y="335" height="18" class="s13 sw2 f8"/>
<text x="1680" y="374" class="f4">14</text>
<polygon stroke-width="0" class=" s4 f4" points="1696,335 1696,341 1702,341 1690,353 1690,347 1684,347"/>
<polygon class=" s5 sw2 f13" points="748,980 766,980 775,989 775,1007 766,1016 748,1016 739,1007 739,989"/>
<rect x="730" width="54" y="962" height="18" class="s13 sw2 f8"/>
<text x="750" y="1001" class="f4">11</text>
<circle r="6" class="s4 sw1 f8" cx="754" cy="974"/>
<circle r="6" class="s4 sw1 f8" cx="772" cy="974"/>
<line y2="974" x1="760" class="s4 sw1" x2="766" y1="974"/>
<line y2="962" x1="748" class="s4 sw1" x2="760" y1="974"/>
<line y2="962" x1="778" class="s4 sw1" x2="784" y1="974"/>
<polygon class=" s5 sw2 f13" points="930,680 984,680 957,716"/>
<rect x="930" width="54" y="662" height="18" class="s13 sw2 f8"/>
<text x="950" y="701" class="f4">28</text>
<polygon stroke-width="0" class=" s4 f4" points="966,662 966,668 972,668 960,680 960,674 954,674"/>
<polygon class=" s5 sw2 f14" points="987,653 1005,671 987,689 969,671"/>
<line y2="689" x1="969" class="s7 sw6" x2="1005" y1="653"/>
<line y2="689" x1="1005" class="s7 sw6" x2="969" y1="653"/>
<rect x="960" width="54" y="635" height="18" class="s14 sw2 f8"/>
<text x="980" y="674" class="f4">14</text>
<polygon stroke-width="0" class=" s4 f4" points="996,635 996,641 1002,641 990,653 990,647 984,647"/>
<rect x="1539" width="36" y="680" height="36" class="s5 sw2 f14"/>
<line y2="716" x1="1539" class="s7 sw6" x2="1575" y1="680"/>
<line y2="716" x1="1575" class="s7 sw6" x2="1539" y1="680"/>
<rect x="1530" width="54" y="662" height="18" class="s14 sw2 f8"/>
<text x="1550" y="701" class="f4">20</text>
<circle stroke-width="0" r="3" class="s4 f4" cx="1566" cy="665"/>
<circle stroke-width="0" r="3" class="s4 f4" cx="1566" cy="677"/>
<circle stroke-width="0" r="3" class="s4 f4" cx="1557" cy="671"/>
<circle stroke-width="0" r="3" class="s4 f4" cx="1575" cy="671"/>
<line y2="671" x1="1560" class="s4 sw1" x2="1572" y1="671"/>
<line y2="674" x1="1566" class="s4 sw1" x2="1566" y1="668"/>
<polygon class=" s5 sw2 f13" points="1948,980 1966,980 1975,989 1975,1007 1966,1016 1948,1016 1939,1007 1939,989"/>
<rect x="1930" width="54" y="962" height="18" class="s13 sw2 f8"/>
<text x="1950" y="1001" class="f4">12</text>
<circle r="6" class="s4 sw1 f8" cx="1954" cy="974"/>
<circle r="6" class="s4 sw1 f8" cx="1972" cy="974"/>
<line y2="974" x1="1960" class="s4 sw1" x2="1966" y1="974"/>
<line y2="962" x1="1948" class="s4 sw1" x2="1960" y1="974"/>
<line y2="962" x1="1978" class="s4 sw1" x2="1984" y1="974"/>
<polygon class=" s5 sw2 f13" points="1048,580 1066,580 1075,589 1075,607 1066,616 1048,616 1039,607 1039,589"/>
<rect x="1030" width="54" y="562" height="18" class="s13 sw2 f8"/>
<text x="1050" y="601" class="f4">9</text>
<circle r="6" class="s4 sw1 f8" cx="1054" cy="574"/>
<circle r="6" class="s4 sw1 f8" cx="1072" cy="574"/>
<line y2="574" x1="1060" class="s4 sw1" x2="1066" y1="574"/>
<line y2="562" x1="1048" class="s4 sw1" x2="1060" y1="574"/>
<line y2="562" x1="1078" class="s4 sw1" x2="1084" y1="574"/>
<polygon class=" s5 sw2 f14" points="1078,553 1096,553 1105,562 1105,580 1096,589 1078,589 1069,580 1069,562"/>
<rect x="1060" width="54" y="535" height="18" class="s14 sw2 f8"/>
<text x="1080" y="574" class="f4">9</text>
<polygon stroke-width="0" class=" s4 f4" points="1096,535 1096,541 1102,541 1090,553 1090,547 1084,547"/>
<rect x="439" width="36" y="480" height="36" class="s5 sw2 f14"/>
<line y2="516" x1="439" class="s7 sw6" x2="475" y1="480"/>
<line y2="516" x1="475" class="s7 sw6" x2="439" y1="480"/>
<rect x="430" width="54" y="462" height="18" class="s14 sw2 f8"/>
<text x="450" y="501" class="f4">22</text>
<polygon stroke-width="0" class=" s4 f4" points="466,462 466,468 472,468 460,480 460,474 454,474"/>
<polygon class=" s5 sw2 f14" points="330,1980 384,1980 357,2016"/>
<rect x="330" width="54" y="1962" height="18" class="s14 sw2 f8"/>
<text x="350" y="2001" class="f4">25</text>
<circle stroke-width="0" r="3" class="s4 f4" cx="366" cy="1965"/>
<circle stroke-width="0" r="3" class="s4 f4" cx="366" cy="1977"/>
<circle stroke-width="0" r="3" class="s4 f4" cx="357" cy="1971"/>
<circle stroke-width="0" r="3" class="s4 f4" cx="375" cy="1971"/>
<line y2="1971" x1="360" class="s4 sw1" x2="372" y1="1971"/>
<line y2="1974" x1="366" class="s4 sw1" x2="366" y1="1968"/>
<circle r="18" class="s5 sw2 f14" cx="2157" cy="1098"/>
<rect x="2130" width="54" y="1062" height="18" class="s14 sw2 f8"/>
<text x="2150" y="1101" class="f4">6</text>
<polygon stroke-width="0" class=" s4 f4" points="2157,1062 2175,1062 2166,1080"/>
<rect x="1639" width="36" y="180" height="36" class="s5 sw2 f13"/>
<rect x="1630" width="54" y="162" height="18" class="s13 sw2 f8"/>
<text x="1650" y="201" class="f4">22</text>
<circle r="6" class="s4 sw1 f8" cx="1654" cy="174"/>
<circle r="6" class="s4 sw1 f8" cx="1672" cy="174"/>
<line y2="174" x1="1660" class="s4 sw1" x2="1666" y1="174"/>
<line y2="162" x1="1648" class="s4 sw1" x2="1660" y1="174"/>
<line y2="162" x1="1678" class="s4 sw1" x2="1684" y1="174"/>
<rect x="139" width="36" y="2180" height="36" class="s5 sw2 f14"/>
<rect x="130" width="54" y="2162" height="18" class="s14 sw2 f8"/>
<text x="150" y="2201" class="f4">21</text>
<circle stroke-width="0" r="3" class="s4 f4" cx="166" cy="2165"/>
<circle stroke-width="0" r="3" class="s4 f4" cx="166" cy="2177"/>
<circle stroke-width="0" r="3" class="s4 f4" cx="157" cy="2171"/>
<circle stroke-width="0" r="3" class="s4 f4" cx="175" cy="2171"/>
<line y2="2171" x1="160" class="s4 sw1" x2="172" y1="2171"/>
<line y2="2174" x1="166" class="s4 sw1" x2="166" y1="2168"/>
<polygon class=" s5 sw2 f14" points="1548,780 1566,780 1575,789 1575,807 1566,816 1548,816 1539,807 1539,789"/>
<rect x="1530" width="54" y="762" height="18" class="s14 sw2 f8"/>
<text x="1550" y="801" class="f4">11</text>
<polygon stroke-width="0" class=" s4 f4" points="1557,762 1575,762 1575,774 1566,780 1557,774"/>
<polygon class=" s5 sw2 f14" points="1587,753 1605,771 1587,789 1569,771"/>
<line y2="789" x1="1569" class="s7 sw6" x2="1605" y1="753"/>
<line y2="789" x1="1605" class="s7 sw6" x2="1569" y1="753"/>
<rect x="1560" width="54" y="735" height="18" class="s14 sw2 f8"/>
<text x="1580" y="774" class="f4">15</text>
<polygon stroke-width="0" class=" s4 f4" points="1596,735 1596,741 1602,741 1590,753 1590,747 1584,747"/>
<polygon class=" s5 sw2 f13" points="1457,1380 1475,1398 1457,1416 1439,1398"/>
<rect x="1430" width="54" y="1362" height="18" class="s13 sw2 f7"/>
<text x="1450" y="1401" class="f4">13</text>
<circle stroke-width="0" r="3" class="s4 f4" cx="1466" cy="1365"/>
<circle stroke-width="0" r="3" class="s4 f4" cx="1466" cy="1377"/>
<circle stroke-width="0" r="3" class="s4 f4" cx="1457" cy="1371"/>
<circle stroke-width="0" r="3" class="s4 f4" cx="1475" cy="1371"/>
<line y2="1371" x1="1460" class="s4 sw1" x2="1472" y1="1371"/>
<line y2="1374" x1="1466" class="s4 sw1" x2="1466" y1="1368"/>
<polygon class=" s5 sw2 f14" points="1457,1680 1475,1698 1457,1716 1439,1698"/>
<line y2="1716" x1="1439" class="s7 sw6" x2="1475" y1="1680"/>
<line y2="1716" x1="1475" class="s7 sw6" x2="1439" y1="1680"/>
<rect x="1430" width="54" y="1662" height="18" class="s14 sw2 f8"/>
<text x="1450" y="1701" class="f4">16</text>
<circle stroke-width="0" r="3" class="s4 f4" cx="1466" cy="1665"/>
<circle stroke-width="0" r="3" class="s4 f4" cx="1466" cy="1677"/>
<circle stroke-width="0" r="3" class="s4 f4" cx="1457" cy="1671"/>
<circle stroke-width="0" r="3" class="s4 f4" cx="1475" cy="1671"/>
<line y2="1671" x1="1460" class="s4 sw1" x2="1472" y1="1671"/>
<line y2="1674" x1="1466" class="s4 sw1" x2="1466" y1="1668"/>
<rect x="39" width="36" y="1580" height="36" class="s5 sw2 f14"/>
<rect x="30" width="54" y="1562" height="18" class="s14 sw2 f8"/>
<text x="50" y="1601" class="f4">19</text>
<circle stroke-width="0" r="3" class="s4 f4" cx="66" cy="1565"/>
<circle stroke-width="0" r="3" class="s4 f4" cx="66" cy="1577"/>
<circle stroke-width="0" r="3" class="s4 f4" cx="57" cy="1571"/>
<circle stroke-width="0" r="3" class="s4 f4" cx="75" cy="1571"/>
<line y2="1571" x1="60" class="s4 sw1" x2="72" y1="1571"/>
<line y2="1574" x1="66" class="s4 sw1" x2="66" y1="1568"/>
<rect x="2039" width="36" y="1580" height="36" class="s5 sw2 f13"/>
<rect x="2030" width="54" y="1562" height="18" class="s13 sw2 f8"/>
<text x="2050" y="1601" class="f4">19</text>
<polygon stroke-width="0" class=" s4 f4" points="2066,1562 2066,1568 2072,1568 2060,1580 2060,1574 2054,1574"/>
<circle r="18" class="s5 sw2 f14" cx="957" cy="1898"/>
<rect x="930" width="54" y="1862" height="18" class="s14 sw2 f8"/>
<text x="950" y="1901" class="f4">2</text>
<polygon stroke-width="0" class=" s4 f4" points="957,1862 975,1862 966,1880"/>
<circle r="18" class="s5 sw2 f13" cx="987" cy="1871"/>
<rect x="960" width="54" y="1835" height="18" class="s13 sw2 f8"/>
<text x="980" y="1874" class="f4">2</text>
<polygon stroke-width="0" class=" s4 f4" points="987,1835 1005,1835 996,1853"/>
<polygon class=" s5 sw2 f13" points="1830,280 1884,280 1857,316"/>
<rect x="1830" width="54" y="262" height="18" class="s13 sw2 f8"/>
<text x="1850" y="301" class="f4">26</text>
<circle stroke-width="0" r="3" class="s4 f4" cx="1866" cy="265"/>
<circle stroke-width="0" r="3" class="s4 f4" cx="1866" cy="277"/>
<circle stroke-width="0" r="3" class="s4 f4" cx="1857" cy="271"/>
<circle stroke-width="0" r="3" class="s4 f4" cx="1875" cy="271"/>
<line y2="271" x1="1860" class="s4 sw1" x2="1872" y1="271"/>
<line y2="274" x1="1866" class="s4 sw1" x2="1866" y1="268"/>
<circle r="18" class="s5 sw2 f13" cx="657" cy="1898"/>
<rect x="630" width="54" y="1862" height="18" class="s13 sw2 f8"/>
<text x="650" y="1901" class="f4">1</text>
<polygon stroke-width="0" class=" s4 f4" points="657,1862 675,1862 666,1880"/>
<polygon class=" s5 sw2 f13" points="530,1780 584,1780 557,1816"/>
<rect x="530" width="54" y="1762" height="18" class="s13 sw2 f8"/>
<text x="550" y="1801" class="f4">23</text>
<circle r="6" class="s4 sw1 f8" cx="554" cy="1774"/>
<circle r="6" class="s4 sw1 f8" cx="572" cy="1774"/>
<line y2="1774" x1="560" class="s4 sw1" x2="566" y1="1774"/>
<line y2="1762" x1="548" class="s4 sw1" x2="560" y1="1774"/>
<line y2="1762" x1="578" class="s4 sw1" x2="584" y1="1774"/>
<polygon class=" s5 sw2 f13" points="557,380 575,398 557,416 539,398"/>
<rect x="530" width="54" y="362" height="18" class="s13 sw2 f8"/>
<text x="550" y="401" class="f4">15</text>
<circle r="6" class="s4 sw1 f8" cx="554" cy="374"/>
<circle r="6" class="s4 sw1 f8" cx="572" cy="374"/>
<line y2="374" x1="560" class="s4 sw1" x2="566" y1="374"/>
<line y2="362" x1="548" class="s4 sw1" x2="560" y1="374"/>
<line y2="362" x1="578" class="s4 sw1" x2="584" y1="374"/>
<polygon class=" s5 sw2 f14" points="1248,680 1266,680 1275,689 1275,707 1266,716 1248,716 1239,707 1239,689"/>
<rect x="1230" width="54" y="662" height="18" class="s14 sw2 f8"/>
<text x="1250" y="701" class="f4">7</text>
<polygon stroke-width="0" class=" s4 f4" points="1266,662 1266,668 1272,668 1260,680 1260,674 1254,674"/>
<circle r="18" class="s5 sw2 f14" cx="1157" cy="1298"/>
<rect x="1130" width="54" y="1262" height="18" class="s14 sw2 f8"/>
<text x="1150" y="1301" class="f4">4</text>
<circle stroke-width="0" r="3" class="s4 f4" cx="1166" cy="1265"/>
<circle stroke-width="0" r="3" class="s4 f4" cx="1166" cy="1277"/>
<circle stroke-width="0" r="3" class="s4 f4" cx="1157" cy="1271"/>
<circle stroke-width="0" r="3" class="s4 f4" cx="1175" cy="1271"/>
<line y2="1271" x1="1160" class="s4 sw1" x2="1172" y1="1271"/>
<line y2="1274" x1="1166" class="s4 sw1" x2="1166" y1="1268"/>
<polygon class=" s5 sw2 f14" points="1057,1680 1075,1698 1057,1716 1039,1698"/>
<line y2="1716" x1="1039" class="s7 sw6" x2="1075" y1="1680"/>
<line y2="1716" x1="1075" class="s7 sw6" x2="1039" y1="1680"/>
<rect x="1030" width="54" y="1662" height="18" class="s14 sw2 f8"/>
<text x="1050" y="1701" class="f4">13</text>
<circle stroke-width="0" r="3" class="s4 f4" cx="1066" cy="1665"/>
<circle stroke-width="0" r="3" class="s4 f4" cx="1066" cy="1677"/>
<circle stroke-width="0" r="3" class="s4 f4" cx="1057" cy="1671"/>
<circle stroke-width="0" r="3" class="s4 f4" cx="1075" cy="1671"/>
<line y2="1671" x1="1060" class="s4 sw1" x2="1072" y1="1671"/>
<line y2="1674" x1="1066" class="s4 sw1" x2="1066" y1="1668"/>
<polygon class=" s5 sw2 f13" points="557,1580 575,1598 557,1616 539,1598"/>
<rect x="530" width="54" y="1562" height="18" class="s13 sw2 f8"/>
<text x="550" y="1601" class="f4">16</text>
<polygon stroke-width="0" class=" s4 f4" points="566,1562 566,1568 572,1568 560,1580 560,1574 554,1574"/>
<polygon class=" s5 sw2 f13" points="1130,1680 1184,1680 1157,1716"/>
<rect x="1130" width="54" y="1662" height="18" class="s13 sw2 f8"/>
<text x="1150" y="1701" class="f4">27</text>
<line y2="1674" x1="1160" class="s4 sw3" x2="1172" y1="1668"/>
<circle stroke-width="0" r="6" class="s4 f4" cx="1160" cy="1668"/>
<rect x="839" width="36" y="1980" height="36" class="s5 sw2 f13"/>
<rect x="830" width="54" y="1962" height="18" class="s13 sw2 f8"/>
<text x="850" y="2001" class="f4">17</text>
<circle stroke-width="0" r="3" class="s4 f4" cx="866" cy="1965"/>
<circle stroke-width="0" r="3" class="s4 f4" cx="866" cy="1977"/>
<circle stroke-width="0" r="3" class="s4 f4" cx="857" cy="1971"/>
<circle stroke-width="0" r="3" class="s4 f4" cx="875" cy="1971"/>
<line y2="1971" x1="860" class="s4 sw1" x2="872" y1="1971"/>
<line y2="1974" x1="866" class="s4 sw1" x2="866" y1="1968"/>
<polygon class=" s5 sw2 f14" points="130,280 184,280 157,316"/>
<rect x="130" width="54" y="262" height="18" class="s14 sw2 f8"/>
<text x="150" y="301" class="f4">26</text>
<polygon stroke-width="0" class=" s4 f4" points="166,262 166,268 172,268 160,280 160,274 154,274"/>
<polygon class=" s5 sw2 f14" points="1230,1680 1284,1680 1257,1716"/>
<rect x="1230" width="54" y="1662" height="18" class="s14 sw2 f8"/>
<text x="1250" y="1701" class="f4">27</text>
<circle stroke-width="0" r="3" class="s4 f4" cx="1266" cy="1665"/>
<circle stroke-width="0" r="3" class="s4 f4" cx="1266" cy="1677"/>
<circle stroke-width="0" r="3" class="s4 f4" cx="1257" cy="1671"/>
<circle stroke-width="0" r="3" class="s4 f4" cx="1275" cy="1671"/>
<line y2="1671" x1="1260" class="s4 sw1" x2="1272" y1="1671"/>
<line y2="1674" x1="1266" class="s4 sw1" x2="1266" y1="1668"/>
<polygon class=" s5 sw2 f14" points="1430,580 1484,580 1457,616"/>
<rect x="1430" width="54" y="562" height="18" class="s14 sw2 f8"/>
<text x="1450" y="601" class="f4">28</text>
<line y2="574" x1="1460" class="s4 sw3" x2="1472" y1="568"/>
<circle stroke-width="0" r="6" class="s4 f4" cx="1460" cy="568"/>
<rect x="639" width="36" y="180" height="36" class="s5 sw2 f13"/>
<rect x="630" width="54" y="162" height="18" class="s13 sw2 f8"/>
<text x="650" y="201" class="f4">20</text>
<circle stroke-width="0" r="3" class="s4 f4" cx="666" cy="165"/>
<circle stroke-width="0" r="3" class="s4 f4" cx="666" cy="177"/>
<circle stroke-width="0" r="3" class="s4 f4" cx="657" cy="171"/>
<circle stroke-width="0" r="3" class="s4 f4" cx="675" cy="171"/>
<line y2="171" x1="660" class="s4 sw1" x2="672" y1="171"/>
<line y2="174" x1="666" class="s4 sw1" x2="666" y1="168"/>
<circle r="18" class="s5 sw2 f13" cx="1757" cy="1998"/>
<rect x="1730" width="54" y="1962" height="18" class="s13 sw2 f8"/>
<text x="1750" y="2001" class="f4">5</text>
<polygon stroke-width="0" class=" s4 f4" points="1757,1962 1775,1962 1766,1980"/>
<circle r="18" class="s5 sw2 f13" cx="857" cy="198"/>
<rect x="830" width="54" y="162" height="18" class="s13 sw2 f8"/>
<text x="850" y="201" class="f4">3</text>
<polygon stroke-width="0" class=" s4 f4" points="857,162 875,162 866,180"/>
<line y2="1150" x1="2157" class="s14 sw4" x2="2150" y1="1089"/>
<line x1="2157" x2="2150" y1="1089" y2="1150" class="s2 sw4 sd" marker-end="url(#ar1)"/>
<g id="teamTable" transform="translate(-100, 150)">
<text x="2350" y="75" class="TxtNrml">Step: 8</text>
<text x="2350" y="180" class="Tb" text-anchor="start">
<tspan fill="rgba(0,158,115,1.0)" x="2350">A</tspan>
<tspan x="2750">230</tspan>
<tspan x="2950">28</tspan>
<tspan x="3150">14</tspan>
<tspan x="3350">14</tspan>
</text>
<text x="2350" y="220" class="Tb" text-anchor="start">
<tspan fill="rgba(0,114,178,1.0)" x="2350">B</tspan>
<tspan x="2750">355</tspan>
<tspan x="2950">65</tspan>
<tspan x="3150">45</tspan>
<tspan x="3350">20</tspan>
</text>
</g>
<g id="agentTable" transform="translate(-100, 150)">
<text x="2350" y="316" class="Tb2" text-anchor="start">
<tspan x="2535">16/35</tspan>
<tspan x="2650">4/4</tspan>
<tspan x="2765">0</tspan>
<tspan x="2880">2</tspan>
<tspan x="2995">probe :successful</tspan>
</text>
<text x="2350" y="346" class="Tb2" text-anchor="start">
<tspan x="2535">22/35</tspan>
<tspan x="2650">4/4</tspan>
<tspan x="2765">0</tspan>
<tspan x="2880">2</tspan>
<tspan x="2995">probe :successful</tspan>
</text>
<text x="2350" y="376" class="Tb2" text-anchor="start">
<tspan x="2535">35/35</tspan>
<tspan x="2650">1/4</tspan>
<tspan x="2765">0</tspan>
<tspan x="2880">2</tspan>
<tspan x="2995">recharge :successful</tspan>
</text>
<text x="2350" y="406" class="Tb2" text-anchor="start">
<tspan x="2535">27/35</tspan>
<tspan x="2650">4/4</tspan>
<tspan x="2765">0</tspan>
<tspan x="2880">2</tspan>
<tspan x="2995">goto v318:successful</tspan>
</text>
<text x="2350" y="436" class="Tb2" text-anchor="start">
<tspan x="2535">25/35</tspan>
<tspan x="2650">4/4</tspan>
<tspan x="2765">0</tspan>
<tspan x="2880">2</tspan>
<tspan x="2995">probe :successful</tspan>
</text>
<text x="2350" y="466" class="Tb2" text-anchor="start">
<tspan x="2535">17/35</tspan>
<tspan x="2650">4/4</tspan>
<tspan x="2765">0</tspan>
<tspan x="2880">2</tspan>
<tspan x="2995">probe v131:successful</tspan>
</text>
<text x="2350" y="496" class="Tb2" text-anchor="start">
<tspan x="2535">16/25</tspan>
<tspan x="2650">6/6</tspan>
<tspan x="2765">0</tspan>
<tspan x="2880">1</tspan>
<tspan x="2995">recharge :successful</tspan>
</text>
<text x="2350" y="526" class="Tb2" text-anchor="start">
<tspan x="2535">8/25</tspan>
<tspan x="2650">6/6</tspan>
<tspan x="2765">0</tspan>
<tspan x="2880">1</tspan>
<tspan x="2995">goto v121:successful</tspan>
</text>
<text x="2350" y="556" class="Tb2" text-anchor="start">
<tspan x="2535">21/25</tspan>
<tspan x="2650">6/6</tspan>
<tspan x="2765">0</tspan>
<tspan x="2880">1</tspan>
<tspan x="2995">recharge :successful</tspan>
</text>
<text x="2350" y="586" class="Tb2" text-anchor="start">
<tspan x="2535">25/25</tspan>
<tspan x="2650">6/6</tspan>
<tspan x="2765">0</tspan>
<tspan x="2880">1</tspan>
<tspan x="2995">recharge :successful</tspan>
</text>
<text x="2350" y="616" class="Tb2" text-anchor="start">
<tspan x="2535">8/25</tspan>
<tspan x="2650">6/6</tspan>
<tspan x="2765">0</tspan>
<tspan x="2880">1</tspan>
<tspan x="2995">parry :useless</tspan>
</text>
<text x="2350" y="646" class="Tb2" text-anchor="start">
<tspan x="2535">8/25</tspan>
<tspan x="2650">6/6</tspan>
<tspan x="2765">0</tspan>
<tspan x="2880">1</tspan>
<tspan x="2995">goto v121:successful</tspan>
</text>
<text x="2350" y="676" class="Tb2" text-anchor="start">
<tspan x="2535">3/20</tspan>
<tspan x="2650">0/3</tspan>
<tspan x="2765">3</tspan>
<tspan x="2880">1</tspan>
<tspan x="2995">goto v327:successful</tspan>
</text>
<text x="2350" y="706" class="Tb2" text-anchor="start">
<tspan x="2535">9/20</tspan>
<tspan x="2650">0/3</tspan>
<tspan x="2765">3</tspan>
<tspan x="2880">1</tspan>
<tspan x="2995">recharge :successful</tspan>
</text>
<text x="2350" y="736" class="Tb2" text-anchor="start">
<tspan x="2535">20/20</tspan>
<tspan x="2650">0/3</tspan>
<tspan x="2765">3</tspan>
<tspan x="2880">1</tspan>
<tspan x="2995">recharge :successful</tspan>
</text>
<text x="2350" y="766" class="Tb2" text-anchor="start">
<tspan x="2535">6/20</tspan>
<tspan x="2650">0/3</tspan>
<tspan x="2765">3</tspan>
<tspan x="2880">1</tspan>
<tspan x="2995">goto v243:successful</tspan>
</text>
<text x="2350" y="796" class="Tb2" text-anchor="start">
<tspan x="2535">19/30</tspan>
<tspan x="2650">1/1</tspan>
<tspan x="2765">0</tspan>
<tspan x="2880">3</tspan>
<tspan x="2995">recharge :successful</tspan>
</text>
<text x="2350" y="826" class="Tb2" text-anchor="start">
<tspan x="2535">30/30</tspan>
<tspan x="2650">1/1</tspan>
<tspan x="2765">0</tspan>
<tspan x="2880">3</tspan>
<tspan x="2995">recharge :successful</tspan>
</text>
<text x="2350" y="856" class="Tb2" text-anchor="start">
<tspan x="2535">13/30</tspan>
<tspan x="2650">1/1</tspan>
<tspan x="2765">0</tspan>
<tspan x="2880">3</tspan>
<tspan x="2995">goto v252:successful</tspan>
</text>
<text x="2350" y="886" class="Tb2" text-anchor="start">
<tspan x="2535">4/30</tspan>
<tspan x="2650">0/1</tspan>
<tspan x="2765">0</tspan>
<tspan x="2880">3</tspan>
<tspan x="2995">goto v161:successful</tspan>
</text>
<text x="2350" y="916" class="Tb2" text-anchor="start">
<tspan x="2535">11/30</tspan>
<tspan x="2650">1/1</tspan>
<tspan x="2765">0</tspan>
<tspan x="2880">3</tspan>
<tspan x="2995">goto v218:successful</tspan>
</text>
<text x="2350" y="946" class="Tb2" text-anchor="start">
<tspan x="2535">18/30</tspan>
<tspan x="2650">0/1</tspan>
<tspan x="2765">0</tspan>
<tspan x="2880">3</tspan>
<tspan x="2995">recharge :successful</tspan>
</text>
<text x="2350" y="976" class="Tb2" text-anchor="start">
<tspan x="2535">20/25</tspan>
<tspan x="2650">6/6</tspan>
<tspan x="2765">0</tspan>
<tspan x="2880">1</tspan>
<tspan x="2995">recharge :successful</tspan>
</text>
<text x="2350" y="1006" class="Tb2" text-anchor="start">
<tspan x="2535">3/25</tspan>
<tspan x="2650">6/6</tspan>
<tspan x="2765">0</tspan>
<tspan x="2880">1</tspan>
<tspan x="2995">goto v59:successful</tspan>
</text>
<text x="2350" y="1036" class="Tb2" text-anchor="start">
<tspan x="2535">15/25</tspan>
<tspan x="2650">6/6</tspan>
<tspan x="2765">0</tspan>
<tspan x="2880">1</tspan>
<tspan x="2995">goto v188:successful</tspan>
</text>
<text x="2350" y="1066" class="Tb2" text-anchor="start">
<tspan x="2535">19/25</tspan>
<tspan x="2650">6/6</tspan>
<tspan x="2765">0</tspan>
<tspan x="2880">1</tspan>
<tspan x="2995">recharge :successful</tspan>
</text>
<text x="2350" y="1096" class="Tb2" text-anchor="start">
<tspan x="2535">13/25</tspan>
<tspan x="2650">6/6</tspan>
<tspan x="2765">0</tspan>
<tspan x="2880">1</tspan>
<tspan x="2995">goto v360:successful</tspan>
</text>
<text x="2350" y="1126" class="Tb2" text-anchor="start">
<tspan x="2535">11/25</tspan>
<tspan x="2650">6/6</tspan>
<tspan x="2765">0</tspan>
<tspan x="2880">1</tspan>
<tspan x="2995">inspect :successful</tspan>
</text>
<text x="2350" y="1156" class="Tb2" text-anchor="start">
<tspan x="2535">17/35</tspan>
<tspan x="2650">4/4</tspan>
<tspan x="2765">0</tspan>
<tspan x="2880">2</tspan>
<tspan x="2995">probe :successful</tspan>
</text>
<text x="2350" y="1186" class="Tb2" text-anchor="start">
<tspan x="2535">16/35</tspan>
<tspan x="2650">4/4</tspan>
<tspan x="2765">0</tspan>
<tspan x="2880">2</tspan>
<tspan x="2995">probe :successful</tspan>
</text>
<text x="2350" y="1216" class="Tb2" text-anchor="start">
<tspan x="2535">19/35</tspan>
<tspan x="2650">4/4</tspan>
<tspan x="2765">0</tspan>
<tspan x="2880">2</tspan>
<tspan x="2995">probe :successful</tspan>
</text>
<text x="2350" y="1246" class="Tb2" text-anchor="start">
<tspan x="2535">23/35</tspan>
<tspan x="2650">4/4</tspan>
<tspan x="2765">0</tspan>
<tspan x="2880">2</tspan>
<tspan x="2995">probe :successful</tspan>
</text>
<text x="2350" y="1276" class="Tb2" text-anchor="start">
<tspan x="2535">18/35</tspan>
<tspan x="2650">4/4</tspan>
<tspan x="2765">0</tspan>
<tspan x="2880">2</tspan>
<tspan x="2995">probe :successful</tspan>
</text>
<text x="2350" y="1306" class="Tb2" text-anchor="start">
<tspan x="2535">19/35</tspan>
<tspan x="2650">4/4</tspan>
<tspan x="2765">0</tspan>
<tspan x="2880">2</tspan>
<tspan x="2995">probe :successful</tspan>
</text>
<text x="2350" y="1336" class="Tb2" text-anchor="start">
<tspan x="2535">14/25</tspan>
<tspan x="2650">6/6</tspan>
<tspan x="2765">0</tspan>
<tspan x="2880">1</tspan>
<tspan x="2995">survey :successful</tspan>
</text>
<text x="2350" y="1366" class="Tb2" text-anchor="start">
<tspan x="2535">7/25</tspan>
<tspan x="2650">6/6</tspan>
<tspan x="2765">0</tspan>
<tspan x="2880">1</tspan>
<tspan x="2995">survey :successful</tspan>
</text>
<text x="2350" y="1396" class="Tb2" text-anchor="start">
<tspan x="2535">8/25</tspan>
<tspan x="2650">6/6</tspan>
<tspan x="2765">0</tspan>
<tspan x="2880">1</tspan>
<tspan x="2995">survey :successful</tspan>
</text>
<text x="2350" y="1426" class="Tb2" text-anchor="start">
<tspan x="2535">5/25</tspan>
<tspan x="2650">6/6</tspan>
<tspan x="2765">0</tspan>
<tspan x="2880">1</tspan>
<tspan x="2995">goto v110:successful</tspan>
</text>
<text x="2350" y="1456" class="Tb2" text-anchor="start">
<tspan x="2535">4/25</tspan>
<tspan x="2650">6/6</tspan>
<tspan x="2765">0</tspan>
<tspan x="2880">1</tspan>
<tspan x="2995">survey :successful</tspan>
</text>
<text x="2350" y="1486" class="Tb2" text-anchor="start">
<tspan x="2535">8/25</tspan>
<tspan x="2650">6/6</tspan>
<tspan x="2765">0</tspan>
<tspan x="2880">1</tspan>
<tspan x="2995">survey :successful</tspan>
</text>
<text x="2350" y="1516" class="Tb2" text-anchor="start">
<tspan x="2535">10/20</tspan>
<tspan x="2650">3/3</tspan>
<tspan x="2765">3</tspan>
<tspan x="2880">1</tspan>
<tspan fill="red" x="2995">goto v73:failed_random</tspan>
</text>
<text x="2350" y="1546" class="Tb2" text-anchor="start">
<tspan x="2535">11/20</tspan>
<tspan x="2650">3/3</tspan>
<tspan x="2765">3</tspan>
<tspan x="2880">1</tspan>
<tspan x="2995">recharge :successful</tspan>
</text>
<text x="2350" y="1576" class="Tb2" text-anchor="start">
<tspan x="2535">15/20</tspan>
<tspan x="2650">3/3</tspan>
<tspan x="2765">3</tspan>
<tspan x="2880">1</tspan>
<tspan x="2995">survey :successful</tspan>
</text>
<text x="2350" y="1606" class="Tb2" text-anchor="start">
<tspan x="2535">10/20</tspan>
<tspan x="2650">3/3</tspan>
<tspan x="2765">3</tspan>
<tspan x="2880">1</tspan>
<tspan x="2995">recharge :successful</tspan>
</text>
<text x="2350" y="1636" class="Tb2" text-anchor="start">
<tspan x="2535">3/30</tspan>
<tspan x="2650">1/1</tspan>
<tspan x="2765">0</tspan>
<tspan x="2880">3</tspan>
<tspan x="2995">goto v343:successful</tspan>
</text>
<text x="2350" y="1666" class="Tb2" text-anchor="start">
<tspan x="2535">7/30</tspan>
<tspan x="2650">1/1</tspan>
<tspan x="2765">0</tspan>
<tspan x="2880">3</tspan>
<tspan x="2995">survey :successful</tspan>
</text>
<text x="2350" y="1696" class="Tb2" text-anchor="start">
<tspan x="2535">21/30</tspan>
<tspan x="2650">1/1</tspan>
<tspan x="2765">0</tspan>
<tspan x="2880">3</tspan>
<tspan x="2995">recharge :successful</tspan>
</text>
<text x="2350" y="1726" class="Tb2" text-anchor="start">
<tspan x="2535">14/30</tspan>
<tspan x="2650">1/1</tspan>
<tspan x="2765">0</tspan>
<tspan x="2880">3</tspan>
<tspan x="2995">goto v380:successful</tspan>
</text>
<text x="2350" y="1756" class="Tb2" text-anchor="start">
<tspan x="2535">9/30</tspan>
<tspan x="2650">1/1</tspan>
<tspan x="2765">0</tspan>
<tspan x="2880">3</tspan>
<tspan x="2995">survey :successful</tspan>
</text>
<text x="2350" y="1786" class="Tb2" text-anchor="start">
<tspan x="2535">16/30</tspan>
<tspan x="2650">1/1</tspan>
<tspan x="2765">0</tspan>
<tspan x="2880">3</tspan>
<tspan x="2995">survey :successful</tspan>
</text>
<text x="2350" y="1816" class="Tb2" text-anchor="start">
<tspan x="2535">3/25</tspan>
<tspan x="2650">6/6</tspan>
<tspan x="2765">0</tspan>
<tspan x="2880">1</tspan>
<tspan x="2995">survey :successful</tspan>
</text>
<text x="2350" y="1846" class="Tb2" text-anchor="start">
<tspan x="2535">18/25</tspan>
<tspan x="2650">6/6</tspan>
<tspan x="2765">0</tspan>
<tspan x="2880">1</tspan>
<tspan x="2995">recharge :successful</tspan>
</text>
<text x="2350" y="1876" class="Tb2" text-anchor="start">
<tspan x="2535">15/25</tspan>
<tspan x="2650">6/6</tspan>
<tspan x="2765">0</tspan>
<tspan x="2880">1</tspan>
<tspan x="2995">goto v30:successful</tspan>
</text>
<text x="2350" y="1906" class="Tb2" text-anchor="start">
<tspan x="2535">1/25</tspan>
<tspan x="2650">6/6</tspan>
<tspan x="2765">0</tspan>
<tspan x="2880">1</tspan>
<tspan x="2995">goto v274:successful</tspan>
</text>
<text x="2350" y="1936" class="Tb2" text-anchor="start">
<tspan x="2535">15/25</tspan>
<tspan x="2650">6/6</tspan>
<tspan x="2765">0</tspan>
<tspan x="2880">1</tspan>
<tspan x="2995">inspect :successful</tspan>
</text>
<text x="2350" y="1966" class="Tb2" text-anchor="start">
<tspan x="2535">14/25</tspan>
<tspan x="2650">6/6</tspan>
<tspan x="2765">0</tspan>
<tspan x="2880">1</tspan>
<tspan x="2995">recharge :successful</tspan>
</text>
</g>
<line y2="442" x1="3290" class="s5 sw1" x2="3290" y1="1996"/>
<g id="achievementPart" transform="translate(-100, 150)">
<text x="3400" y="301" class="TxtAch">
<tspan x="3400">Achievements</tspan>
<tspan fill="rgba(0,158,115,1.0)" x="3400" y="331">A</tspan>
<tspan x="3400" y="351">proved5</tspan>
<tspan x="3400" y="371">proved10</tspan>
<tspan x="3400" y="391">surveyed10</tspan>
<tspan x="3400" y="411">surveyed20</tspan>
<tspan x="3400" y="431">surveyed40</tspan>
<tspan x="3400" y="451">surveyed80</tspan>
<tspan x="3400" y="471">area10</tspan>
<tspan fill="rgba(0,114,178,1.0)" x="3400" y="496">B</tspan>
<tspan x="3400" y="516">proved5</tspan>
<tspan x="3400" y="536">proved10</tspan>
<tspan x="3400" y="556">proved20</tspan>
<tspan x="3400" y="576">surveyed10</tspan>
<tspan x="3400" y="596">surveyed20</tspan>
<tspan x="3400" y="616">surveyed40</tspan>
<tspan x="3400" y="636">surveyed80</tspan>
<tspan x="3400" y="656">surveyed160</tspan>
<tspan x="3400" y="676">area10</tspan>
<tspan x="3400" y="696">area20</tspan>
</text>
</g>
</g>
</svg>
