<?xml version="1.0" encoding="UTF-8"?><?xml-stylesheet type="text/css" href="style.css"?><svg xmlns="http://www.w3.org/2000/svg" xmlns:xlink="http://www.w3.org/1999/xlink" contentScriptType="text/ecmascript" zoomAndPan="magnify" contentStyleType="text/css" preserveAspectRatio="xMidYMid meet" version="1.0">
<g id="scaleSvg" transform="scale(0.25)">
<polygon class="T1" points="1450,750 1450,550 1550,650 1550,750 "/>
<polygon class="T1" points="1250,650 1450,550 1550,650 1550,750 1450,750 1450,550 "/>
<polygon class="T1" points="1450,550 1450,750 1450,550 1550,650 1550,750 1450,750 "/>
<polygon class="T1" points="1550,650 1450,550 1550,650 1550,750 1450,750 1450,550 "/>
<polygon class="T1" points="1550,750 1550,650 1550,750 1450,750 1450,550 1550,650 "/>
<polygon class="T1" points="1450,750 1550,750 1450,750 1450,550 1550,650 1550,750 "/>
<circle r="25" class="T1n" cx="50" cy="2050"/>
<circle r="25" class="T1n" cx="550" cy="550"/>
<circle r="25" class="T1n" cx="250" cy="1850"/>
<circle r="25" class="T1n" cx="50" cy="250"/>
<circle r="25" class="T1n" cx="1150" cy="1750"/>
<circle r="25" class="T1n" cx="850" cy="1750"/>
<circle r="25" class="T1n" cx="1050" cy="1750"/>
<circle r="25" class="T1n" cx="350" cy="350"/>
<circle r="25" class="T1n" cx="1650" cy="350"/>
<circle r="25" class="T1n" cx="1550" cy="650"/>
<circle r="25" class="T1n" cx="1150" cy="650"/>
<circle r="25" class="T1n" cx="450" cy="450"/>
<circle r="25" class="T1n" cx="1450" cy="750"/>
<circle r="25" class="T1n" cx="2150" cy="1050"/>
<circle r="25" class="T1n" cx="750" cy="2150"/>
<circle r="25" class="T1n" cx="1550" cy="750"/>
<circle r="25" class="T1n" cx="1150" cy="2150"/>
<circle r="25" class="T1n" cx="2050" cy="150"/>
<circle r="25" class="T1n" cx="50" cy="1550"/>
<circle r="25" class="T1n" cx="1250" cy="650"/>
<circle r="25" class="T1n" cx="1150" cy="1350"/>
<circle r="25" class="T1n" cx="1150" cy="1650"/>
<circle r="25" class="T1n" cx="1150" cy="1550"/>
<circle r="25" class="T1n" cx="1450" cy="550"/>
<line y2="550" x1="450" class="T1e" x2="550" y1="450"/>
<line y2="350" x1="450" class="T1e" x2="350" y1="450"/>
<line y2="550" x1="1250" class="T1e" x2="1450" y1="650"/>
<line y2="1550" x1="1150" class="T1e" x2="1150" y1="1350"/>
<line y2="550" x1="1450" class="T1e" x2="1450" y1="750"/>
<line y2="550" x1="1550" class="T1e" x2="1450" y1="650"/>
<line y2="650" x1="1250" class="T1e" x2="1150" y1="650"/>
<line y2="750" x1="1550" class="T1e" x2="1550" y1="650"/>
<line y2="750" x1="1450" class="T1e" x2="1550" y1="750"/>
<line y2="1650" x1="1150" class="T1e" x2="1150" y1="1750"/>
<line y2="1650" x1="1150" class="T1e" x2="1150" y1="1550"/>
<line y2="1750" x1="1050" class="T1e" x2="1150" y1="1750"/>
<circle r="5" class="N" cx="50" cy="2050"/>
<circle r="6" class="N" cx="550" cy="550"/>
<circle r="5" class="N" cx="250" cy="1850"/>
<circle r="8" class="N" cx="50" cy="250"/>
<circle r="5" class="N" cx="1150" cy="1750"/>
<circle r="6" class="N" cx="850" cy="1750"/>
<circle r="5" class="N" cx="1050" cy="1750"/>
<circle r="6" class="N" cx="350" cy="350"/>
<circle r="6" class="N" cx="1650" cy="350"/>
<circle r="9" class="N" cx="1550" cy="650"/>
<circle r="11" class="N" cx="1150" cy="650"/>
<circle r="6" class="N" cx="450" cy="450"/>
<circle r="11" class="N" cx="1450" cy="750"/>
<circle r="9" class="N" cx="2150" cy="1050"/>
<circle r="8" class="N" cx="750" cy="2150"/>
<circle r="6" class="N" cx="1550" cy="750"/>
<circle r="5" class="N" cx="1150" cy="2150"/>
<circle r="8" class="N" cx="2050" cy="150"/>
<circle r="5" class="N" cx="50" cy="1550"/>
<circle r="11" class="N" cx="1250" cy="650"/>
<circle r="6" class="N" cx="1150" cy="1350"/>
<circle r="5" class="N" cx="1150" cy="1650"/>
<circle r="5" class="N" cx="1150" cy="1550"/>
<circle r="18" class="N" cx="1450" cy="550"/>
<line y2="550" x1="450" class="E sw4" x2="550" y1="450"/>
<line y2="350" x1="450" class="E sw11" x2="350" y1="450"/>
<line y2="550" x1="1250" class="E sw9" x2="1450" y1="650"/>
<line y2="1550" x1="1150" class="E sw11" x2="1150" y1="1350"/>
<line y2="550" x1="1450" class="E sw8" x2="1450" y1="750"/>
<line y2="550" x1="1550" class="E sw9" x2="1450" y1="650"/>
<line y2="650" x1="1250" class="E sw10" x2="1150" y1="650"/>
<line y2="750" x1="1550" class="E sw4" x2="1550" y1="650"/>
<line y2="750" x1="1450" class="E sw7" x2="1550" y1="750"/>
<line y2="1650" x1="1150" class="E sw9" x2="1150" y1="1750"/>
<line y2="1650" x1="1150" class="E sw11" x2="1150" y1="1550"/>
<line y2="1750" x1="1050" class="E sw6" x2="1150" y1="1750"/>
<polygon class="T2" points="950,1850 950,2050 850,1950 "/>
<polygon class="T2" points="950,2050 950,1850 1050,1950 "/>
<polygon class="T2" points="650,250 550,350 550,250 "/>
<polygon class="T2" points="550,150 650,250 550,250 "/>
<polygon class="T2" points="550,350 450,250 550,250 "/>
<polygon class="T2" points="450,250 550,150 550,250 "/>
<polygon class="T2" points="950,1850 850,1950 950,1850 950,2050 850,1950 "/>
<polygon class="T2" points="850,1950 950,2050 950,1850 1050,1950 950,2050 "/>
<polygon class="T2" points="1050,1950 950,1850 950,2050 850,1950 950,1850 "/>
<polygon class="T2" points="550,350 650,250 550,350 450,250 550,250 "/>
<polygon class="T2" points="650,250 550,150 650,250 550,350 550,250 "/>
<polygon class="T2" points="450,250 550,350 450,250 550,150 550,250 "/>
<polygon class="T2" points="550,150 450,250 550,150 650,250 550,250 "/>
<polygon class="T2" points="950,2050 1050,1950 950,2050 950,1850 1050,1950 "/>
<circle r="25" class="T2n" cx="1850" cy="150"/>
<circle r="25" class="T2n" cx="850" cy="850"/>
<circle r="25" class="T2n" cx="1050" cy="1950"/>
<circle r="25" class="T2n" cx="2150" cy="1750"/>
<circle r="25" class="T2n" cx="1950" cy="250"/>
<circle r="25" class="T2n" cx="1950" cy="50"/>
<circle r="25" class="T2n" cx="1650" cy="550"/>
<circle r="25" class="T2n" cx="1750" cy="1750"/>
<circle r="25" class="T2n" cx="2050" cy="50"/>
<circle r="25" class="T2n" cx="1950" cy="150"/>
<circle r="25" class="T2n" cx="950" cy="650"/>
<circle r="25" class="T2n" cx="1550" cy="850"/>
<circle r="25" class="T2n" cx="450" cy="250"/>
<circle r="25" class="T2n" cx="250" cy="1150"/>
<circle r="25" class="T2n" cx="950" cy="2050"/>
<circle r="25" class="T2n" cx="1450" cy="1350"/>
<circle r="25" class="T2n" cx="1750" cy="250"/>
<circle r="25" class="T2n" cx="650" cy="1750"/>
<circle r="25" class="T2n" cx="2050" cy="1550"/>
<circle r="25" class="T2n" cx="950" cy="1850"/>
<circle r="25" class="T2n" cx="1050" cy="1150"/>
<circle r="25" class="T2n" cx="1750" cy="1050"/>
<circle r="25" class="T2n" cx="2150" cy="50"/>
<circle r="25" class="T2n" cx="1850" cy="850"/>
<circle r="25" class="T2n" cx="1750" cy="850"/>
<circle r="25" class="T2n" cx="950" cy="150"/>
<circle r="25" class="T2n" cx="550" cy="350"/>
<circle r="25" class="T2n" cx="550" cy="150"/>
<circle r="25" class="T2n" cx="1050" cy="1650"/>
<circle r="25" class="T2n" cx="650" cy="250"/>
<circle r="25" class="T2n" cx="850" cy="1950"/>
<circle r="25" class="T2n" cx="750" cy="850"/>
<circle r="25" class="T2n" cx="550" cy="250"/>
<circle r="25" class="T2n" cx="450" cy="1450"/>
<circle r="25" class="T2n" cx="50" cy="150"/>
<circle r="25" class="T2n" cx="1450" cy="450"/>
<line y2="850" x1="950" class="T2e" x2="850" y1="650"/>
<line y2="2050" x1="950" class="T2e" x2="950" y1="1850"/>
<line y2="1850" x1="850" class="T2e" x2="950" y1="1950"/>
<line y2="2050" x1="850" class="T2e" x2="950" y1="1950"/>
<line y2="1950" x1="950" class="T2e" x2="1050" y1="1850"/>
<line y2="350" x1="650" class="T2e" x2="550" y1="250"/>
<line y2="150" x1="650" class="T2e" x2="550" y1="250"/>
<line y2="350" x1="450" class="T2e" x2="550" y1="250"/>
<line y2="150" x1="450" class="T2e" x2="550" y1="250"/>
<line y2="1950" x1="950" class="T2e" x2="1050" y1="2050"/>
<line y2="850" x1="850" class="T2e" x2="750" y1="850"/>
<line y2="250" x1="550" class="T2e" x2="650" y1="250"/>
<line y2="250" x1="550" class="T2e" x2="450" y1="250"/>
<line y2="350" x1="550" class="T2e" x2="550" y1="250"/>
<line y2="150" x1="550" class="T2e" x2="550" y1="250"/>
<line y2="850" x1="1550" class="T2e" x2="1750" y1="850"/>
<line y2="850" x1="1750" class="T2e" x2="1750" y1="1050"/>
<line y2="150" x1="1950" class="T2e" x2="1850" y1="250"/>
<line y2="150" x1="1950" class="T2e" x2="1850" y1="50"/>
<line y2="150" x1="1750" class="T2e" x2="1850" y1="250"/>
<line y2="50" x1="2050" class="T2e" x2="1950" y1="50"/>
<line y2="50" x1="2050" class="T2e" x2="2150" y1="50"/>
<line y2="150" x1="1950" class="T2e" x2="1850" y1="150"/>
<circle r="9" class="N" cx="1850" cy="150"/>
<circle r="8" class="N" cx="850" cy="850"/>
<circle r="5" class="N" cx="1050" cy="1950"/>
<circle r="5" class="N" cx="2150" cy="1750"/>
<circle r="12" class="N" cx="1950" cy="250"/>
<circle r="12" class="N" cx="1950" cy="50"/>
<circle r="6" class="N" cx="1650" cy="550"/>
<circle r="6" class="N" cx="1750" cy="1750"/>
<circle r="18" class="N" cx="2050" cy="50"/>
<circle r="9" class="N" cx="1950" cy="150"/>
<circle r="11" class="N" cx="950" cy="650"/>
<circle r="5" class="N" cx="1550" cy="850"/>
<circle r="6" class="N" cx="450" cy="250"/>
<circle r="18" class="N" cx="250" cy="1150"/>
<circle r="5" class="N" cx="950" cy="2050"/>
<circle r="5" class="N" cx="1450" cy="1350"/>
<circle r="6" class="N" cx="1750" cy="250"/>
<circle r="18" class="N" cx="650" cy="1750"/>
<circle r="5" class="N" cx="2050" cy="1550"/>
<circle r="5" class="N" cx="950" cy="1850"/>
<circle r="18" class="N" cx="1050" cy="1150"/>
<circle r="6" class="N" cx="1750" cy="1050"/>
<circle r="18" class="N" cx="2150" cy="50"/>
<circle r="9" class="N" cx="1850" cy="850"/>
<circle r="5" class="N" cx="1750" cy="850"/>
<circle r="11" class="N" cx="950" cy="150"/>
<circle r="6" class="N" cx="550" cy="350"/>
<circle r="5" class="N" cx="550" cy="150"/>
<circle r="5" class="N" cx="1050" cy="1650"/>
<circle r="6" class="N" cx="650" cy="250"/>
<circle r="6" class="N" cx="850" cy="1950"/>
<circle r="6" class="N" cx="750" cy="850"/>
<circle r="6" class="N" cx="550" cy="250"/>
<circle r="5" class="N" cx="450" cy="1450"/>
<circle r="8" class="N" cx="50" cy="150"/>
<circle r="9" class="N" cx="1450" cy="450"/>
<line y2="850" x1="950" class="E sw11" x2="850" y1="650"/>
<line y2="2050" x1="950" class="E sw8" x2="950" y1="1850"/>
<line y2="1850" x1="850" class="E sw5" x2="950" y1="1950"/>
<line y2="2050" x1="850" class="E sw10" x2="950" y1="1950"/>
<line y2="1950" x1="950" class="E sw9" x2="1050" y1="1850"/>
<line y2="350" x1="650" class="E sw3" x2="550" y1="250"/>
<line y2="150" x1="650" class="E sw4" x2="550" y1="250"/>
<line y2="350" x1="450" class="E sw10" x2="550" y1="250"/>
<line y2="150" x1="450" class="E sw5" x2="550" y1="250"/>
<line y2="1950" x1="950" class="E sw9" x2="1050" y1="2050"/>
<line y2="850" x1="850" class="E sw4" x2="750" y1="850"/>
<line y2="250" x1="550" class="E sw10" x2="650" y1="250"/>
<line y2="250" x1="550" class="E sw9" x2="450" y1="250"/>
<line y2="350" x1="550" class="E sw9" x2="550" y1="250"/>
<line y2="150" x1="550" class="E sw7" x2="550" y1="250"/>
<line y2="850" x1="1550" class="E sw3" x2="1750" y1="850"/>
<line y2="850" x1="1750" class="E sw7" x2="1750" y1="1050"/>
<line y2="150" x1="1950" class="E sw6" x2="1850" y1="250"/>
<line y2="150" x1="1950" class="E sw9" x2="1850" y1="50"/>
<line y2="150" x1="1750" class="E sw9" x2="1850" y1="250"/>
<line y2="50" x1="2050" class="E sw11" x2="1950" y1="50"/>
<line y2="50" x1="2050" class="E sw8" x2="2150" y1="50"/>
<line y2="150" x1="1950" class="E sw9" x2="1850" y1="150"/>
<rect x="39" width="36" y="2080" height="36" class="s5 sw2 f14"/>
<rect x="30" width="54" y="2062" height="18" class="s14 sw2 f8"/>
<text x="50" y="2101" class="f4">21</text>
<circle stroke-width="0" r="3" class="s4 f4" cx="66" cy="2065"/>
<circle stroke-width="0" r="3" class="s4 f4" cx="66" cy="2077"/>
<circle stroke-width="0" r="3" class="s4 f4" cx="57" cy="2071"/>
<circle stroke-width="0" r="3" class="s4 f4" cx="75" cy="2071"/>
<line y2="2071" x1="60" class="s4 sw1" x2="72" y1="2071"/>
<line y2="2074" x1="66" class="s4 sw1" x2="66" y1="2068"/>
<circle r="18" class="s5 sw2 f13" cx="1057" cy="1998"/>
<rect x="1030" width="54" y="1962" height="18" class="s13 sw2 f7"/>
<text x="1050" y="2001" class="f4">2</text>
<rect x="2139" width="36" y="1780" height="36" class="s5 sw2 f13"/>
<rect x="2130" width="54" y="1762" height="18" class="s13 sw2 f7"/>
<text x="2150" y="1801" class="f4">21</text>
<polygon class=" s5 sw2 f13" points="1930,280 1984,280 1957,316"/>
<rect x="1930" width="54" y="262" height="18" class="s13 sw2 f7"/>
<text x="1950" y="301" class="f4">26</text>
<polygon class=" s5 sw2 f14" points="548,580 566,580 575,589 575,607 566,616 548,616 539,607 539,589"/>
<rect x="530" width="54" y="562" height="18" class="s14 sw2 f8"/>
<text x="550" y="601" class="f4">12</text>
<circle stroke-width="0" r="3" class="s4 f4" cx="566" cy="565"/>
<circle stroke-width="0" r="3" class="s4 f4" cx="566" cy="577"/>
<circle stroke-width="0" r="3" class="s4 f4" cx="557" cy="571"/>
<circle stroke-width="0" r="3" class="s4 f4" cx="575" cy="571"/>
<line y2="571" x1="560" class="s4 sw1" x2="572" y1="571"/>
<line y2="574" x1="566" class="s4 sw1" x2="566" y1="568"/>
<polygon class=" s5 sw2 f14" points="578,553 596,553 605,562 605,580 596,589 578,589 569,580 569,562"/>
<rect x="560" width="54" y="535" height="18" class="s14 sw2 f8"/>
<text x="580" y="574" class="f4">8</text>
<circle stroke-width="0" r="3" class="s4 f4" cx="596" cy="538"/>
<circle stroke-width="0" r="3" class="s4 f4" cx="596" cy="550"/>
<circle stroke-width="0" r="3" class="s4 f4" cx="587" cy="544"/>
<circle stroke-width="0" r="3" class="s4 f4" cx="605" cy="544"/>
<line y2="544" x1="590" class="s4 sw1" x2="602" y1="544"/>
<line y2="547" x1="596" class="s4 sw1" x2="596" y1="541"/>
<polygon class=" s5 sw2 f14" points="1657,1880 1675,1898 1657,1916 1639,1898"/>
<line y2="1916" x1="1639" class="s7 sw6" x2="1675" y1="1880"/>
<line y2="1916" x1="1675" class="s7 sw6" x2="1639" y1="1880"/>
<rect x="1630" width="54" y="1862" height="18" class="s14 sw2 f8"/>
<text x="1650" y="1901" class="f4">16</text>
<polygon stroke-width="0" class=" s4 f4" points="1666,1862 1666,1868 1672,1868 1660,1880 1660,1874 1654,1874"/>
<polygon class=" s5 sw2 f14" points="230,1880 284,1880 257,1916"/>
<rect x="230" width="54" y="1862" height="18" class="s14 sw2 f8"/>
<text x="250" y="1901" class="f4">25</text>
<circle stroke-width="0" r="3" class="s4 f4" cx="266" cy="1865"/>
<circle stroke-width="0" r="3" class="s4 f4" cx="266" cy="1877"/>
<circle stroke-width="0" r="3" class="s4 f4" cx="257" cy="1871"/>
<circle stroke-width="0" r="3" class="s4 f4" cx="275" cy="1871"/>
<line y2="1871" x1="260" class="s4 sw1" x2="272" y1="1871"/>
<line y2="1874" x1="266" class="s4 sw1" x2="266" y1="1868"/>
<rect x="1639" width="36" y="580" height="36" class="s5 sw2 f13"/>
<rect x="1630" width="54" y="562" height="18" class="s13 sw2 f7"/>
<text x="1650" y="601" class="f4">18</text>
<polygon class=" s5 sw2 f14" points="30,280 84,280 57,316"/>
<rect x="30" width="54" y="262" height="18" class="s14 sw2 f8"/>
<text x="50" y="301" class="f4">26</text>
<circle stroke-width="0" r="3" class="s4 f4" cx="66" cy="265"/>
<circle stroke-width="0" r="3" class="s4 f4" cx="66" cy="277"/>
<circle stroke-width="0" r="3" class="s4 f4" cx="57" cy="271"/>
<circle stroke-width="0" r="3" class="s4 f4" cx="75" cy="271"/>
<line y2="271" x1="60" class="s4 sw1" x2="72" y1="271"/>
<line y2="274" x1="66" class="s4 sw1" x2="66" y1="268"/>
<polygon class=" s5 sw2 f13" points="1730,1780 1784,1780 1757,1816"/>
<rect x="1730" width="54" y="1762" height="18" class="s13 sw2 f8"/>
<text x="1750" y="1801" class="f4">25</text>
<polygon stroke-width="0" class=" s4 f4" points="1766,1762 1766,1768 1772,1768 1760,1780 1760,1774 1754,1774"/>
<rect x="1339" width="36" y="480" height="36" class="s5 sw2 f14"/>
<line y2="516" x1="1339" class="s7 sw6" x2="1375" y1="480"/>
<line y2="516" x1="1375" class="s7 sw6" x2="1339" y1="480"/>
<rect x="1330" width="54" y="462" height="18" class="s14 sw2 f8"/>
<text x="1350" y="501" class="f4">20</text>
<polygon stroke-width="0" class=" s4 f4" points="1366,462 1366,468 1372,468 1360,480 1360,474 1354,474"/>
<circle r="18" class="s5 sw2 f14" cx="857" cy="1798"/>
<rect x="830" width="54" y="1762" height="18" class="s14 sw2 f8"/>
<text x="850" y="1801" class="f4">2</text>
<circle r="6" class="s4 sw1 f8" cx="854" cy="1774"/>
<circle r="6" class="s4 sw1 f8" cx="872" cy="1774"/>
<line y2="1774" x1="860" class="s4 sw1" x2="866" y1="1774"/>
<line y2="1762" x1="848" class="s4 sw1" x2="860" y1="1774"/>
<line y2="1762" x1="878" class="s4 sw1" x2="884" y1="1774"/>
<polygon class=" s5 sw2 f14" points="1048,1780 1066,1780 1075,1789 1075,1807 1066,1816 1048,1816 1039,1807 1039,1789"/>
<rect x="1030" width="54" y="1762" height="18" class="s14 sw2 f8"/>
<text x="1050" y="1801" class="f4">10</text>
<polygon stroke-width="0" class=" s4 f4" points="1066,1762 1066,1768 1072,1768 1060,1780 1060,1774 1054,1774"/>
<rect x="339" width="36" y="380" height="36" class="s5 sw2 f14"/>
<rect x="330" width="54" y="362" height="18" class="s14 sw2 f8"/>
<text x="350" y="401" class="f4">18</text>
<polygon stroke-width="0" class=" s4 f4" points="366,362 366,368 372,368 360,380 360,374 354,374"/>
<circle r="18" class="s5 sw2 f14" cx="1657" cy="398"/>
<rect x="1630" width="54" y="362" height="18" class="s14 sw2 f8"/>
<text x="1650" y="401" class="f4">3</text>
<circle stroke-width="0" r="3" class="s4 f4" cx="1666" cy="365"/>
<circle stroke-width="0" r="3" class="s4 f4" cx="1666" cy="377"/>
<circle stroke-width="0" r="3" class="s4 f4" cx="1657" cy="371"/>
<circle stroke-width="0" r="3" class="s4 f4" cx="1675" cy="371"/>
<line y2="371" x1="1660" class="s4 sw1" x2="1672" y1="371"/>
<line y2="374" x1="1666" class="s4 sw1" x2="1666" y1="368"/>
<polygon class=" s5 sw2 f13" points="930,680 984,680 957,716"/>
<rect x="930" width="54" y="662" height="18" class="s13 sw2 f7"/>
<text x="950" y="701" class="f4">28</text>
<polygon class=" s5 sw2 f13" points="978,653 996,653 1005,662 1005,680 996,689 978,689 969,680 969,662"/>
<rect x="960" width="54" y="635" height="18" class="s13 sw2 f7"/>
<text x="980" y="674" class="f4">9</text>
<polygon class=" s5 sw2 f14" points="971,615 989,615 998,624 998,642 989,651 971,651 962,642 962,624"/>
<rect x="953" width="54" y="597" height="18" class="s14 sw2 f8"/>
<text x="973" y="636" class="f4">9</text>
<circle stroke-width="0" r="3" class="s4 f4" cx="989" cy="600"/>
<circle stroke-width="0" r="3" class="s4 f4" cx="989" cy="612"/>
<circle stroke-width="0" r="3" class="s4 f4" cx="980" cy="606"/>
<circle stroke-width="0" r="3" class="s4 f4" cx="998" cy="606"/>
<line y2="606" x1="983" class="s4 sw1" x2="995" y1="606"/>
<line y2="609" x1="989" class="s4 sw1" x2="989" y1="603"/>
<polygon class=" s5 sw2 f14" points="1148,680 1166,680 1175,689 1175,707 1166,716 1148,716 1139,707 1139,689"/>
<rect x="1130" width="54" y="662" height="18" class="s14 sw2 f8"/>
<text x="1150" y="701" class="f4">7</text>
<circle stroke-width="0" r="3" class="s4 f4" cx="1166" cy="665"/>
<circle stroke-width="0" r="3" class="s4 f4" cx="1166" cy="677"/>
<circle stroke-width="0" r="3" class="s4 f4" cx="1157" cy="671"/>
<circle stroke-width="0" r="3" class="s4 f4" cx="1175" cy="671"/>
<line y2="671" x1="1160" class="s4 sw1" x2="1172" y1="671"/>
<line y2="674" x1="1166" class="s4 sw1" x2="1166" y1="668"/>
<polygon class=" s5 sw2 f13" points="1548,880 1566,880 1575,889 1575,907 1566,916 1548,916 1539,907 1539,889"/>
<rect x="1530" width="54" y="862" height="18" class="s13 sw2 f7"/>
<text x="1550" y="901" class="f4">7</text>
<circle r="18" class="s5 sw2 f13" cx="257" cy="1198"/>
<rect x="230" width="54" y="1162" height="18" class="s13 sw2 f7"/>
<text x="250" y="1201" class="f4">6</text>
<circle r="18" class="s5 sw2 f14" cx="2157" cy="1098"/>
<rect x="2130" width="54" y="1062" height="18" class="s14 sw2 f8"/>
<text x="2150" y="1101" class="f4">6</text>
<polygon stroke-width="0" class=" s4 f4" points="2157,1062 2175,1062 2166,1080"/>
<circle r="18" class="s5 sw2 f14" cx="757" cy="2198"/>
<rect x="730" width="54" y="2162" height="18" class="s14 sw2 f8"/>
<text x="750" y="2201" class="f4">5</text>
<polygon stroke-width="0" class=" s4 f4" points="757,2162 775,2162 766,2180"/>
<rect x="939" width="36" y="2080" height="36" class="s5 sw2 f13"/>
<rect x="930" width="54" y="2062" height="18" class="s13 sw2 f7"/>
<text x="950" y="2101" class="f4">17</text>
<polygon class=" s5 sw2 f14" points="1548,780 1566,780 1575,789 1575,807 1566,816 1548,816 1539,807 1539,789"/>
<rect x="1530" width="54" y="762" height="18" class="s14 sw2 f8"/>
<text x="1550" y="801" class="f4">11</text>
<polygon stroke-width="0" class=" s4 f4" points="1557,762 1575,762 1575,774 1566,780 1557,774"/>
<polygon class=" s5 sw2 f14" points="1587,753 1605,771 1587,789 1569,771"/>
<line y2="789" x1="1569" class="s7 sw6" x2="1605" y1="753"/>
<line y2="789" x1="1605" class="s7 sw6" x2="1569" y1="753"/>
<rect x="1560" width="54" y="735" height="18" class="s14 sw2 f8"/>
<text x="1580" y="774" class="f4">15</text>
<polygon stroke-width="0" class=" s4 f4" points="1596,735 1596,741 1602,741 1590,753 1590,747 1584,747"/>
<polygon class=" s5 sw2 f14" points="1130,2180 1184,2180 1157,2216"/>
<rect x="1130" width="54" y="2162" height="18" class="s14 sw2 f8"/>
<text x="1150" y="2201" class="f4">23</text>
<circle stroke-width="0" r="3" class="s4 f4" cx="1166" cy="2165"/>
<circle stroke-width="0" r="3" class="s4 f4" cx="1166" cy="2177"/>
<circle stroke-width="0" r="3" class="s4 f4" cx="1157" cy="2171"/>
<circle stroke-width="0" r="3" class="s4 f4" cx="1175" cy="2171"/>
<line y2="2171" x1="1160" class="s4 sw1" x2="1172" y1="2171"/>
<line y2="2174" x1="1166" class="s4 sw1" x2="1166" y1="2168"/>
<polygon class=" s5 sw2 f13" points="1457,1380 1475,1398 1457,1416 1439,1398"/>
<rect x="1430" width="54" y="1362" height="18" class="s13 sw2 f7"/>
<text x="1450" y="1401" class="f4">13</text>
<circle r="18" class="s5 sw2 f13" cx="1757" cy="2098"/>
<rect x="1730" width="54" y="2062" height="18" class="s13 sw2 f7"/>
<text x="1750" y="2101" class="f4">5</text>
<circle r="18" class="s5 sw2 f14" cx="1787" cy="2071"/>
<rect x="1760" width="54" y="2035" height="18" class="s14 sw2 f8"/>
<text x="1780" y="2074" class="f4">1</text>
<polygon stroke-width="0" class=" s4 f4" points="1787,2035 1805,2035 1796,2053"/>
<rect x="439" width="36" y="380" height="36" class="s5 sw2 f14"/>
<line y2="416" x1="439" class="s7 sw6" x2="475" y1="380"/>
<line y2="416" x1="475" class="s7 sw6" x2="439" y1="380"/>
<rect x="430" width="54" y="362" height="18" class="s14 sw2 f8"/>
<text x="450" y="401" class="f4">22</text>
<polygon stroke-width="0" class=" s4 f4" points="466,362 466,368 472,368 460,380 460,374 454,374"/>
<polygon class=" s5 sw2 f14" points="2030,180 2084,180 2057,216"/>
<rect x="2030" width="54" y="162" height="18" class="s14 sw2 f8"/>
<text x="2050" y="201" class="f4">24</text>
<circle stroke-width="0" r="3" class="s4 f4" cx="2066" cy="165"/>
<circle stroke-width="0" r="3" class="s4 f4" cx="2066" cy="177"/>
<circle stroke-width="0" r="3" class="s4 f4" cx="2057" cy="171"/>
<circle stroke-width="0" r="3" class="s4 f4" cx="2075" cy="171"/>
<line y2="171" x1="2060" class="s4 sw1" x2="2072" y1="171"/>
<line y2="174" x1="2066" class="s4 sw1" x2="2066" y1="168"/>
<rect x="1739" width="36" y="280" height="36" class="s5 sw2 f13"/>
<rect x="1730" width="54" y="262" height="18" class="s13 sw2 f7"/>
<text x="1750" y="301" class="f4">22</text>
<rect x="39" width="36" y="1580" height="36" class="s5 sw2 f14"/>
<rect x="30" width="54" y="1562" height="18" class="s14 sw2 f8"/>
<text x="50" y="1601" class="f4">19</text>
<circle stroke-width="0" r="3" class="s4 f4" cx="66" cy="1565"/>
<circle stroke-width="0" r="3" class="s4 f4" cx="66" cy="1577"/>
<circle stroke-width="0" r="3" class="s4 f4" cx="57" cy="1571"/>
<circle stroke-width="0" r="3" class="s4 f4" cx="75" cy="1571"/>
<line y2="1571" x1="60" class="s4 sw1" x2="72" y1="1571"/>
<line y2="1574" x1="66" class="s4 sw1" x2="66" y1="1568"/>
<circle r="18" class="s5 sw2 f13" cx="657" cy="1798"/>
<rect x="630" width="54" y="1762" height="18" class="s13 sw2 f7"/>
<text x="650" y="1801" class="f4">1</text>
<polygon class=" s5 sw2 f13" points="660,1753 714,1753 687,1789"/>
<rect x="660" width="54" y="1735" height="18" class="s13 sw2 f7"/>
<text x="680" y="1774" class="f4">23</text>
<rect x="2039" width="36" y="1580" height="36" class="s5 sw2 f13"/>
<rect x="2030" width="54" y="1562" height="18" class="s13 sw2 f7"/>
<text x="2050" y="1601" class="f4">19</text>
<polygon class=" s5 sw2 f13" points="948,1880 966,1880 975,1889 975,1907 966,1916 948,1916 939,1907 939,1889"/>
<rect x="930" width="54" y="1862" height="18" class="s13 sw2 f7"/>
<text x="950" y="1901" class="f4">10</text>
<circle r="18" class="s5 sw2 f13" cx="1057" cy="1198"/>
<rect x="1030" width="54" y="1162" height="18" class="s13 sw2 f7"/>
<text x="1050" y="1201" class="f4">4</text>
<polygon class=" s5 sw2 f13" points="1748,1080 1766,1080 1775,1089 1775,1107 1766,1116 1748,1116 1739,1107 1739,1089"/>
<rect x="1730" width="54" y="1062" height="18" class="s13 sw2 f7"/>
<text x="1750" y="1101" class="f4">8</text>
<polygon class=" s5 sw2 f14" points="757,580 775,598 757,616 739,598"/>
<line y2="616" x1="739" class="s7 sw6" x2="775" y1="580"/>
<line y2="616" x1="775" class="s7 sw6" x2="739" y1="580"/>
<rect x="730" width="54" y="562" height="18" class="s14 sw2 f8"/>
<text x="750" y="601" class="f4">14</text>
<polygon stroke-width="0" class=" s4 f4" points="766,562 766,568 772,568 760,580 760,574 754,574"/>
<polygon class=" s5 sw2 f13" points="1848,880 1866,880 1875,889 1875,907 1866,916 1848,916 1839,907 1839,889"/>
<rect x="1830" width="54" y="862" height="18" class="s13 sw2 f7"/>
<text x="1850" y="901" class="f4">12</text>
<circle r="18" class="s5 sw2 f13" cx="957" cy="198"/>
<rect x="930" width="54" y="162" height="18" class="s13 sw2 f7"/>
<text x="950" y="201" class="f4">3</text>
<polygon class=" s5 sw2 f13" points="557,380 575,398 557,416 539,398"/>
<rect x="530" width="54" y="362" height="18" class="s13 sw2 f7"/>
<text x="550" y="401" class="f4">15</text>
<rect x="539" width="36" y="180" height="36" class="s5 sw2 f13"/>
<rect x="530" width="54" y="162" height="18" class="s13 sw2 f7"/>
<text x="550" y="201" class="f4">20</text>
<polygon class=" s5 sw2 f13" points="1030,1680 1084,1680 1057,1716"/>
<rect x="1030" width="54" y="1662" height="18" class="s13 sw2 f8"/>
<text x="1050" y="1701" class="f4">27</text>
<polygon stroke-width="0" class=" s4 f4" points="1066,1662 1066,1668 1072,1668 1060,1680 1060,1674 1054,1674"/>
<circle r="18" class="s5 sw2 f14" cx="1157" cy="1398"/>
<rect x="1130" width="54" y="1362" height="18" class="s14 sw2 f8"/>
<text x="1150" y="1401" class="f4">4</text>
<polygon stroke-width="0" class=" s4 f4" points="1157,1362 1175,1362 1166,1380"/>
<rect x="1169" width="36" y="1353" height="36" class="s5 sw2 f14"/>
<rect x="1160" width="54" y="1335" height="18" class="s14 sw2 f8"/>
<text x="1180" y="1374" class="f4">17</text>
<circle stroke-width="0" r="3" class="s4 f4" cx="1196" cy="1338"/>
<circle stroke-width="0" r="3" class="s4 f4" cx="1196" cy="1350"/>
<circle stroke-width="0" r="3" class="s4 f4" cx="1187" cy="1344"/>
<circle stroke-width="0" r="3" class="s4 f4" cx="1205" cy="1344"/>
<line y2="1344" x1="1190" class="s4 sw1" x2="1202" y1="1344"/>
<line y2="1347" x1="1196" class="s4 sw1" x2="1196" y1="1341"/>
<polygon class=" s5 sw2 f14" points="1130,1680 1184,1680 1157,1716"/>
<rect x="1130" width="54" y="1662" height="18" class="s14 sw2 f8"/>
<text x="1150" y="1701" class="f4">27</text>
<circle stroke-width="0" r="3" class="s4 f4" cx="1166" cy="1665"/>
<circle stroke-width="0" r="3" class="s4 f4" cx="1166" cy="1677"/>
<circle stroke-width="0" r="3" class="s4 f4" cx="1157" cy="1671"/>
<circle stroke-width="0" r="3" class="s4 f4" cx="1175" cy="1671"/>
<line y2="1671" x1="1160" class="s4 sw1" x2="1172" y1="1671"/>
<line y2="1674" x1="1166" class="s4 sw1" x2="1166" y1="1668"/>
<polygon class=" s5 sw2 f13" points="748,880 766,880 775,889 775,907 766,916 748,916 739,907 739,889"/>
<rect x="730" width="54" y="862" height="18" class="s13 sw2 f7"/>
<text x="750" y="901" class="f4">11</text>
<polygon class=" s5 sw2 f14" points="1430,580 1484,580 1457,616"/>
<rect x="1430" width="54" y="562" height="18" class="s14 sw2 f8"/>
<text x="1450" y="601" class="f4">28</text>
<line y2="574" x1="1460" class="s4 sw3" x2="1472" y1="568"/>
<circle stroke-width="0" r="6" class="s4 f4" cx="1460" cy="568"/>
<polygon class=" s5 sw2 f13" points="457,1480 475,1498 457,1516 439,1498"/>
<rect x="430" width="54" y="1462" height="18" class="s13 sw2 f7"/>
<text x="450" y="1501" class="f4">16</text>
<polygon class=" s5 sw2 f13" points="30,180 84,180 57,216"/>
<rect x="30" width="54" y="162" height="18" class="s13 sw2 f8"/>
<text x="50" y="201" class="f4">24</text>
<line y2="174" x1="60" class="s4 sw3" x2="72" y1="168"/>
<circle stroke-width="0" r="6" class="s4 f4" cx="60" cy="168"/>
<polygon class=" s5 sw2 f14" points="1057,1580 1075,1598 1057,1616 1039,1598"/>
<line y2="1616" x1="1039" class="s7 sw6" x2="1075" y1="1580"/>
<line y2="1616" x1="1075" class="s7 sw6" x2="1039" y1="1580"/>
<rect x="1030" width="54" y="1562" height="18" class="s14 sw2 f8"/>
<text x="1050" y="1601" class="f4">13</text>
<polygon stroke-width="0" class=" s4 f4" points="1066,1562 1066,1568 1072,1568 1060,1580 1060,1574 1054,1574"/>
<polygon class=" s5 sw2 f13" points="1457,480 1475,498 1457,516 1439,498"/>
<rect x="1430" width="54" y="462" height="18" class="s13 sw2 f7"/>
<text x="1450" y="501" class="f4">14</text>
<g id="teamTable" transform="translate(-100, 150)">
<text x="2350" y="75" class="TxtNrml">Step: 6</text>
<text x="2350" y="180" class="Tb" text-anchor="start">
<tspan fill="rgba(0,158,115,1.0)" x="2350">A</tspan>
<tspan x="2750">178</tspan>
<tspan x="2950">29</tspan>
<tspan x="3150">15</tspan>
<tspan x="3350">14</tspan>
</text>
<text x="2350" y="220" class="Tb" text-anchor="start">
<tspan fill="rgba(0,114,178,1.0)" x="2350">B</tspan>
<tspan x="2750">237</tspan>
<tspan x="2950">38</tspan>
<tspan x="3150">22</tspan>
<tspan x="3350">16</tspan>
</text>
</g>
<g id="agentTable" transform="translate(-100, 150)">
<text x="2350" y="316" class="Tb2" text-anchor="start">
<tspan x="2535">18/35</tspan>
<tspan x="2650">4/4</tspan>
<tspan x="2765">0</tspan>
<tspan x="2880">2</tspan>
<tspan x="2995">probe :successful</tspan>
</text>
<text x="2350" y="346" class="Tb2" text-anchor="start">
<tspan x="2535">29/35</tspan>
<tspan x="2650">4/4</tspan>
<tspan x="2765">0</tspan>
<tspan x="2880">2</tspan>
<tspan x="2995">survey :successful</tspan>
</text>
<text x="2350" y="376" class="Tb2" text-anchor="start">
<tspan x="2535">33/35</tspan>
<tspan x="2650">1/4</tspan>
<tspan x="2765">0</tspan>
<tspan x="2880">2</tspan>
<tspan x="2995">goto v147:successful</tspan>
</text>
<text x="2350" y="406" class="Tb2" text-anchor="start">
<tspan x="2535">28/35</tspan>
<tspan x="2650">4/4</tspan>
<tspan x="2765">0</tspan>
<tspan x="2880">2</tspan>
<tspan x="2995">probe :successful</tspan>
</text>
<text x="2350" y="436" class="Tb2" text-anchor="start">
<tspan x="2535">27/35</tspan>
<tspan x="2650">4/4</tspan>
<tspan x="2765">0</tspan>
<tspan x="2880">2</tspan>
<tspan x="2995">probe :successful</tspan>
</text>
<text x="2350" y="466" class="Tb2" text-anchor="start">
<tspan x="2535">20/35</tspan>
<tspan x="2650">4/4</tspan>
<tspan x="2765">0</tspan>
<tspan x="2880">2</tspan>
<tspan x="2995">probe :successful</tspan>
</text>
<text x="2350" y="496" class="Tb2" text-anchor="start">
<tspan x="2535">11/25</tspan>
<tspan x="2650">6/6</tspan>
<tspan x="2765">0</tspan>
<tspan x="2880">1</tspan>
<tspan x="2995">goto v171:successful</tspan>
</text>
<text x="2350" y="526" class="Tb2" text-anchor="start">
<tspan x="2535">14/25</tspan>
<tspan x="2650">6/6</tspan>
<tspan x="2765">0</tspan>
<tspan x="2880">1</tspan>
<tspan x="2995">goto v54:successful</tspan>
</text>
<text x="2350" y="556" class="Tb2" text-anchor="start">
<tspan x="2535">12/25</tspan>
<tspan x="2650">6/6</tspan>
<tspan x="2765">0</tspan>
<tspan x="2880">1</tspan>
<tspan x="2995">goto v154:successful</tspan>
</text>
<text x="2350" y="586" class="Tb2" text-anchor="start">
<tspan x="2535">25/25</tspan>
<tspan x="2650">6/6</tspan>
<tspan x="2765">0</tspan>
<tspan x="2880">1</tspan>
<tspan x="2995">recharge :successful</tspan>
</text>
<text x="2350" y="616" class="Tb2" text-anchor="start">
<tspan x="2535">12/25</tspan>
<tspan x="2650">6/6</tspan>
<tspan x="2765">0</tspan>
<tspan x="2880">1</tspan>
<tspan x="2995">parry :useless</tspan>
</text>
<text x="2350" y="646" class="Tb2" text-anchor="start">
<tspan x="2535">14/25</tspan>
<tspan x="2650">6/6</tspan>
<tspan x="2765">0</tspan>
<tspan x="2880">1</tspan>
<tspan x="2995">goto v54:successful</tspan>
</text>
<text x="2350" y="676" class="Tb2" text-anchor="start">
<tspan x="2535">6/20</tspan>
<tspan x="2650">0/3</tspan>
<tspan x="2765">3</tspan>
<tspan x="2880">1</tspan>
<tspan x="2995">recharge :successful</tspan>
</text>
<text x="2350" y="706" class="Tb2" text-anchor="start">
<tspan x="2535">10/20</tspan>
<tspan x="2650">0/3</tspan>
<tspan x="2765">3</tspan>
<tspan x="2880">1</tspan>
<tspan x="2995">recharge :successful</tspan>
</text>
<text x="2350" y="736" class="Tb2" text-anchor="start">
<tspan x="2535">20/20</tspan>
<tspan x="2650">0/3</tspan>
<tspan x="2765">3</tspan>
<tspan x="2880">1</tspan>
<tspan x="2995">recharge :successful</tspan>
</text>
<text x="2350" y="766" class="Tb2" text-anchor="start">
<tspan x="2535">11/20</tspan>
<tspan x="2650">0/3</tspan>
<tspan x="2765">3</tspan>
<tspan x="2880">1</tspan>
<tspan x="2995">recharge :successful</tspan>
</text>
<text x="2350" y="796" class="Tb2" text-anchor="start">
<tspan x="2535">13/30</tspan>
<tspan x="2650">1/1</tspan>
<tspan x="2765">0</tspan>
<tspan x="2880">3</tspan>
<tspan x="2995">goto v329:successful</tspan>
</text>
<text x="2350" y="826" class="Tb2" text-anchor="start">
<tspan x="2535">30/30</tspan>
<tspan x="2650">1/1</tspan>
<tspan x="2765">0</tspan>
<tspan x="2880">3</tspan>
<tspan x="2995">recharge :successful</tspan>
</text>
<text x="2350" y="856" class="Tb2" text-anchor="start">
<tspan x="2535">19/30</tspan>
<tspan x="2650">1/1</tspan>
<tspan x="2765">0</tspan>
<tspan x="2880">3</tspan>
<tspan x="2995">goto v252:successful</tspan>
</text>
<text x="2350" y="886" class="Tb2" text-anchor="start">
<tspan x="2535">16/30</tspan>
<tspan x="2650">0/1</tspan>
<tspan x="2765">0</tspan>
<tspan x="2880">3</tspan>
<tspan x="2995">recharge :successful</tspan>
</text>
<text x="2350" y="916" class="Tb2" text-anchor="start">
<tspan x="2535">19/30</tspan>
<tspan x="2650">1/1</tspan>
<tspan x="2765">0</tspan>
<tspan x="2880">3</tspan>
<tspan x="2995">goto v0:successful</tspan>
</text>
<text x="2350" y="946" class="Tb2" text-anchor="start">
<tspan x="2535">16/30</tspan>
<tspan x="2650">0/1</tspan>
<tspan x="2765">0</tspan>
<tspan x="2880">3</tspan>
<tspan x="2995">recharge :successful</tspan>
</text>
<text x="2350" y="976" class="Tb2" text-anchor="start">
<tspan x="2535">15/25</tspan>
<tspan x="2650">6/6</tspan>
<tspan x="2765">0</tspan>
<tspan x="2880">1</tspan>
<tspan x="2995">goto v226:successful</tspan>
</text>
<text x="2350" y="1006" class="Tb2" text-anchor="start">
<tspan x="2535">14/25</tspan>
<tspan x="2650">6/6</tspan>
<tspan x="2765">0</tspan>
<tspan x="2880">1</tspan>
<tspan x="2995">goto v244:successful</tspan>
</text>
<text x="2350" y="1036" class="Tb2" text-anchor="start">
<tspan x="2535">3/25</tspan>
<tspan x="2650">6/6</tspan>
<tspan x="2765">0</tspan>
<tspan x="2880">1</tspan>
<tspan x="2995">goto v61:successful</tspan>
</text>
<text x="2350" y="1066" class="Tb2" text-anchor="start">
<tspan x="2535">10/25</tspan>
<tspan x="2650">6/6</tspan>
<tspan x="2765">0</tspan>
<tspan x="2880">1</tspan>
<tspan x="2995">goto v85:successful</tspan>
</text>
<text x="2350" y="1096" class="Tb2" text-anchor="start">
<tspan x="2535">4/25</tspan>
<tspan x="2650">6/6</tspan>
<tspan x="2765">0</tspan>
<tspan x="2880">1</tspan>
<tspan x="2995">goto v342:successful</tspan>
</text>
<text x="2350" y="1126" class="Tb2" text-anchor="start">
<tspan x="2535">15/25</tspan>
<tspan x="2650">6/6</tspan>
<tspan x="2765">0</tspan>
<tspan x="2880">1</tspan>
<tspan x="2995">inspect :successful</tspan>
</text>
<text x="2350" y="1156" class="Tb2" text-anchor="start">
<tspan x="2535">24/35</tspan>
<tspan x="2650">4/4</tspan>
<tspan x="2765">0</tspan>
<tspan x="2880">2</tspan>
<tspan fill="red" x="2995">noAction :failed</tspan>
</text>
<text x="2350" y="1186" class="Tb2" text-anchor="start">
<tspan x="2535">23/35</tspan>
<tspan x="2650">4/4</tspan>
<tspan x="2765">0</tspan>
<tspan x="2880">2</tspan>
<tspan fill="red" x="2995">noAction :failed</tspan>
</text>
<text x="2350" y="1216" class="Tb2" text-anchor="start">
<tspan x="2535">25/35</tspan>
<tspan x="2650">4/4</tspan>
<tspan x="2765">0</tspan>
<tspan x="2880">2</tspan>
<tspan fill="red" x="2995">noAction :failed</tspan>
</text>
<text x="2350" y="1246" class="Tb2" text-anchor="start">
<tspan x="2535">27/35</tspan>
<tspan x="2650">4/4</tspan>
<tspan x="2765">0</tspan>
<tspan x="2880">2</tspan>
<tspan fill="red" x="2995">noAction :failed</tspan>
</text>
<text x="2350" y="1276" class="Tb2" text-anchor="start">
<tspan x="2535">22/35</tspan>
<tspan x="2650">4/4</tspan>
<tspan x="2765">0</tspan>
<tspan x="2880">2</tspan>
<tspan fill="red" x="2995">noAction :failed</tspan>
</text>
<text x="2350" y="1306" class="Tb2" text-anchor="start">
<tspan x="2535">26/35</tspan>
<tspan x="2650">4/4</tspan>
<tspan x="2765">0</tspan>
<tspan x="2880">2</tspan>
<tspan fill="red" x="2995">noAction :failed</tspan>
</text>
<text x="2350" y="1336" class="Tb2" text-anchor="start">
<tspan x="2535">16/25</tspan>
<tspan x="2650">6/6</tspan>
<tspan x="2765">0</tspan>
<tspan x="2880">1</tspan>
<tspan fill="red" x="2995">noAction :failed</tspan>
</text>
<text x="2350" y="1366" class="Tb2" text-anchor="start">
<tspan x="2535">12/25</tspan>
<tspan x="2650">6/6</tspan>
<tspan x="2765">0</tspan>
<tspan x="2880">1</tspan>
<tspan fill="red" x="2995">noAction :failed</tspan>
</text>
<text x="2350" y="1396" class="Tb2" text-anchor="start">
<tspan x="2535">13/25</tspan>
<tspan x="2650">6/6</tspan>
<tspan x="2765">0</tspan>
<tspan x="2880">1</tspan>
<tspan fill="red" x="2995">noAction :failed</tspan>
</text>
<text x="2350" y="1426" class="Tb2" text-anchor="start">
<tspan x="2535">12/25</tspan>
<tspan x="2650">6/6</tspan>
<tspan x="2765">0</tspan>
<tspan x="2880">1</tspan>
<tspan fill="red" x="2995">noAction :failed</tspan>
</text>
<text x="2350" y="1456" class="Tb2" text-anchor="start">
<tspan x="2535">14/25</tspan>
<tspan x="2650">6/6</tspan>
<tspan x="2765">0</tspan>
<tspan x="2880">1</tspan>
<tspan fill="red" x="2995">noAction :failed</tspan>
</text>
<text x="2350" y="1486" class="Tb2" text-anchor="start">
<tspan x="2535">12/25</tspan>
<tspan x="2650">6/6</tspan>
<tspan x="2765">0</tspan>
<tspan x="2880">1</tspan>
<tspan fill="red" x="2995">noAction :failed</tspan>
</text>
<text x="2350" y="1516" class="Tb2" text-anchor="start">
<tspan x="2535">11/20</tspan>
<tspan x="2650">3/3</tspan>
<tspan x="2765">3</tspan>
<tspan x="2880">1</tspan>
<tspan fill="red" x="2995">noAction :failed</tspan>
</text>
<text x="2350" y="1546" class="Tb2" text-anchor="start">
<tspan x="2535">3/20</tspan>
<tspan x="2650">3/3</tspan>
<tspan x="2765">3</tspan>
<tspan x="2880">1</tspan>
<tspan fill="red" x="2995">noAction :failed</tspan>
</text>
<text x="2350" y="1576" class="Tb2" text-anchor="start">
<tspan x="2535">6/20</tspan>
<tspan x="2650">3/3</tspan>
<tspan x="2765">3</tspan>
<tspan x="2880">1</tspan>
<tspan fill="red" x="2995">noAction :failed</tspan>
</text>
<text x="2350" y="1606" class="Tb2" text-anchor="start">
<tspan x="2535">7/20</tspan>
<tspan x="2650">3/3</tspan>
<tspan x="2765">3</tspan>
<tspan x="2880">1</tspan>
<tspan fill="red" x="2995">noAction :failed</tspan>
</text>
<text x="2350" y="1636" class="Tb2" text-anchor="start">
<tspan x="2535">12/30</tspan>
<tspan x="2650">1/1</tspan>
<tspan x="2765">0</tspan>
<tspan x="2880">3</tspan>
<tspan fill="red" x="2995">noAction :failed</tspan>
</text>
<text x="2350" y="1666" class="Tb2" text-anchor="start">
<tspan x="2535">16/30</tspan>
<tspan x="2650">1/1</tspan>
<tspan x="2765">0</tspan>
<tspan x="2880">3</tspan>
<tspan fill="red" x="2995">noAction :failed_random</tspan>
</text>
<text x="2350" y="1696" class="Tb2" text-anchor="start">
<tspan x="2535">7/30</tspan>
<tspan x="2650">1/1</tspan>
<tspan x="2765">0</tspan>
<tspan x="2880">3</tspan>
<tspan fill="red" x="2995">noAction :failed</tspan>
</text>
<text x="2350" y="1726" class="Tb2" text-anchor="start">
<tspan x="2535">19/30</tspan>
<tspan x="2650">1/1</tspan>
<tspan x="2765">0</tspan>
<tspan x="2880">3</tspan>
<tspan fill="red" x="2995">noAction :failed</tspan>
</text>
<text x="2350" y="1756" class="Tb2" text-anchor="start">
<tspan x="2535">18/30</tspan>
<tspan x="2650">1/1</tspan>
<tspan x="2765">0</tspan>
<tspan x="2880">3</tspan>
<tspan fill="red" x="2995">noAction :failed</tspan>
</text>
<text x="2350" y="1786" class="Tb2" text-anchor="start">
<tspan x="2535">20/30</tspan>
<tspan x="2650">1/1</tspan>
<tspan x="2765">0</tspan>
<tspan x="2880">3</tspan>
<tspan fill="red" x="2995">noAction :failed</tspan>
</text>
<text x="2350" y="1816" class="Tb2" text-anchor="start">
<tspan x="2535">13/25</tspan>
<tspan x="2650">6/6</tspan>
<tspan x="2765">0</tspan>
<tspan x="2880">1</tspan>
<tspan fill="red" x="2995">noAction :failed</tspan>
</text>
<text x="2350" y="1846" class="Tb2" text-anchor="start">
<tspan x="2535">12/25</tspan>
<tspan x="2650">6/6</tspan>
<tspan x="2765">0</tspan>
<tspan x="2880">1</tspan>
<tspan x="2995">inspect :successful</tspan>
</text>
<text x="2350" y="1876" class="Tb2" text-anchor="start">
<tspan x="2535">21/25</tspan>
<tspan x="2650">6/6</tspan>
<tspan x="2765">0</tspan>
<tspan x="2880">1</tspan>
<tspan x="2995">recharge :successful</tspan>
</text>
<text x="2350" y="1906" class="Tb2" text-anchor="start">
<tspan x="2535">10/25</tspan>
<tspan x="2650">6/6</tspan>
<tspan x="2765">0</tspan>
<tspan x="2880">1</tspan>
<tspan fill="red" x="2995">noAction :failed</tspan>
</text>
<text x="2350" y="1936" class="Tb2" text-anchor="start">
<tspan x="2535">20/25</tspan>
<tspan x="2650">6/6</tspan>
<tspan x="2765">0</tspan>
<tspan x="2880">1</tspan>
<tspan x="2995">recharge :successful</tspan>
</text>
<text x="2350" y="1966" class="Tb2" text-anchor="start">
<tspan x="2535">3/25</tspan>
<tspan x="2650">6/6</tspan>
<tspan x="2765">0</tspan>
<tspan x="2880">1</tspan>
<tspan fill="red" x="2995">noAction :failed</tspan>
</text>
</g>
<line y2="442" x1="3290" class="s5 sw1" x2="3290" y1="1996"/>
<g id="achievementPart" transform="translate(-100, 150)">
<text x="3400" y="301" class="TxtAch">
<tspan x="3400">Achievements</tspan>
<tspan fill="rgba(0,158,115,1.0)" x="3400" y="331">A</tspan>
<tspan x="3400" y="351">proved5</tspan>
<tspan x="3400" y="371">proved10</tspan>
<tspan x="3400" y="391">surveyed10</tspan>
<tspan x="3400" y="411">surveyed20</tspan>
<tspan x="3400" y="431">surveyed40</tspan>
<tspan x="3400" y="451">surveyed80</tspan>
<tspan x="3400" y="471">area10</tspan>
<tspan fill="rgba(0,114,178,1.0)" x="3400" y="496">B</tspan>
<tspan x="3400" y="516">proved5</tspan>
<tspan x="3400" y="536">proved10</tspan>
<tspan x="3400" y="556">surveyed10</tspan>
<tspan x="3400" y="576">surveyed20</tspan>
<tspan x="3400" y="596">surveyed40</tspan>
<tspan x="3400" y="616">surveyed80</tspan>
<tspan x="3400" y="636">surveyed160</tspan>
<tspan x="3400" y="656">area10</tspan>
</text>
</g>
</g>
</svg>
